{
.appVersion = "3151";
.formatVersion = 3;
axes = (
{
name = Weight;
tag = wght;
}
);
classes = (
{
automatic = 1;
code = "A Aacute Abreve Acircumflex Adieresis Adotbelow Agrave Amacron Aogonek Aring Aringacute Atilde AE AEacute B C Cacute Ccaron Ccedilla Ccedillaacute Ccircumflex Cdotaccent D Eth Dcaron Dcroat Ddotbelow Dmacronbelow E Eacute Ebreve Ecaron Ecedillabreve Ecircumflex Edieresis Edotaccent Edotbelow Egrave Emacron Emacronacute Emacrongrave Eogonek Etilde Schwa F G Gbreve Gcaron Gcircumflex Gcommaaccent Gdotaccent Gmacron H Hbar Hbrevebelow Hcircumflex Hdotbelow I IJ Iacute Ibreve Icircumflex Idieresis Idieresisacute Idotaccent Idotbelow Igrave Imacron Iogonek Itilde J Jacute Jcircumflex K Kcommaaccent L Lacute Lcaron Lcommaaccent Ldot Ldotbelow Lmacronbelow Lslash M Mdotbelow N Nacute Ncaron Ncommaaccent Ndotaccent Ndotbelow Nhookleft Nmacronbelow Ntilde Eng O Oacute Obreve Ocircumflex Odieresis Odotbelow Ograve Ohungarumlaut Omacron Omacronacute Omacrongrave Oogonek Oslash Oslashacute Otilde Otildeacute Otildedieresis OE P Thorn Q R Racute Rcaron Rcommaaccent Rdotbelow Rmacronbelow S Sacute Sacutedotaccent Scaron Scarondotaccent Scedilla Scircumflex Scommaaccent Sdotaccent Sdotbelow Sdotbelowdotaccent Germandbls T Tbar Tcaron Tcedilla Tcommaaccent Tdotbelow Tmacronbelow U Uacute Ubreve Ucircumflex Udieresis Udotbelow Ugrave Uhungarumlaut Umacron Umacrondieresis Uogonek Uring Utilde Utildeacute V W Wacute Wcircumflex Wdieresis Wgrave X Y Yacute Ycircumflex Ydieresis Ydotaccent Ygrave Ymacron Ytilde Z Zacute Zcaron Zdotaccent Zdotbelow Delta Omega";
name = Uppercase;
}
);
customParameters = (
{
name = blueScale;
value = 0.037;
},
{
name = fsType;
value = (
);
},
{
name = "Use Typo Metrics";
value = 1;
},
{
name = "gasp Table";
value = {
9 = 10;
21 = 7;
65535 = 15;
};
},
{
name = panose;
value = (
2,
11,
3,
4,
4,
4,
2,
0,
2,
3
);
},
{
name = unicodeRanges;
value = (
0,
1
);
},
{
name = codePageRanges;
value = (
"1252"
);
},
{

glyphs = (
{
glyphname = A;
kernLeft = A;
kernRight = A;
lastChange = "2023-09-13 04:36:28 +0000";
layers = (
{
anchors = (
{
name = bottom;
pos = (494,0);
},
{
name = ogonek;
pos = (887,0);
},
{
name = top;
pos = (494,1050);
}
);
layerId = "F5467FAD-1970-4982-B3D3-939C01050498";
shapes = (
{
closed = 1;
nodes = (
(101,0,l),
(258,392,l),
(195,329,l),
(792,329,l),
(729,392,l),
(887,0,l),
(957,0,l),
(531,1050,l),
(456,1050,l),
(30,0,l)
);
},
{
closed = 1;
nodes = (
(509,1011,l),
(479,1011,l),
(764,306,l),
(776,374,l),
(212,374,l),
(224,306,l)
);
}
);
width = 1017;
},
{
anchors = (
{
name = bottom;
pos = (609,0);
},
{
name = ogonek;
pos = (917,0);
},
{
name = top;
pos = (611,1050);
}
);
layerId = "6DD95C5A-998B-41AB-BDFB-84A73C209871";
shapes = (
{
closed = 1;
nodes = (
(303,0,l),
(438,329,l),
(345,266,l),
(875,266,l),
(782,329,l),
(917,0,l),
(1160,0,l),
(734,1050,l),
(486,1050,l),
(60,0,l)
);
},
{
closed = 1;
nodes = (
(636,810,l),
(584,810,l),
(765,369,l),
(807,432,l),
(413,432,l),
(455,369,l)
);
}
);
width = 1220;
},
{
anchors = (
{
name = bottom;
pos = (476,0);
},
{
name = ogonek;
pos = (882,0);
},
{
name = top;
pos = (476,1050);
}
);
layerId = "1FDC7037-1F88-4969-8535-0F79C1EF19DB";
shapes = (
{
closed = 1;
nodes = (
(68,0,l),
(230,402,l),
(171,339,l),
(779,339,l),
(720,402,l),
(882,0,l),
(924,0,l),
(498,1050,l),
(452,1050,l),
(26,0,l)
);
},
{
closed = 1;
nodes = (
(488,1043,l),
(462,1043,l),
(764,296,l),
(771,365,l),
(180,365,l),
(186,296,l)
);
}
);
width = 985;
},
{
anchors = (
{
name = bottom;
pos = (638,0);
},
{
name = ogonek;
pos = (924,0);
},
{
name = top;
pos = (639,1050);
}
);
layerId = "3ED9E848-BE83-4CAC-8EFF-D71BD2B4F667";
shapes = (
{
closed = 1;
nodes = (
(353,0,l),
(482,314,l),
(383,251,l),
(896,251,l),
(795,314,l),
(924,0,l),
(1209,0,l),
(783,1050,l),
(494,1050,l),
(68,0,l)
);
},
{
closed = 1;
nodes = (
(668,761,l),
(609,761,l),
(765,384,l),
(815,447,l),
(462,447,l),
(512,384,l)
);
}
);
width = 1269;
}
);
note = A;
unicode = 65;
},
{
glyphname = AE;
kernLeft = A;
kernRight = E;
lastChange = "2023-09-13 04:36:28 +0000";
layers = (
{
anchors = (
{
name = top;
pos = (1059,1050);
}
);
layerId = "F5467FAD-1970-4982-B3D3-939C01050498";
shapes = (
{
closed = 1;
nodes = (
(176,0,l),
(394,387,l),
(744,387,l),
(744,0,l),
(1535,0,l),
(1535,45,l),
(807,45,l),
(807,507,l),
(1502,507,l),
(1502,555,l),
(807,555,l),
(807,1004,l),
(1518,1004,l),
(1518,1050,l),
(693,1050,l),
(96,0,l)
);
},
{
closed = 1;
nodes = (
(744,1007,l),
(744,428,l),
(417,428,l)
);
}
);
width = 1605;
},
{
anchors = (
{
name = top;
pos = (1011,1050);
}
);
layerId = "6DD95C5A-998B-41AB-BDFB-84A73C209871";
shapes = (
{
closed = 1;
nodes = (
(272,0,l),
(420,263,l),
(731,263,l),
(731,0,l),
(1599,0,l),
(1599,186,l),
(962,186,l),
(962,444,l),
(1569,444,l),
(1569,630,l),
(962,630,l),
(962,864,l),
(1584,864,l),
(1584,1050,l),
(609,1050,l),
(12,0,l)
);
},
{
closed = 1;
nodes = (
(731,811,l),
(731,429,l),
(515,429,l)
);
}
);
width = 1605;
},
{
anchors = (
{
name = top;
pos = (1067,1050);
}
);
layerId = "1FDC7037-1F88-4969-8535-0F79C1EF19DB";
shapes = (
{
closed = 1;
nodes = (
(161,0,l),
(390,407,l),
(746,407,l),
(746,0,l),
(1524,0,l),
(1524,23,l),
(783,23,l),
(783,518,l),
(1491,518,l),
(1491,543,l),
(783,543,l),
(783,1026,l),
(1508,1026,l),
(1508,1050,l),
(707,1050,l),
(110,0,l)
);
},
{
closed = 1;
nodes = (
(746,1040,l),
(746,428,l),
(401,428,l)
);
}
);
width = 1605;
},
{
anchors = (
{
name = top;
pos = (999,1050);
}
);
layerId = "3ED9E848-BE83-4CAC-8EFF-D71BD2B4F667";
shapes = (
{
closed = 1;
nodes = (
(296,0,l),
(426,233,l),
(728,233,l),
(728,0,l),
(1616,0,l),
(1616,221,l),
(999,221,l),
(999,429,l),
(1586,429,l),
(1586,648,l),
(999,648,l),
(999,830,l),
(1601,830,l),
(1601,1050,l),
(588,1050,l),
(-9,0,l)
);
},
{
closed = 1;
nodes = (
(728,764,l),
(728,429,l),
(539,429,l)
);
}
);
width = 1605;
}
);
note = AE;
unicode = 198;
},
{
glyphname = B;
kernLeft = B;
kernRight = B;
lastChange = "2023-09-13 04:36:28 +0000";
layers = (
{
layerId = "F5467FAD-1970-4982-B3D3-939C01050498";
shapes = (
{
closed = 1;
nodes = (
(439,0,ls),
(670,0,o),
(828,99,o),
(828,312,cs),
(828,513,o),
(696,612,o),
(465,618,c),
(566,643,o),
(636,705,o),
(636,829,cs),
(636,997,o),
(508,1050,o),
(345,1050,cs),
(84,1050,l),
(84,0,l)
);
},
{
closed = 1;
nodes = (
(148,586,l),
(432,586,ls),
(618,586,o),
(762,502,o),
(762,312,cs),
(762,127,o),
(624,46,o),
(424,46,cs),
(148,46,l)
);
},
{
closed = 1;
nodes = (
(148,1003,l),
(345,1003,ls),
(489,1003,o),
(573,927,o),
(573,813,cs),
(573,700,o),
(492,618,o),
(339,618,cs),
(148,618,l)
);
}
);
width = 899;
},
{
layerId = "6DD95C5A-998B-41AB-BDFB-84A73C209871";
shapes = (
{
closed = 1;
nodes = (
(472,0,ls),
(712,0,o),
(900,116,o),
(900,338,cs),
(900,509,o),
(800,591,o),
(667,628,c),
(709,672,o),
(732,728,o),
(732,792,cs),
(732,986,o),
(559,1050,o),
(390,1050,cs),
(75,1050,l),
(75,0,l)
);
},
{
closed = 1;
nodes = (
(304,528,l),
(442,528,ls),
(592,528,o),
(669,473,o),
(669,338,cs),
(669,216,o),
(581,173,o),
(446,173,cs),
(304,173,l)
);
},
{
closed = 1;
nodes = (
(304,878,l),
(390,878,ls),
(466,878,o),
(517,846,o),
(517,762,cs),
(517,693,o),
(466,657,o),
(385,657,cs),
(304,657,l)
);
}
);
width = 945;
},
{
layerId = "1FDC7037-1F88-4969-8535-0F79C1EF19DB";
shapes = (
{
closed = 1;
nodes = (
(434,0,ls),
(665,0,o),
(816,96,o),
(816,308,cs),
(816,513,o),
(680,615,o),
(432,617,c),
(543,639,o),
(621,701,o),
(621,836,cs),
(621,999,o),
(501,1050,o),
(338,1050,cs),
(86,1050,l),
(86,0,l)
);
},
{
closed = 1;
nodes = (
(123,596,l),
(431,596,ls),
(623,596,o),
(777,507,o),
(777,308,cs),
(777,114,o),
(632,27,o),
(422,27,cs),
(123,27,l)
);
},
{
closed = 1;
nodes = (
(123,1023,l),
(338,1023,ls),
(492,1023,o),
(582,941,o),
(582,821,cs),
(582,702,o),
(497,612,o),
(332,612,cs),
(123,612,l)
);
}
);
width = 891;
},
{
layerId = "3ED9E848-BE83-4CAC-8EFF-D71BD2B4F667";
shapes = (
{
closed = 1;
nodes = (
(480,0,ls),
(723,0,o),
(918,120,o),
(918,344,cs),
(918,509,o),
(825,587,o),
(717,630,c),
(744,678,o),
(756,734,o),
(756,783,cs),
(756,983,o),
(572,1050,o),
(401,1050,cs),
(74,1050,l),
(74,0,l)
);
},
{
closed = 1;
nodes = (
(344,513,l),
(444,513,ls),
(585,513,o),
(647,467,o),
(647,344,cs),
(647,237,o),
(570,204,o),
(452,204,cs),
(344,204,l)
);
},
{
closed = 1;
nodes = (
(344,846,l),
(401,846,ls),
(461,846,o),
(504,827,o),
(504,750,cs),
(504,692,o),
(461,666,o),
(398,666,cs),
(344,666,l)
);
}
);
width = 956;
}
);
note = B;
unicode = 66;
},
{
glyphname = C;
kernLeft = C;
kernRight = C;
lastChange = "2023-09-13 04:36:28 +0000";
layers = (
{
anchors = (
{
name = bottom;
pos = (575,0);
},
{
name = top;
pos = (575,1050);
}
);
layerId = "F5467FAD-1970-4982-B3D3-939C01050498";
shapes = (
{
closed = 1;
nodes = (
(746,-7,o),
(881,54,o),
(972,161,c),
(909,191,l),
(828,96,o),
(702,39,o),
(575,39,cs),
(315,39,o),
(132,246,o),
(132,522,cs),
(132,800,o),
(317,1011,o),
(575,1011,cs),
(705,1011,o),
(834,951,o),
(915,851,c),
(977,882,l),
(885,993,o),
(747,1058,o),
(575,1058,cs),
(258,1058,o),
(51,819,o),
(51,522,cs),
(51,228,o),
(260,-7,o),
(575,-7,cs)
);
}
);
width = 1040;
},
{
anchors = (
{
name = bottom;
pos = (621,0);
},
{
name = top;
pos = (621,1050);
}
);
layerId = "6DD95C5A-998B-41AB-BDFB-84A73C209871";
shapes = (
{
closed = 1;
nodes = (
(831,-7,o),
(1004,92,o),
(1085,227,c),
(881,326,l),
(818,213,o),
(731,165,o),
(621,165,cs),
(449,165,o),
(321,309,o),
(321,522,cs),
(321,738,o),
(450,885,o),
(621,885,cs),
(734,885,o),
(822,834,o),
(885,716,c),
(1088,818,l),
(1005,956,o),
(833,1058,o),
(621,1058,cs),
(291,1058,o),
(75,807,o),
(75,522,cs),
(75,240,o),
(294,-7,o),
(621,-7,cs)
);
}
);
width = 1118;
},
{
anchors = (
{
name = bottom;
pos = (567,0);
},
{
name = top;
pos = (567,1050);
}
);
layerId = "1FDC7037-1F88-4969-8535-0F79C1EF19DB";
shapes = (
{
closed = 1;
nodes = (
(732,-7,o),
(861,48,o),
(954,150,c),
(914,170,l),
(830,78,o),
(698,20,o),
(567,20,cs),
(294,20,o),
(102,236,o),
(102,522,cs),
(102,810,o),
(296,1031,o),
(567,1031,cs),
(701,1031,o),
(836,969,o),
(920,872,c),
(959,893,l),
(866,999,o),
(734,1058,o),
(567,1058,cs),
(252,1058,o),
(47,821,o),
(47,522,cs),
(47,227,o),
(254,-7,o),
(567,-7,cs)
);
}
);
width = 1027;
},
{
anchors = (
{
name = bottom;
pos = (633,0);
},
{
name = top;
pos = (633,1050);
}
);
layerId = "3ED9E848-BE83-4CAC-8EFF-D71BD2B4F667";
shapes = (
{
closed = 1;
nodes = (
(852,-7,o),
(1034,101,o),
(1112,243,c),
(873,359,l),
(815,242,o),
(738,197,o),
(633,197,cs),
(482,197,o),
(368,324,o),
(368,522,cs),
(368,723,o),
(483,854,o),
(633,854,cs),
(741,854,o),
(819,806,o),
(878,683,c),
(1115,801,l),
(1035,947,o),
(854,1058,o),
(633,1058,cs),
(299,1058,o),
(81,804,o),
(81,522,cs),
(81,243,o),
(303,-7,o),
(633,-7,cs)
);
}
);
width = 1137;
}
);
note = C;
unicode = 67;
},
{
glyphname = D;
kernLeft = B;
kernRight = D;
lastChange = "2023-09-13 04:36:28 +0000";
layers = (
{
anchors = (
{
name = bottom;
pos = (470,0);
},
{
name = top;
pos = (470,1050);
}
);
layerId = "F5467FAD-1970-4982-B3D3-939C01050498";
shapes = (
{
closed = 1;
nodes = (
(353,0,ls),
(666,0,o),
(902,156,o),
(902,527,cs),
(902,903,o),
(635,1050,o),
(326,1050,cs),
(84,1050,l),
(84,0,l)
);
},
{
closed = 1;
nodes = (
(147,987,l),
(326,989,ls),
(602,990,o),
(830,878,o),
(830,527,cs),
(830,188,o),
(638,62,o),
(353,62,cs),
(147,62,l)
);
}
);
width = 954;
},
{
anchors = (
{
name = bottom;
pos = (515,0);
},
{
name = top;
pos = (515,1050);
}
);
layerId = "6DD95C5A-998B-41AB-BDFB-84A73C209871";
shapes = (
{
closed = 1;
nodes = (
(413,0,ls),
(744,0,o),
(983,164,o),
(983,527,cs),
(983,899,o),
(711,1050,o),
(390,1050,cs),
(75,1050,l),
(75,0,l)
);
},
{
closed = 1;
nodes = (
(306,878,l),
(390,878,ls),
(602,878,o),
(744,792,o),
(744,527,cs),
(744,264,o),
(635,173,o),
(413,173,cs),
(305,173,l)
);
}
);
width = 1035;
},
{
anchors = (
{
name = bottom;
pos = (462,0);
},
{
name = top;
pos = (462,1050);
}
);
layerId = "1FDC7037-1F88-4969-8535-0F79C1EF19DB";
shapes = (
{
closed = 1;
nodes = (
(344,0,ls),
(654,0,o),
(888,155,o),
(888,527,cs),
(888,903,o),
(623,1050,o),
(315,1050,cs),
(86,1050,l),
(86,0,l)
);
},
{
closed = 1;
nodes = (
(122,1005,l),
(315,1007,ls),
(602,1008,o),
(843,891,o),
(843,527,cs),
(843,176,o),
(638,44,o),
(344,44,cs),
(122,44,l)
);
}
);
width = 941;
},
{
anchors = (
{
name = bottom;
pos = (525,0);
},
{
name = top;
pos = (525,1050);
}
);
layerId = "3ED9E848-BE83-4CAC-8EFF-D71BD2B4F667";
shapes = (
{
closed = 1;
nodes = (
(428,0,ls),
(764,0,o),
(1002,165,o),
(1002,527,cs),
(1002,897,o),
(731,1050,o),
(407,1050,cs),
(74,1050,l),
(74,0,l)
);
},
{
closed = 1;
nodes = (
(345,851,l),
(407,851,ls),
(603,851,o),
(723,771,o),
(723,527,cs),
(723,284,o),
(635,200,o),
(428,200,cs),
(345,200,l)
);
}
);
width = 1055;
}
);
note = D;
unicode = 68;
},
{
glyphname = Eth;
kernLeft = Eth;
kernRight = D;
lastChange = "2023-09-13 04:36:28 +0000";
layers = (
{
layerId = "F5467FAD-1970-4982-B3D3-939C01050498";
shapes = (
{
closed = 1;
nodes = (
(518,0,ls),
(831,0,o),
(1067,156,o),
(1067,527,cs),
(1067,903,o),
(800,1050,o),
(491,1050,cs),
(249,1050,l),
(249,488,l),
(72,488,l),
(72,437,l),
(249,437,l),
(249,0,l)
);
},
{
closed = 1;
nodes = (
(312,437,l),
(656,437,l),
(656,488,l),
(312,488,l),
(312,987,l),
(491,989,ls),
(767,989,o),
(995,878,o),
(995,527,cs),
(995,188,o),
(803,62,o),
(518,62,cs),
(312,62,l)
);
}
);
width = 1166;
},
{
layerId = "6DD95C5A-998B-41AB-BDFB-84A73C209871";
shapes = (
{
closed = 1;
nodes = (
(617,0,ls),
(948,0,o),
(1187,164,o),
(1187,527,cs),
(1187,899,o),
(915,1050,o),
(594,1050,cs),
(279,1050,l),
(279,549,l),
(89,549,l),
(89,375,l),
(279,375,l),
(279,0,l)
);
},
{
closed = 1;
nodes = (
(510,375,l),
(777,375,l),
(777,549,l),
(510,549,l),
(510,878,l),
(594,878,ls),
(806,878,o),
(948,792,o),
(948,527,cs),
(948,264,o),
(839,173,o),
(617,173,cs),
(509,173,l)
);
}
);
width = 1209;
},
{
layerId = "1FDC7037-1F88-4969-8535-0F79C1EF19DB";
shapes = (
{
closed = 1;
nodes = (
(501,0,ls),
(813,0,o),
(1047,155,o),
(1047,527,cs),
(1047,903,o),
(782,1050,o),
(474,1050,cs),
(245,1050,l),
(245,477,l),
(69,477,l),
(69,447,l),
(245,447,l),
(245,0,l)
);
},
{
closed = 1;
nodes = (
(281,447,l),
(636,447,l),
(636,477,l),
(281,477,l),
(281,1005,l),
(474,1007,ls),
(761,1007,o),
(1002,891,o),
(1002,527,cs),
(1002,176,o),
(797,44,o),
(501,44,cs),
(281,44,l)
);
}
);
width = 1159;
},
{
layerId = "3ED9E848-BE83-4CAC-8EFF-D71BD2B4F667";
shapes = (
{
closed = 1;
nodes = (
(641,0,ls),
(977,0,o),
(1217,165,o),
(1217,527,cs),
(1217,897,o),
(944,1050,o),
(620,1050,cs),
(287,1050,l),
(287,564,l),
(93,564,l),
(93,360,l),
(287,360,l),
(287,0,l)
);
},
{
closed = 1;
nodes = (
(558,360,l),
(807,360,l),
(807,564,l),
(558,564,l),
(558,851,l),
(620,851,ls),
(816,851,o),
(936,771,o),
(936,527,cs),
(936,284,o),
(848,200,o),
(641,200,cs),
(558,200,l)
);
}
);
width = 1220;
}
);
note = Eth;
unicode = 208;
},
{
glyphname = E;
kernLeft = B;
kernRight = E;
lastChange = "2023-09-13 04:36:28 +0000";
layers = (
{
anchors = (
{
name = bottom;
pos = (500,0);
},
{
name = ogonek;
pos = (858,0);
},
{
name = top;
pos = (500,1050);
}
);
layerId = "F5467FAD-1970-4982-B3D3-939C01050498";
shapes = (
{
closed = 1;
nodes = (
(879,0,l),
(879,45,l),
(152,45,l),
(152,507,l),
(846,507,l),
(846,555,l),
(152,555,l),
(152,1004,l),
(863,1004,l),
(863,1050,l),
(89,1050,l),
(89,0,l)
);
}
);
width = 950;
},
{
anchors = (
{
name = bottom;
pos = (530,0);
},
{
name = ogonek;
pos = (768,0);
},
{
name = top;
pos = (530,1050);
}
);
layerId = "6DD95C5A-998B-41AB-BDFB-84A73C209871";
shapes = (
{
closed = 1;
nodes = (
(944,0,l),
(944,186,l),
(306,186,l),
(306,444,l),
(914,444,l),
(914,630,l),
(306,630,l),
(306,864,l),
(929,864,l),
(929,1050,l),
(75,1050,l),
(75,0,l)
);
}
);
width = 1004;
},
{
anchors = (
{
name = bottom;
pos = (495,0);
},
{
name = ogonek;
pos = (873,0);
},
{
name = top;
pos = (495,1050);
}
);
layerId = "1FDC7037-1F88-4969-8535-0F79C1EF19DB";
shapes = (
{
closed = 1;
nodes = (
(869,0,l),
(869,23,l),
(128,23,l),
(128,518,l),
(836,518,l),
(836,543,l),
(128,543,l),
(128,1026,l),
(852,1026,l),
(852,1050,l),
(90,1050,l),
(90,0,l)
);
}
);
width = 941;
},
{
anchors = (
{
name = bottom;
pos = (537,0);
},
{
name = ogonek;
pos = (746,0);
},
{
name = top;
pos = (537,1050);
}
);
layerId = "3ED9E848-BE83-4CAC-8EFF-D71BD2B4F667";
shapes = (
{
closed = 1;
nodes = (
(960,0,l),
(960,221,l),
(344,221,l),
(344,429,l),
(930,429,l),
(930,648,l),
(344,648,l),
(344,830,l),
(945,830,l),
(945,1050,l),
(72,1050,l),
(72,0,l)
);
}
);
width = 1017;
}
);
note = E;
unicode = 69;
},
{
glyphname = Schwa;
kernLeft = C;
kernRight = O;
lastChange = "2023-09-13 04:38:06 +0000";
layers = (
{
layerId = "F5467FAD-1970-4982-B3D3-939C01050498";
shapes = (
{
closed = 1;
nodes = (
(999,521,l),
(50,521,l),
(47,492,o),
(45,464,o),
(45,437,cs),
(45,168,o),
(224,-7,o),
(516,-7,cs),
(804,-7,o),
(1047,180,o),
(1047,512,cs),
(1047,882,o),
(792,1056,o),
(503,1056,cs),
(294,1056,o),
(120,989,o),
(48,870,c),
(96,840,l),
(174,945,o),
(270,1010,o),
(503,1010,cs),
(758,1010,o),
(990,857,o),
(986,501,cs),
(983,221,o),
(806,39,o),
(516,39,cs),
(257,39,o),
(92,210,o),
(116,462,c),
(999,462,l)
);
}
);
width = 1092;
},
{
layerId = "6DD95C5A-998B-41AB-BDFB-84A73C209871";
shapes = (
{
closed = 1;
nodes = (
(947,605,l),
(105,596,l),
(93,540,o),
(87,489,o),
(87,440,cs),
(87,165,o),
(285,-7,o),
(603,-7,cs),
(918,-7,o),
(1139,192,o),
(1139,513,cs),
(1139,873,o),
(911,1058,o),
(584,1058,cs),
(354,1058,o),
(147,962,o),
(75,773,c),
(252,671,l),
(299,794,o),
(392,884,o),
(554,884,cs),
(800,884,o),
(908,755,o),
(908,515,cs),
(908,260,o),
(744,165,o),
(596,165,cs),
(429,165,o),
(329,227,o),
(347,392,c),
(933,392,l)
);
}
);
width = 1214;
},
{
layerId = "1FDC7037-1F88-4969-8535-0F79C1EF19DB";
shapes = (
{
closed = 1;
nodes = (
(1010,507,l),
(42,509,l),
(41,485,o),
(41,459,o),
(41,437,cs),
(41,168,o),
(215,-7,o),
(504,-7,cs),
(788,-7,o),
(1034,179,o),
(1034,512,cs),
(1034,884,o),
(774,1056,o),
(491,1056,cs),
(287,1056,o),
(117,993,o),
(45,885,c),
(72,867,l),
(156,969,o),
(252,1029,o),
(497,1029,cs),
(753,1029,o),
(1005,873,o),
(999,500,cs),
(996,215,o),
(818,20,o),
(506,20,cs),
(231,20,o),
(56,207,o),
(80,474,c),
(1011,474,l)
);
}
);
width = 1074;
},
{
layerId = "3ED9E848-BE83-4CAC-8EFF-D71BD2B4F667";
shapes = (
{
closed = 1;
nodes = (
(935,626,l),
(120,614,l),
(107,552,o),
(99,495,o),
(99,440,cs),
(99,165,o),
(302,-7,o),
(626,-7,cs),
(948,-7,o),
(1163,195,o),
(1163,513,cs),
(1163,872,o),
(941,1058,o),
(605,1058,cs),
(371,1058,o),
(155,956,o),
(83,749,c),
(293,629,l),
(330,756,o),
(423,852,o),
(567,852,cs),
(812,852,o),
(888,729,o),
(890,518,cs),
(891,269,o),
(731,197,o),
(617,197,cs),
(473,197,o),
(389,231,o),
(405,374,c),
(918,374,l)
);
}
);
width = 1246;
}
);
metricLeft = O;
metricRight = O;
unicode = 399;
},
{
glyphname = F;
kernLeft = B;
kernRight = F;
lastChange = "2023-09-13 04:36:28 +0000";
layers = (
{
layerId = "F5467FAD-1970-4982-B3D3-939C01050498";
shapes = (
{
closed = 1;
nodes = (
(152,0,l),
(152,507,l),
(846,507,l),
(846,555,l),
(152,555,l),
(152,1004,l),
(863,1004,l),
(863,1050,l),
(89,1050,l),
(89,0,l)
);
}
);
width = 915;
},
{
layerId = "6DD95C5A-998B-41AB-BDFB-84A73C209871";
shapes = (
{
closed = 1;
nodes = (
(321,0,l),
(321,444,l),
(929,444,l),
(929,630,l),
(321,630,l),
(321,864,l),
(944,864,l),
(944,1050,l),
(90,1050,l),
(90,0,l)
);
}
);
width = 1004;
},
{
layerId = "1FDC7037-1F88-4969-8535-0F79C1EF19DB";
shapes = (
{
closed = 1;
nodes = (
(125,0,l),
(125,518,l),
(833,518,l),
(833,543,l),
(125,543,l),
(125,1026,l),
(849,1026,l),
(849,1050,l),
(89,1050,l),
(89,0,l)
);
}
);
width = 901;
},
{
layerId = "3ED9E848-BE83-4CAC-8EFF-D71BD2B4F667";
shapes = (
{
closed = 1;
nodes = (
(363,0,l),
(363,429,l),
(950,429,l),
(950,648,l),
(363,648,l),
(363,830,l),
(963,830,l),
(963,1050,l),
(90,1050,l),
(90,0,l)
);
}
);
width = 1025;
}
);
note = F;
unicode = 70;
},
{
glyphname = G;
kernLeft = C;
kernRight = G;
lastChange = "2023-09-13 04:36:28 +0000";
layers = (
{
anchors = (
{
name = bottom;
pos = (576,0);
},
{
name = top;
pos = (576,1050);
}
);
layerId = "F5467FAD-1970-4982-B3D3-939C01050498";
shapes = (
{
closed = 1;
nodes = (
(824,-8,o),
(962,146,o),
(992,372,c),
(992,0,l),
(1038,0,l),
(1038,555,l),
(611,555,l),
(611,509,l),
(975,509,l),
(975,444,ls),
(975,285,o),
(867,39,o),
(575,39,cs),
(318,39,o),
(129,249,o),
(129,522,cs),
(129,801,o),
(320,1011,o),
(576,1011,cs),
(708,1011,o),
(831,951,o),
(912,851,c),
(974,882,l),
(882,993,o),
(749,1058,o),
(576,1058,cs),
(260,1058,o),
(48,819,o),
(48,522,cs),
(48,223,o),
(263,-8,o),
(575,-8,cs)
);
}
);
width = 1106;
},
{
anchors = (
{
name = bottom;
pos = (623,0);
},
{
name = top;
pos = (624,1050);
}
);
layerId = "6DD95C5A-998B-41AB-BDFB-84A73C209871";
shapes = (
{
closed = 1;
nodes = (
(798,-7,o),
(903,114,o),
(903,245,c),
(903,0,l),
(1119,0,l),
(1119,617,l),
(570,617,l),
(570,444,l),
(890,444,l),
(890,440,ls),
(890,297,o),
(819,165,o),
(624,165,cs),
(431,165,o),
(320,308,o),
(320,522,cs),
(320,738,o),
(453,885,o),
(624,885,cs),
(737,885,o),
(821,834,o),
(884,716,c),
(1086,818,l),
(1004,956,o),
(837,1058,o),
(624,1058,cs),
(296,1058,o),
(75,807,o),
(75,522,cs),
(75,240,o),
(266,-7,o),
(617,-7,cs)
);
}
);
width = 1209;
},
{
anchors = (
{
name = bottom;
pos = (569,0);
},
{
name = top;
pos = (569,1050);
}
);
layerId = "1FDC7037-1F88-4969-8535-0F79C1EF19DB";
shapes = (
{
closed = 1;
nodes = (
(828,-7,o),
(971,152,o),
(1005,392,c),
(1005,0,l),
(1025,0,l),
(1025,545,l),
(617,545,l),
(617,519,l),
(989,519,l),
(989,444,ls),
(989,284,o),
(875,20,o),
(567,20,cs),
(300,20,o),
(99,240,o),
(99,522,cs),
(99,812,o),
(299,1031,o),
(569,1031,cs),
(704,1031,o),
(833,969,o),
(917,872,c),
(956,893,l),
(863,999,o),
(735,1058,o),
(569,1058,cs),
(254,1058,o),
(44,821,o),
(44,522,cs),
(44,221,o),
(263,-7,o),
(569,-7,cs)
);
}
);
width = 1089;
},
{
anchors = (
{
name = bottom;
pos = (635,0);
},
{
name = top;
pos = (636,1050);
}
);
layerId = "3ED9E848-BE83-4CAC-8EFF-D71BD2B4F667";
shapes = (
{
closed = 1;
nodes = (
(792,-7,o),
(888,107,o),
(882,213,c),
(882,0,l),
(1139,0,l),
(1139,632,l),
(560,632,l),
(560,428,l),
(869,428,l),
(869,438,ls),
(869,300,o),
(807,197,o),
(636,197,cs),
(458,197,o),
(366,323,o),
(366,522,cs),
(366,723,o),
(486,854,o),
(636,854,cs),
(744,854,o),
(818,806,o),
(876,683,c),
(1113,801,l),
(1034,947,o),
(858,1058,o),
(636,1058,cs),
(305,1058,o),
(81,804,o),
(81,522,cs),
(81,245,o),
(266,-7,o),
(627,-7,cs)
);
}
);
width = 1234;
}
);
note = G;
unicode = 71;
},
{
glyphname = H;
kernLeft = B;
kernRight = H;
lastChange = "2023-09-13 04:36:28 +0000";
layers = (
{
anchors = (
{
name = bottom;
pos = (527,0);
},
{
name = top;
pos = (527,1050);
}
);
layerId = "F5467FAD-1970-4982-B3D3-939C01050498";
shapes = (
{
closed = 1;
nodes = (
(147,0,l),
(147,522,l),
(905,522,l),
(905,0,l),
(968,0,l),
(968,1050,l),
(905,1050,l),
(905,585,l),
(147,585,l),
(147,1050,l),
(84,1050,l),
(84,0,l)
);
}
);
width = 1052;
},
{
anchors = (
{
name = bottom;
pos = (551,0);
},
{
name = top;
pos = (551,1050);
}
);
layerId = "6DD95C5A-998B-41AB-BDFB-84A73C209871";
shapes = (
{
closed = 1;
nodes = (
(306,0,l),
(306,456,l),
(794,456,l),
(794,0,l),
(1025,0,l),
(1025,1050,l),
(794,1050,l),
(794,644,l),
(306,644,l),
(306,1050,l),
(75,1050,l),
(75,0,l)
);
}
);
width = 1100;
},
{
anchors = (
{
name = bottom;
pos = (522,0);
},
{
name = top;
pos = (522,1050);
}
);
layerId = "1FDC7037-1F88-4969-8535-0F79C1EF19DB";
shapes = (
{
closed = 1;
nodes = (
(122,0,l),
(122,533,l),
(923,533,l),
(923,0,l),
(959,0,l),
(959,1050,l),
(923,1050,l),
(923,576,l),
(122,576,l),
(122,1050,l),
(86,1050,l),
(86,0,l)
);
}
);
width = 1044;
},
{
anchors = (
{
name = bottom;
pos = (557,0);
},
{
name = top;
pos = (557,1050);
}
);
layerId = "3ED9E848-BE83-4CAC-8EFF-D71BD2B4F667";
shapes = (
{
closed = 1;
nodes = (
(345,0,l),
(345,440,l),
(767,440,l),
(767,0,l),
(1038,0,l),
(1038,1050,l),
(767,1050,l),
(767,659,l),
(345,659,l),
(345,1050,l),
(74,1050,l),
(74,0,l)
);
}
);
width = 1111;
}
);
note = H;
unicode = 72;
},
{
glyphname = Hbar;
lastChange = "2023-09-13 04:36:28 +0000";
layers = (
{
layerId = "F5467FAD-1970-4982-B3D3-939C01050498";
shapes = (
{
closed = 1;
nodes = (
(1139,821,l),
(30,821,l),
(30,758,l),
(1139,758,l)
);
},
{
pos = (59,0);
ref = H;
}
);
width = 1169;
},
{
layerId = "6DD95C5A-998B-41AB-BDFB-84A73C209871";
shapes = (
{
closed = 1;
nodes = (
(1205,914,l),
(30,914,l),
(30,726,l),
(1205,726,l)
);
},
{
pos = (68,0);
ref = H;
}
);
width = 1235;
},
{
layerId = "1FDC7037-1F88-4969-8535-0F79C1EF19DB";
shapes = (
{
closed = 1;
nodes = (
(1128,806,l),
(30,806,l),
(30,762,l),
(1128,762,l)
);
},
{
alignment = -1;
pos = (57,0);
ref = H;
}
);
width = 1158;
},
{
layerId = "3ED9E848-BE83-4CAC-8EFF-D71BD2B4F667";
shapes = (
{
closed = 1;
nodes = (
(1221,936,l),
(30,936,l),
(30,719,l),
(1221,719,l)
);
},
{
alignment = -1;
pos = (69,0);
ref = H;
}
);
width = 1251;
}
);
unicode = 294;
},
{
glyphname = I;
kernLeft = I;
kernRight = I;
lastChange = "2023-09-13 04:36:28 +0000";
layers = (
{
anchors = (
{
name = bottom;
pos = (155,0);
},
{
name = ogonek;
pos = (125,0);
},
{
name = top;
pos = (155,1050);
}
);
layerId = "F5467FAD-1970-4982-B3D3-939C01050498";
shapes = (
{
closed = 1;
nodes = (
(188,0,l),
(188,1050,l),
(125,1050,l),
(125,0,l)
);
}
);
width = 312;
},
{
anchors = (
{
name = bottom;
pos = (221,0);
},
{
name = ogonek;
pos = (105,0);
},
{
name = top;
pos = (221,1050);
}
);
layerId = "6DD95C5A-998B-41AB-BDFB-84A73C209871";
shapes = (
{
closed = 1;
nodes = (
(336,0,l),
(336,1050,l),
(105,1050,l),
(105,0,l)
);
}
);
width = 441;
},
{
anchors = (
{
name = bottom;
pos = (144,0);
},
{
name = ogonek;
pos = (128,0);
},
{
name = top;
pos = (144,1050);
}
);
layerId = "1FDC7037-1F88-4969-8535-0F79C1EF19DB";
shapes = (
{
closed = 1;
nodes = (
(164,0,l),
(164,1050,l),
(128,1050,l),
(128,0,l)
);
}
);
width = 291;
},
{
anchors = (
{
name = bottom;
pos = (237,0);
},
{
name = ogonek;
pos = (101,0);
},
{
name = top;
pos = (237,1050);
}
);
layerId = "3ED9E848-BE83-4CAC-8EFF-D71BD2B4F667";
shapes = (
{
closed = 1;
nodes = (
(372,0,l),
(372,1050,l),
(101,1050,l),
(101,0,l)
);
}
);
width = 473;
}
);
note = I;
unicode = 73;
},
{
glyphname = Iacute;
kernLeft = I;
kernRight = I;
lastChange = "2023-09-13 04:36:28 +0000";
layers = (
{
layerId = "F5467FAD-1970-4982-B3D3-939C01050498";
shapes = (
{
closed = 1;
nodes = (
(188,0,l),
(188,1050,l),
(125,1050,l),
(125,0,l)
);
},
{
closed = 1;
nodes = (
(281,1341,l),
(246,1400,l),
(66,1230,l),
(92,1223,l)
);
}
);
width = 312;
},
{
layerId = "6DD95C5A-998B-41AB-BDFB-84A73C209871";
shapes = (
{
closed = 1;
nodes = (
(336,0,l),
(336,1050,l),
(105,1050,l),
(105,0,l)
);
},
{
closed = 1;
nodes = (
(435,1272,l),
(320,1464,l),
(0,1166,l),
(177,1112,l)
);
}
);
width = 441;
},
{
layerId = "1FDC7037-1F88-4969-8535-0F79C1EF19DB";
shapes = (
{
closed = 1;
nodes = (
(164,0,l),
(164,1050,l),
(128,1050,l),
(128,0,l)
);
},
{
closed = 1;
nodes = (
(257,1352,l),
(234,1389,l),
(77,1241,l),
(78,1241,l)
);
}
);
width = 291;
},
{
layerId = "3ED9E848-BE83-4CAC-8EFF-D71BD2B4F667";
shapes = (
{
closed = 1;
nodes = (
(372,0,l),
(372,1050,l),
(101,1050,l),
(101,0,l)
);
},
{
closed = 1;
nodes = (
(473,1256,l),
(338,1481,l),
(-16,1149,l),
(198,1085,l)
);
}
);
width = 473;
}
);
note = Iacute;
unicode = 205;
},
{
glyphname = J;
kernLeft = J;
kernRight = J;
lastChange = "2023-09-13 04:36:28 +0000";
layers = (
{
anchors = (
{
name = top;
pos = (698,1050);
}
);
layerId = "F5467FAD-1970-4982-B3D3-939C01050498";
shapes = (
{
closed = 1;
nodes = (
(564,-18,o),
(732,89,o),
(732,293,c),
(731,1050,l),
(666,1050,l),
(666,293,ls),
(666,113,o),
(522,23,o),
(375,23,cs),
(236,23,o),
(165,84,o),
(128,149,c),
(75,114,l),
(126,36,o),
(219,-18,o),
(375,-18,cs)
);
}
);
width = 827;
},
{
anchors = (
{
name = top;
pos = (675,1050);
}
);
layerId = "6DD95C5A-998B-41AB-BDFB-84A73C209871";
shapes = (
{
closed = 1;
nodes = (
(632,-18,o),
(806,123,o),
(806,386,cs),
(804,1050,l),
(573,1050,l),
(573,359,ls),
(573,212,o),
(494,150,o),
(402,150,cs),
(278,150,o),
(260,219,o),
(227,312,c),
(36,180,l),
(78,80,o),
(194,-18,o),
(402,-18,cs)
);
}
);
width = 926;
},
{
anchors = (
{
name = top;
pos = (701,1050);
}
);
layerId = "1FDC7037-1F88-4969-8535-0F79C1EF19DB";
shapes = (
{
closed = 1;
nodes = (
(554,-18,o),
(720,83,o),
(720,278,c),
(719,1050,l),
(681,1050,l),
(681,282,ls),
(681,96,o),
(527,2,o),
(371,2,cs),
(230,2,o),
(150,63,o),
(111,123,c),
(81,104,l),
(134,29,o),
(224,-18,o),
(371,-18,cs)
);
}
);
width = 811;
},
{
anchors = (
{
name = top;
pos = (669,1050);
}
);
layerId = "3ED9E848-BE83-4CAC-8EFF-D71BD2B4F667";
shapes = (
{
closed = 1;
nodes = (
(648,-18,o),
(824,132,o),
(824,408,c),
(822,1050,l),
(551,1050,l),
(551,375,ls),
(551,236,o),
(486,182,o),
(408,182,cs),
(288,182,o),
(282,252,o),
(251,353,c),
(27,197,l),
(66,90,o),
(188,-18,o),
(408,-18,cs)
);
}
);
width = 950;
}
);
note = J;
unicode = 74;
},
{
glyphname = K;
kernLeft = B;
kernRight = K;
lastChange = "2023-09-13 04:36:28 +0000";
layers = (
{
anchors = (
{
name = bottom;
pos = (419,0);
},
{
name = top;
pos = (419,1050);
}
);
layerId = "F5467FAD-1970-4982-B3D3-939C01050498";
shapes = (
{
closed = 1;
nodes = (
(149,0,l),
(149,389,l),
(353,613,l),
(753,0,l),
(828,0,l),
(398,662,l),
(752,1050,l),
(683,1050,l),
(149,466,l),
(149,1050,l),
(84,1050,l),
(84,0,l)
);
}
);
width = 881;
},
{
anchors = (
{
name = bottom;
pos = (524,0);
},
{
name = top;
pos = (524,1050);
}
);
layerId = "6DD95C5A-998B-41AB-BDFB-84A73C209871";
shapes = (
{
closed = 1;
nodes = (
(306,0,l),
(306,357,l),
(411,471,l),
(722,0,l),
(981,0,l),
(561,638,l),
(939,1050,l),
(674,1050,l),
(306,650,l),
(306,1050,l),
(75,1050,l),
(75,0,l)
);
}
);
width = 1019;
},
{
anchors = (
{
name = bottom;
pos = (402,0);
},
{
name = top;
pos = (402,1050);
}
);
layerId = "1FDC7037-1F88-4969-8535-0F79C1EF19DB";
shapes = (
{
closed = 1;
nodes = (
(123,0,l),
(123,395,l),
(344,636,l),
(758,0,l),
(804,0,l),
(372,666,l),
(722,1050,l),
(684,1050,l),
(123,437,l),
(123,1050,l),
(86,1050,l),
(86,0,l)
);
}
);
width = 858;
},
{
anchors = (
{
name = bottom;
pos = (549,0);
},
{
name = top;
pos = (549,1050);
}
);
layerId = "3ED9E848-BE83-4CAC-8EFF-D71BD2B4F667";
shapes = (
{
closed = 1;
nodes = (
(345,0,l),
(345,350,l),
(426,437,l),
(714,0,l),
(1019,0,l),
(602,632,l),
(986,1050,l),
(672,1050,l),
(345,695,l),
(345,1050,l),
(74,1050,l),
(74,0,l)
);
}
);
width = 1052;
}
);
note = K;
unicode = 75;
},
{
glyphname = L;
kernLeft = B;
kernRight = L;
lastChange = "2023-09-13 04:36:28 +0000";
layers = (
{
anchors = (
{
name = bottom;
pos = (447,0);
},
{
name = top;
pos = (447,1050);
}
);
layerId = "F5467FAD-1970-4982-B3D3-939C01050498";
shapes = (
{
closed = 1;
nodes = (
(803,0,l),
(803,45,l),
(147,45,l),
(147,1050,l),
(84,1050,l),
(84,0,l)
);
}
);
width = 866;
},
{
anchors = (
{
name = bottom;
pos = (504,0);
},
{
name = top;
pos = (504,1050);
}
);
layerId = "6DD95C5A-998B-41AB-BDFB-84A73C209871";
shapes = (
{
closed = 1;
nodes = (
(878,0,l),
(878,186,l),
(305,186,l),
(305,1050,l),
(75,1050,l),
(75,0,l)
);
}
);
width = 923;
},
{
anchors = (
{
name = bottom;
pos = (438,0);
},
{
name = top;
pos = (438,1050);
}
);
layerId = "1FDC7037-1F88-4969-8535-0F79C1EF19DB";
shapes = (
{
closed = 1;
nodes = (
(791,0,l),
(791,23,l),
(122,23,l),
(122,1050,l),
(86,1050,l),
(86,0,l)
);
}
);
width = 856;
},
{
anchors = (
{
name = bottom;
pos = (518,0);
},
{
name = top;
pos = (518,1050);
}
);
layerId = "3ED9E848-BE83-4CAC-8EFF-D71BD2B4F667";
shapes = (
{
closed = 1;
nodes = (
(896,0,l),
(896,221,l),
(344,221,l),
(344,1050,l),
(74,1050,l),
(74,0,l)
);
}
);
width = 937;
}
);
note = L;
unicode = 76;
},
{
glyphname = Lslash;
lastChange = "2023-09-13 04:36:28 +0000";
layers = (
{
layerId = "F5467FAD-1970-4982-B3D3-939C01050498";
shapes = (
{
closed = 1;
nodes = (
(975,0,l),
(975,45,l),
(320,45,l),
(320,587,l),
(516,644,l),
(516,698,l),
(320,641,l),
(320,1050,l),
(257,1050,l),
(257,623,l),
(81,573,l),
(81,519,l),
(257,569,l),
(257,0,l)
);
}
);
width = 1046;
},
{
layerId = "6DD95C5A-998B-41AB-BDFB-84A73C209871";
shapes = (
{
closed = 1;
nodes = (
(1050,0,l),
(1050,186,l),
(477,186,l),
(477,546,l),
(609,584,l),
(606,771,l),
(477,734,l),
(477,1050,l),
(248,1050,l),
(248,668,l),
(51,612,l),
(53,425,l),
(248,480,l),
(248,0,l)
);
}
);
width = 1046;
},
{
layerId = "1FDC7037-1F88-4969-8535-0F79C1EF19DB";
shapes = (
{
closed = 1;
nodes = (
(963,0,l),
(963,23,l),
(294,23,l),
(294,594,l),
(501,653,l),
(501,686,l),
(294,627,l),
(294,1050,l),
(258,1050,l),
(258,617,l),
(86,567,l),
(86,534,l),
(258,584,l),
(258,0,l)
);
}
);
width = 1046;
},
{
layerId = "3ED9E848-BE83-4CAC-8EFF-D71BD2B4F667";
shapes = (
{
closed = 1;
nodes = (
(1068,0,l),
(1068,221,l),
(516,221,l),
(516,536,l),
(632,569,l),
(629,789,l),
(516,758,l),
(516,1050,l),
(246,1050,l),
(246,680,l),
(44,621,l),
(45,402,l),
(246,459,l),
(246,0,l)
);
}
);
width = 1046;
}
);
note = Lslash;
unicode = 321;
},
{
glyphname = M;
kernLeft = B;
kernRight = H;
lastChange = "2023-09-13 04:36:28 +0000";
layers = (
{
anchors = (
{
name = bottom;
pos = (596,0);
},
{
name = top;
pos = (596,1050);
}
);
layerId = "F5467FAD-1970-4982-B3D3-939C01050498";
shapes = (
{
closed = 1;
nodes = (
(147,0,l),
(147,925,l),
(557,0,l),
(635,0,l),
(1043,925,l),
(1043,0,l),
(1106,0,l),
(1106,1050,l),
(1020,1050,l),
(595,63,l),
(168,1050,l),
(84,1050,l),
(84,0,l)
);
}
);
width = 1190;
},
{
anchors = (
{
name = bottom;
pos = (701,0);
},
{
name = top;
pos = (701,1050);
}
);
layerId = "6DD95C5A-998B-41AB-BDFB-84A73C209871";
shapes = (
{
closed = 1;
nodes = (
(306,0,l),
(306,611,l),
(578,0,l),
(824,0,l),
(1095,614,l),
(1095,0,l),
(1326,0,l),
(1326,1050,l),
(1037,1052,l),
(701,272,l),
(365,1052,l),
(75,1050,l),
(75,0,l)
);
}
);
width = 1401;
},
{
anchors = (
{
name = bottom;
pos = (579,0);
},
{
name = top;
pos = (579,1050);
}
);
layerId = "1FDC7037-1F88-4969-8535-0F79C1EF19DB";
shapes = (
{
closed = 1;
nodes = (
(122,0,l),
(122,975,l),
(554,0,l),
(605,0,l),
(1034,975,l),
(1034,0,l),
(1070,0,l),
(1070,1050,l),
(1017,1050,l),
(579,29,l),
(137,1050,l),
(86,1050,l),
(86,0,l)
);
}
);
width = 1156;
},
{
anchors = (
{
name = bottom;
pos = (726,0);
},
{
name = top;
pos = (726,1050);
}
);
layerId = "3ED9E848-BE83-4CAC-8EFF-D71BD2B4F667";
shapes = (
{
closed = 1;
nodes = (
(345,0,l),
(345,533,l),
(582,0,l),
(870,0,l),
(1109,537,l),
(1109,0,l),
(1380,0,l),
(1380,1050,l),
(1041,1052,l),
(726,323,l),
(413,1052,l),
(74,1050,l),
(74,0,l)
);
}
);
width = 1453;
}
);
note = M;
unicode = 77;
},
{
glyphname = N;
kernLeft = B;
kernRight = H;
lastChange = "2023-09-13 04:36:28 +0000";
layers = (
{
anchors = (
{
name = bottom;
pos = (450,0);
},
{
name = top;
pos = (450,1050);
}
);
layerId = "F5467FAD-1970-4982-B3D3-939C01050498";
shapes = (
{
closed = 1;
nodes = (
(149,0,l),
(149,937,l),
(747,0,l),
(815,0,l),
(815,1050,l),
(750,1050,l),
(750,105,l),
(150,1050,l),
(84,1050,l),
(84,0,l)
);
}
);
width = 899;
},
{
anchors = (
{
name = bottom;
pos = (510,0);
},
{
name = top;
pos = (510,1050);
}
);
layerId = "6DD95C5A-998B-41AB-BDFB-84A73C209871";
shapes = (
{
closed = 1;
nodes = (
(306,0,l),
(306,654,l),
(716,0,l),
(944,0,l),
(944,1050,l),
(713,1050,l),
(713,408,l),
(306,1050,l),
(75,1050,l),
(75,0,l)
);
}
);
width = 1019;
},
{
anchors = (
{
name = bottom;
pos = (441,0);
},
{
name = top;
pos = (441,1050);
}
);
layerId = "1FDC7037-1F88-4969-8535-0F79C1EF19DB";
shapes = (
{
closed = 1;
nodes = (
(123,0,l),
(123,983,l),
(752,0,l),
(794,0,l),
(794,1050,l),
(756,1050,l),
(756,56,l),
(125,1050,l),
(86,1050,l),
(86,0,l)
);
}
);
width = 879;
},
{
anchors = (
{
name = bottom;
pos = (525,0);
},
{
name = top;
pos = (525,1050);
}
);
layerId = "3ED9E848-BE83-4CAC-8EFF-D71BD2B4F667";
shapes = (
{
closed = 1;
nodes = (
(345,0,l),
(345,585,l),
(708,0,l),
(975,0,l),
(975,1050,l),
(704,1050,l),
(704,483,l),
(345,1050,l),
(74,1050,l),
(74,0,l)
);
}
);
width = 1048;
}
);
note = N;
unicode = 78;
},
{
glyphname = Nhookleft;
lastChange = "2023-09-13 04:36:28 +0000";
layers = (
{
layerId = "F5467FAD-1970-4982-B3D3-939C01050498";
shapes = (
{
closed = 1;
nodes = (
(84,0,l),
(84,-187,ls),
(84,-238,o),
(62,-249,o),
(38,-249,cs),
(5,-249,o),
(-37,-235,o),
(-76,-202,c),
(-82,-253,l),
(-60,-277,o),
(-12,-304,o),
(38,-304,cs),
(126,-304,o),
(149,-238,o),
(149,-187,cs),
(149,0,l)
);
},
{
ref = N;
}
);
width = 900;
},
{
layerId = "6DD95C5A-998B-41AB-BDFB-84A73C209871";
shapes = (
{
closed = 1;
nodes = (
(75,0,l),
(75,-97,ls),
(75,-148,o),
(54,-159,o),
(30,-159,cs),
(-3,-159,o),
(-45,-145,o),
(-84,-112,c),
(-84,-253,l),
(-46,-277,o),
(6,-304,o),
(87,-304,cs),
(197,-304,o),
(306,-238,o),
(306,-97,cs),
(306,0,l)
);
},
{
ref = N;
}
);
width = 1019;
},
{
layerId = "1FDC7037-1F88-4969-8535-0F79C1EF19DB";
shapes = (
{
closed = 1;
nodes = (
(86,0,l),
(86,-202,ls),
(86,-253,o),
(63,-264,o),
(39,-264,cs),
(6,-264,o),
(-36,-250,o),
(-75,-217,c),
(-82,-253,l),
(-61,-277,o),
(-15,-304,o),
(30,-304,cs),
(114,-304,o),
(123,-238,o),
(123,-202,cs),
(123,0,l)
);
},
{
alignment = -1;
ref = N;
}
);
width = 881;
},
{
layerId = "3ED9E848-BE83-4CAC-8EFF-D71BD2B4F667";
shapes = (
{
closed = 1;
nodes = (
(74,0,l),
(74,-75,ls),
(74,-126,o),
(53,-136,o),
(29,-136,cs),
(-4,-136,o),
(-46,-123,o),
(-85,-90,c),
(-84,-253,l),
(-43,-277,o),
(11,-304,o),
(99,-304,cs),
(215,-304,o),
(345,-238,o),
(345,-75,cs),
(345,0,l)
);
},
{
alignment = -1;
ref = N;
}
);
width = 1048;
}
);
unicode = 413;
},
{
glyphname = Eng;
lastChange = "2023-09-13 04:36:28 +0000";
layers = (
{
layerId = "F5467FAD-1970-4982-B3D3-939C01050498";
shapes = (
{
closed = 1;
nodes = (
(747,0,l),
(747,-187,ls),
(747,-228,o),
(731,-249,o),
(678,-249,cs),
(645,-249,o),
(614,-235,o),
(575,-202,c),
(569,-253,l),
(597,-277,o),
(639,-304,o),
(689,-304,cs),
(777,-304,o),
(815,-253,o),
(815,-187,cs),
(815,0,l)
);
},
{
ref = N;
}
);
width = 899;
},
{
layerId = "6DD95C5A-998B-41AB-BDFB-84A73C209871";
shapes = (
{
closed = 1;
nodes = (
(716,0,l),
(716,-97,ls),
(716,-148,o),
(692,-159,o),
(668,-159,cs),
(635,-159,o),
(593,-145,o),
(554,-112,c),
(554,-253,l),
(591,-277,o),
(644,-304,o),
(725,-304,cs),
(834,-304,o),
(944,-238,o),
(944,-97,cs),
(944,0,l)
);
},
{
ref = N;
}
);
width = 1019;
},
{
layerId = "1FDC7037-1F88-4969-8535-0F79C1EF19DB";
shapes = (
{
closed = 1;
nodes = (
(752,0,l),
(752,-202,ls),
(752,-240,o),
(737,-264,o),
(680,-264,cs),
(647,-264,o),
(617,-250,o),
(578,-217,c),
(572,-253,l),
(599,-277,o),
(639,-304,o),
(683,-304,cs),
(768,-304,o),
(794,-256,o),
(794,-202,cs),
(794,0,l)
);
},
{
alignment = -1;
ref = N;
}
);
width = 879;
},
{
layerId = "3ED9E848-BE83-4CAC-8EFF-D71BD2B4F667";
shapes = (
{
closed = 1;
nodes = (
(708,0,l),
(708,-75,ls),
(708,-129,o),
(683,-136,o),
(665,-136,cs),
(632,-136,o),
(588,-123,o),
(549,-90,c),
(551,-253,l),
(590,-277,o),
(645,-304,o),
(734,-304,cs),
(848,-304,o),
(975,-234,o),
(975,-75,cs),
(975,0,l)
);
},
{
alignment = -1;
ref = N;
}
);
width = 1048;
}
);
unicode = 330;
},
{
glyphname = O;
kernLeft = C;
kernRight = O;
lastChange = "2023-09-13 04:36:28 +0000";
layers = (
{
anchors = (
{
name = bottom;
pos = (621,0);
},
{
name = ogonek;
pos = (570,0);
},
{
name = top;
pos = (621,1050);
}
);
layerId = "F5467FAD-1970-4982-B3D3-939C01050498";
shapes = (
{
closed = 1;
nodes = (
(885,-7,o),
(1092,227,o),
(1092,522,cs),
(1092,819,o),
(885,1058,o),
(569,1058,cs),
(252,1058,o),
(45,819,o),
(45,522,cs),
(45,228,o),
(254,-7,o),
(569,-7,cs)
);
},
{
closed = 1;
nodes = (
(293,39,o),
(110,246,o),
(110,522,cs),
(110,800,o),
(294,1011,o),
(569,1011,cs),
(845,1011,o),
(1028,800,o),
(1028,522,cs),
(1028,246,o),
(845,39,o),
(569,39,cs)
);
}
);
width = 1137;
},
{
anchors = (
{
name = bottom;
pos = (621,0);
},
{
name = ogonek;
pos = (570,0);
},
{
name = top;
pos = (621,1050);
}
);
layerId = "6DD95C5A-998B-41AB-BDFB-84A73C209871";
shapes = (
{
closed = 1;
nodes = (
(951,-7,o),
(1167,240,o),
(1167,522,cs),
(1167,807,o),
(951,1058,o),
(621,1058,cs),
(291,1058,o),
(75,807,o),
(75,522,cs),
(75,240,o),
(293,-7,o),
(621,-7,cs)
);
},
{
closed = 1;
nodes = (
(434,165,o),
(306,309,o),
(306,522,cs),
(306,738,o),
(435,885,o),
(621,885,cs),
(809,885,o),
(936,738,o),
(936,522,cs),
(936,309,o),
(809,165,o),
(621,165,cs)
);
}
);
width = 1242;
},
{
anchors = (
{
name = bottom;
pos = (621,0);
},
{
name = ogonek;
pos = (570,0);
},
{
name = top;
pos = (621,1050);
}
);
layerId = "1FDC7037-1F88-4969-8535-0F79C1EF19DB";
shapes = (
{
closed = 1;
nodes = (
(875,-7,o),
(1080,225,o),
(1080,522,cs),
(1080,821,o),
(875,1058,o),
(560,1058,cs),
(246,1058,o),
(41,821,o),
(41,522,cs),
(41,227,o),
(248,-7,o),
(560,-7,cs)
);
},
{
closed = 1;
nodes = (
(270,20,o),
(78,236,o),
(78,522,cs),
(78,810,o),
(272,1031,o),
(560,1031,cs),
(851,1031,o),
(1043,810,o),
(1043,522,cs),
(1043,236,o),
(851,20,o),
(560,20,cs)
);
}
);
width = 1120;
},
{
anchors = (
{
name = bottom;
pos = (621,0);
},
{
name = ogonek;
pos = (570,0);
},
{
name = top;
pos = (621,1050);
}
);
layerId = "3ED9E848-BE83-4CAC-8EFF-D71BD2B4F667";
shapes = (
{
closed = 1;
nodes = (
(968,-7,o),
(1185,243,o),
(1185,522,cs),
(1185,804,o),
(968,1058,o),
(635,1058,cs),
(300,1058,o),
(83,804,o),
(83,522,cs),
(83,243,o),
(302,-7,o),
(635,-7,cs)
);
},
{
closed = 1;
nodes = (
(468,197,o),
(354,324,o),
(354,522,cs),
(354,723,o),
(470,854,o),
(635,854,cs),
(800,854,o),
(914,723,o),
(914,522,cs),
(914,324,o),
(800,197,o),
(635,197,cs)
);
}
);
width = 1268;
}
);
note = O;
unicode = 79;
},
{
glyphname = Oslash;
kernLeft = C;
kernRight = O;
lastChange = "2023-09-13 04:36:28 +0000";
layers = (
{
layerId = "F5467FAD-1970-4982-B3D3-939C01050498";
shapes = (
{
closed = 1;
nodes = (
(353,-111,l),
(405,-111,l),
(786,1178,l),
(734,1178,l)
);
},
{
ref = O;
}
);
width = 1137;
},
{
layerId = "6DD95C5A-998B-41AB-BDFB-84A73C209871";
shapes = (
{
closed = 1;
nodes = (
(345,-96,l),
(525,-96,l),
(899,1163,l),
(719,1163,l)
);
},
{
ref = O;
}
);
width = 1242;
},
{
layerId = "1FDC7037-1F88-4969-8535-0F79C1EF19DB";
shapes = (
{
closed = 1;
nodes = (
(354,-114,l),
(386,-114,l),
(768,1181,l),
(737,1181,l)
);
},
{
alignment = -1;
ref = O;
}
);
width = 1120;
},
{
layerId = "3ED9E848-BE83-4CAC-8EFF-D71BD2B4F667";
shapes = (
{
closed = 1;
nodes = (
(344,-91,l),
(555,-91,l),
(926,1160,l),
(716,1160,l)
);
},
{
alignment = -1;
ref = O;
}
);
width = 1268;
}
);
note = Oslash;
unicode = 216;
},
{
glyphname = OE;
kernLeft = C;
kernRight = E;
lastChange = "2023-09-13 04:36:28 +0000";
layers = (
{
layerId = "F5467FAD-1970-4982-B3D3-939C01050498";
shapes = (
{
closed = 1;
nodes = (
(671,-7,o),
(787,36,o),
(875,110,c),
(875,0,l),
(1665,0,l),
(1665,45,l),
(938,45,l),
(938,507,l),
(1632,507,l),
(1632,555,l),
(938,555,l),
(938,1004,l),
(1649,1004,l),
(1649,1050,l),
(875,1050,l),
(875,938,l),
(787,1013,o),
(671,1058,o),
(534,1058,cs),
(217,1058,o),
(12,819,o),
(12,522,cs),
(12,228,o),
(219,-7,o),
(534,-7,cs)
);
},
{
closed = 1;
nodes = (
(258,39,o),
(75,246,o),
(75,522,cs),
(75,800,o),
(260,1011,o),
(534,1011,cs),
(704,1011,o),
(814,964,o),
(875,843,c),
(875,210,l),
(814,89,o),
(704,39,o),
(534,39,cs)
);
}
);
width = 1736;
},
{
layerId = "6DD95C5A-998B-41AB-BDFB-84A73C209871";
shapes = (
{
closed = 1;
nodes = (
(683,-7,o),
(781,20,o),
(861,64,c),
(861,0,l),
(1730,0,l),
(1730,186,l),
(1092,186,l),
(1092,444,l),
(1700,444,l),
(1700,630,l),
(1092,630,l),
(1092,864,l),
(1715,864,l),
(1715,1050,l),
(861,1050,l),
(861,985,l),
(781,1030,o),
(683,1058,o),
(576,1058,cs),
(246,1058,o),
(30,807,o),
(30,522,cs),
(30,240,o),
(249,-7,o),
(576,-7,cs)
);
},
{
closed = 1;
nodes = (
(389,165,o),
(261,309,o),
(261,522,cs),
(261,738,o),
(390,885,o),
(576,885,cs),
(710,885,o),
(813,810,o),
(861,689,c),
(861,357,l),
(813,238,o),
(710,165,o),
(576,165,cs)
);
}
);
width = 1736;
},
{
layerId = "1FDC7037-1F88-4969-8535-0F79C1EF19DB";
shapes = (
{
closed = 1;
nodes = (
(669,-7,o),
(788,39,o),
(876,117,c),
(876,0,l),
(1655,0,l),
(1655,23,l),
(914,23,l),
(914,518,l),
(1622,518,l),
(1622,543,l),
(914,543,l),
(914,1026,l),
(1638,1026,l),
(1638,1050,l),
(876,1050,l),
(876,932,l),
(788,1010,o),
(669,1058,o),
(528,1058,cs),
(213,1058,o),
(9,821,o),
(9,522,cs),
(9,227,o),
(215,-7,o),
(528,-7,cs)
);
},
{
closed = 1;
nodes = (
(237,20,o),
(45,236,o),
(45,522,cs),
(45,810,o),
(239,1031,o),
(528,1031,cs),
(702,1031,o),
(815,989,o),
(876,867,c),
(876,186,l),
(815,66,o),
(702,20,o),
(528,20,cs)
);
}
);
width = 1736;
},
{
layerId = "3ED9E848-BE83-4CAC-8EFF-D71BD2B4F667";
shapes = (
{
closed = 1;
nodes = (
(686,-7,o),
(780,17,o),
(858,53,c),
(858,0,l),
(1746,0,l),
(1746,221,l),
(1130,221,l),
(1130,429,l),
(1716,429,l),
(1716,648,l),
(1130,648,l),
(1130,830,l),
(1731,830,l),
(1731,1050,l),
(858,1050,l),
(858,996,l),
(780,1034,o),
(686,1058,o),
(587,1058,cs),
(254,1058,o),
(35,804,o),
(35,522,cs),
(35,243,o),
(257,-7,o),
(587,-7,cs)
);
},
{
closed = 1;
nodes = (
(420,197,o),
(308,324,o),
(308,522,cs),
(308,723,o),
(422,854,o),
(587,854,cs),
(711,854,o),
(813,773,o),
(858,651,c),
(858,393,l),
(813,275,o),
(711,197,o),
(587,197,cs)
);
}
);
width = 1736;
}
);
note = OE;
unicode = 338;
},
{
glyphname = P;
kernLeft = B;
kernRight = P;
lastChange = "2023-09-13 04:36:28 +0000";
layers = (
{
layerId = "F5467FAD-1970-4982-B3D3-939C01050498";
shapes = (
{
closed = 1;
nodes = (
(138,0,l),
(138,510,l),
(347,510,ls),
(512,510,o),
(659,575,o),
(659,780,cs),
(659,983,o),
(503,1050,o),
(356,1050,cs),
(75,1050,l),
(75,0,l)
);
},
{
closed = 1;
nodes = (
(138,1004,l),
(351,1004,ls),
(491,1004,o),
(596,932,o),
(596,780,cs),
(596,630,o),
(495,552,o),
(347,552,cs),
(138,552,l)
);
}
);
width = 719;
},
{
layerId = "6DD95C5A-998B-41AB-BDFB-84A73C209871";
shapes = (
{
closed = 1;
nodes = (
(306,0,l),
(306,446,l),
(446,446,ls),
(618,446,o),
(809,524,o),
(809,749,cs),
(809,971,o),
(611,1050,o),
(455,1050,cs),
(75,1050,l),
(75,0,l)
);
},
{
closed = 1;
nodes = (
(306,878,l),
(450,878,ls),
(531,878,o),
(593,845,o),
(593,749,cs),
(593,651,o),
(531,614,o),
(446,614,cs),
(306,614,l)
);
}
);
width = 869;
},
{
layerId = "1FDC7037-1F88-4969-8535-0F79C1EF19DB";
shapes = (
{
closed = 1;
nodes = (
(111,0,l),
(111,521,l),
(330,521,ls),
(495,521,o),
(635,582,o),
(635,785,cs),
(635,984,o),
(485,1050,o),
(339,1050,cs),
(75,1050,l),
(75,0,l)
);
},
{
closed = 1;
nodes = (
(111,1023,l),
(335,1023,ls),
(485,1023,o),
(596,945,o),
(596,785,cs),
(596,627,o),
(489,542,o),
(330,542,cs),
(111,542,l)
);
}
);
width = 695;
},
{
layerId = "3ED9E848-BE83-4CAC-8EFF-D71BD2B4F667";
shapes = (
{
closed = 1;
nodes = (
(348,0,l),
(348,429,l),
(470,429,ls),
(644,429,o),
(846,512,o),
(846,741,cs),
(846,968,o),
(638,1050,o),
(479,1050,cs),
(75,1050,l),
(75,0,l)
);
},
{
closed = 1;
nodes = (
(348,846,l),
(474,846,ls),
(542,846,o),
(593,824,o),
(593,741,cs),
(593,656,o),
(540,629,o),
(470,629,cs),
(348,629,l)
);
}
);
width = 905;
}
);
note = P;
unicode = 80;
},
{
glyphname = Thorn;
lastChange = "2023-09-13 04:36:28 +0000";
layers = (
{
layerId = "F5467FAD-1970-4982-B3D3-939C01050498";
shapes = (
{
closed = 1;
nodes = (
(204,0,l),
(204,332,l),
(434,332,ls),
(597,332,o),
(747,402,o),
(747,608,cs),
(747,810,o),
(590,878,o),
(443,878,cs),
(204,878,l),
(204,1050,l),
(140,1050,l),
(140,0,l)
);
},
{
closed = 1;
nodes = (
(204,831,l),
(438,831,ls),
(578,831,o),
(683,761,o),
(683,608,cs),
(683,459,o),
(582,380,o),
(434,380,cs),
(204,380,l)
);
}
);
width = 797;
},
{
layerId = "6DD95C5A-998B-41AB-BDFB-84A73C209871";
shapes = (
{
closed = 1;
nodes = (
(279,0,l),
(279,290,l),
(432,290,ls),
(605,290,o),
(794,374,o),
(794,599,cs),
(794,819,o),
(596,900,o),
(441,900,cs),
(279,900,l),
(279,1050,l),
(48,1050,l),
(48,0,l)
);
},
{
closed = 1;
nodes = (
(279,728,l),
(437,728,ls),
(516,728,o),
(563,695,o),
(563,599,cs),
(563,501,o),
(516,464,o),
(432,464,cs),
(279,464,l)
);
}
);
width = 797;
},
{
layerId = "1FDC7037-1F88-4969-8535-0F79C1EF19DB";
shapes = (
{
closed = 1;
nodes = (
(192,0,l),
(192,338,l),
(434,338,ls),
(596,338,o),
(740,407,o),
(740,609,cs),
(740,809,o),
(588,875,o),
(443,875,cs),
(192,875,l),
(192,1050,l),
(155,1050,l),
(155,0,l)
);
},
{
closed = 1;
nodes = (
(192,848,l),
(438,848,ls),
(588,848,o),
(702,771,o),
(702,609,cs),
(702,453,o),
(593,366,o),
(434,366,cs),
(192,366,l)
);
}
);
width = 797;
},
{
layerId = "3ED9E848-BE83-4CAC-8EFF-D71BD2B4F667";
shapes = (
{
closed = 1;
nodes = (
(297,0,l),
(297,279,l),
(432,279,ls),
(606,279,o),
(806,366,o),
(806,597,cs),
(806,821,o),
(597,906,o),
(441,906,cs),
(297,906,l),
(297,1050,l),
(26,1050,l),
(26,0,l)
);
},
{
closed = 1;
nodes = (
(297,702,l),
(437,702,ls),
(501,702,o),
(533,678,o),
(533,597,cs),
(533,512,o),
(500,485,o),
(432,485,cs),
(297,485,l)
);
}
);
width = 797;
}
);
note = Thorn;
unicode = 222;
},
{
glyphname = Q;
kernLeft = C;
kernRight = Q;
lastChange = "2023-09-13 04:36:28 +0000";
layers = (
{
layerId = "F5467FAD-1970-4982-B3D3-939C01050498";
shapes = (
{
closed = 1;
nodes = (
(683,-7,o),
(795,36,o),
(880,109,c),
(998,0,l),
(1071,0,l),
(915,143,l),
(1006,239,o),
(1059,372,o),
(1059,522,cs),
(1059,819,o),
(852,1058,o),
(554,1058,cs),
(254,1058,o),
(47,819,o),
(47,522,cs),
(47,228,o),
(255,-7,o),
(554,-7,cs)
);
},
{
closed = 1;
nodes = (
(294,39,o),
(110,246,o),
(110,522,cs),
(110,800,o),
(296,1011,o),
(554,1011,cs),
(813,1011,o),
(996,800,o),
(996,522,cs),
(996,386,o),
(951,267,o),
(875,180,c),
(644,393,l),
(576,393,l),
(841,146,l),
(765,79,o),
(666,39,o),
(554,39,cs)
);
}
);
width = 1158;
},
{
layerId = "6DD95C5A-998B-41AB-BDFB-84A73C209871";
shapes = (
{
closed = 1;
nodes = (
(711,-7,o),
(804,20,o),
(882,66,c),
(954,0,l),
(1244,0,l),
(1029,198,l),
(1098,288,o),
(1137,402,o),
(1137,522,cs),
(1137,807,o),
(921,1058,o),
(606,1058,cs),
(291,1058,o),
(75,807,o),
(75,522,cs),
(75,240,o),
(293,-7,o),
(606,-7,cs)
);
},
{
closed = 1;
nodes = (
(434,165,o),
(306,309,o),
(306,522,cs),
(306,738,o),
(435,885,o),
(606,885,cs),
(779,885,o),
(906,738,o),
(906,522,cs),
(906,455,o),
(893,395,o),
(870,344,c),
(726,476,l),
(444,476,l),
(741,198,l),
(701,177,o),
(656,165,o),
(606,165,cs)
);
}
);
width = 1254;
},
{
layerId = "1FDC7037-1F88-4969-8535-0F79C1EF19DB";
shapes = (
{
closed = 1;
nodes = (
(678,-7,o),
(794,39,o),
(881,117,c),
(1005,0,l),
(1044,0,l),
(897,134,l),
(992,231,o),
(1047,368,o),
(1047,522,cs),
(1047,821,o),
(842,1058,o),
(545,1058,cs),
(248,1058,o),
(42,821,o),
(42,522,cs),
(42,227,o),
(249,-7,o),
(545,-7,cs)
);
},
{
closed = 1;
nodes = (
(272,20,o),
(78,236,o),
(78,522,cs),
(78,810,o),
(273,1031,o),
(545,1031,cs),
(819,1031,o),
(1011,810,o),
(1011,522,cs),
(1011,375,o),
(960,246,o),
(876,155,c),
(630,380,l),
(597,380,l),
(857,138,l),
(776,63,o),
(668,20,o),
(545,20,cs)
);
}
);
width = 1143;
},
{
layerId = "3ED9E848-BE83-4CAC-8EFF-D71BD2B4F667";
shapes = (
{
closed = 1;
nodes = (
(719,-7,o),
(806,15,o),
(882,56,c),
(944,0,l),
(1286,0,l),
(1058,212,l),
(1121,300,o),
(1157,410,o),
(1157,522,cs),
(1157,804,o),
(938,1058,o),
(620,1058,cs),
(300,1058,o),
(83,804,o),
(83,522,cs),
(83,243,o),
(302,-7,o),
(620,-7,cs)
);
},
{
closed = 1;
nodes = (
(468,197,o),
(354,324,o),
(354,522,cs),
(354,723,o),
(470,854,o),
(620,854,cs),
(770,854,o),
(884,723,o),
(884,522,cs),
(884,471,o),
(878,426,o),
(869,384,c),
(747,497,l),
(411,497,l),
(717,210,l),
(684,201,o),
(653,197,o),
(620,197,cs)
);
}
);
width = 1278;
}
);
note = Q;
unicode = 81;
},
{
glyphname = R;
kernLeft = B;
kernRight = R;
lastChange = "2023-09-13 04:36:28 +0000";
layers = (
{
anchors = (
{
name = bottom;
pos = (417,0);
},
{
name = top;
pos = (372,1050);
}
);
layerId = "F5467FAD-1970-4982-B3D3-939C01050498";
shapes = (
{
closed = 1;
nodes = (
(149,0,l),
(149,584,l),
(350,585,ls),
(360,585,o),
(369,585,o),
(379,586,c),
(765,0,l),
(840,0,l),
(451,593,l),
(568,614,o),
(653,678,o),
(653,830,cs),
(653,998,o),
(525,1050,o),
(362,1050,cs),
(84,1050,l),
(84,0,l)
);
},
{
closed = 1;
nodes = (
(148,1004,l),
(361,1004,l),
(505,1004,o),
(589,930,o),
(589,813,cs),
(589,698,o),
(508,618,o),
(355,618,cs),
(148,618,l)
);
}
);
width = 855;
},
{
anchors = (
{
name = bottom;
pos = (542,0);
},
{
name = top;
pos = (462,1050);
}
);
layerId = "6DD95C5A-998B-41AB-BDFB-84A73C209871";
shapes = (
{
closed = 1;
nodes = (
(306,0,l),
(306,474,l),
(435,474,ls),
(439,474,o),
(444,474,o),
(448,474,c),
(749,0,l),
(1008,0,l),
(673,529,l),
(753,574,o),
(809,649,o),
(809,762,cs),
(809,971,o),
(620,1050,o),
(435,1050,cs),
(75,1050,l),
(75,0,l)
);
},
{
closed = 1;
nodes = (
(306,878,l),
(435,878,ls),
(528,878,o),
(578,846,o),
(578,762,cs),
(578,678,o),
(528,647,o),
(435,647,cs),
(306,647,l)
);
}
);
width = 1023;
},
{
anchors = (
{
name = bottom;
pos = (398,0);
},
{
name = top;
pos = (357,1050);
}
);
layerId = "1FDC7037-1F88-4969-8535-0F79C1EF19DB";
shapes = (
{
closed = 1;
nodes = (
(123,0,l),
(123,602,l),
(336,603,ls),
(348,603,o),
(357,603,o),
(368,603,c),
(768,0,l),
(813,0,l),
(416,603,l),
(539,620,o),
(627,683,o),
(627,840,cs),
(627,1002,o),
(510,1050,o),
(350,1050,cs),
(86,1050,l),
(86,0,l)
);
},
{
closed = 1;
nodes = (
(123,1023,l),
(350,1023,l),
(503,1023,o),
(591,944,o),
(591,821,cs),
(591,701,o),
(506,614,o),
(344,614,cs),
(123,614,l)
);
}
);
width = 828;
},
{
anchors = (
{
name = bottom;
pos = (572,0);
},
{
name = top;
pos = (485,1050);
}
);
layerId = "3ED9E848-BE83-4CAC-8EFF-D71BD2B4F667";
shapes = (
{
closed = 1;
nodes = (
(345,0,l),
(345,447,l),
(456,447,ls),
(459,447,o),
(462,447,o),
(465,447,c),
(744,0,l),
(1050,0,l),
(728,513,l),
(798,564,o),
(848,642,o),
(848,746,cs),
(848,965,o),
(642,1050,o),
(453,1050,cs),
(74,1050,l),
(74,0,l)
);
},
{
closed = 1;
nodes = (
(345,846,l),
(453,846,l),
(534,846,o),
(575,825,o),
(575,750,cs),
(575,674,o),
(533,654,o),
(455,654,cs),
(345,654,l)
);
}
);
width = 1064;
}
);
note = R;
unicode = 82;
},
{
glyphname = S;
kernLeft = S;
kernRight = S;
lastChange = "2023-09-13 04:36:28 +0000";
layers = (
{
anchors = (
{
name = bottom;
pos = (458,0);
},
{
name = top;
pos = (459,1050);
}
);
layerId = "F5467FAD-1970-4982-B3D3-939C01050498";
shapes = (
{
closed = 1;
nodes = (
(714,-10,o),
(824,110,o),
(824,270,cs),
(824,452,o),
(678,498,o),
(455,573,cs),
(239,645,o),
(197,708,o),
(197,816,cs),
(197,935,o),
(273,1025,o),
(449,1025,cs),
(567,1025,o),
(656,977,o),
(686,890,c),
(749,906,l),
(707,1010,o),
(590,1062,o),
(449,1062,cs),
(233,1062,o),
(131,954,o),
(131,816,cs),
(131,677,o),
(231,600,o),
(438,533,cs),
(677,455,o),
(755,420,o),
(755,270,cs),
(755,128,o),
(662,30,o),
(456,30,cs),
(254,30,o),
(150,125,o),
(104,258,c),
(45,228,l),
(110,86,o),
(233,-10,o),
(456,-10,cs)
);
}
);
width = 869;
},
{
anchors = (
{
name = bottom;
pos = (482,0);
},
{
name = top;
pos = (483,1050);
}
);
layerId = "6DD95C5A-998B-41AB-BDFB-84A73C209871";
shapes = (
{
closed = 1;
nodes = (
(743,-12,o),
(879,120,o),
(879,315,cs),
(879,513,o),
(636,587,o),
(507,635,cs),
(387,680,o),
(332,714,o),
(332,782,cs),
(332,852,o),
(393,899,o),
(474,899,cs),
(572,899,o),
(615,857,o),
(626,762,c),
(837,816,l),
(821,974,o),
(651,1064,o),
(474,1064,cs),
(267,1064,o),
(107,962,o),
(107,782,cs),
(107,615,o),
(230,545,o),
(440,473,cs),
(567,429,o),
(656,398,o),
(656,300,cs),
(656,216,o),
(590,167,o),
(482,167,cs),
(333,167,o),
(258,242,o),
(206,387,c),
(18,293,l),
(72,126,o),
(216,-12,o),
(482,-12,cs)
);
}
);
width = 918;
},
{
anchors = (
{
name = bottom;
pos = (453,0);
},
{
name = top;
pos = (455,1050);
}
);
layerId = "1FDC7037-1F88-4969-8535-0F79C1EF19DB";
shapes = (
{
closed = 1;
nodes = (
(710,-10,o),
(815,108,o),
(815,263,cs),
(815,441,o),
(684,485,o),
(446,563,cs),
(215,639,o),
(176,707,o),
(176,822,cs),
(176,948,o),
(254,1044,o),
(444,1044,cs),
(567,1044,o),
(662,996,o),
(695,911,c),
(735,921,l),
(689,1016,o),
(579,1062,o),
(444,1062,cs),
(227,1062,o),
(135,953,o),
(135,822,cs),
(135,687,o),
(231,609,o),
(438,542,cs),
(695,459,o),
(771,423,o),
(771,266,cs),
(771,114,o),
(674,8,o),
(452,8,cs),
(242,8,o),
(132,107,o),
(87,237,c),
(50,218,l),
(116,80,o),
(236,-10,o),
(452,-10,cs)
);
}
);
width = 861;
},
{
anchors = (
{
name = bottom;
pos = (488,0);
},
{
name = top;
pos = (489,1050);
}
);
layerId = "3ED9E848-BE83-4CAC-8EFF-D71BD2B4F667";
shapes = (
{
closed = 1;
nodes = (
(750,-12,o),
(893,123,o),
(893,326,cs),
(893,528,o),
(626,608,o),
(521,650,cs),
(423,689,o),
(365,716,o),
(365,773,cs),
(365,831,o),
(423,867,o),
(480,867,cs),
(573,867,o),
(605,827,o),
(611,731,c),
(858,794,l),
(849,965,o),
(666,1064,o),
(480,1064,cs),
(276,1064,o),
(101,963,o),
(101,773,cs),
(101,600,o),
(230,531,o),
(440,458,cs),
(540,423,o),
(632,392,o),
(632,308,cs),
(632,237,o),
(572,200,o),
(488,200,cs),
(353,200,o),
(285,270,o),
(231,419,c),
(12,309,l),
(63,137,o),
(212,-12,o),
(488,-12,cs)
);
}
);
width = 930;
}
);
note = S;
unicode = 83;
},
{
glyphname = Germandbls;
lastChange = "2023-09-13 04:36:28 +0000";
layers = (
{
layerId = "F5467FAD-1970-4982-B3D3-939C01050498";
shapes = (
{
closed = 1;
nodes = (
(741,-15,o),
(905,102,o),
(905,303,cs),
(905,533,o),
(755,633,o),
(570,633,cs),
(560,633,o),
(549,632,o),
(537,632,c),
(884,1007,l),
(884,1050,l),
(75,1050,l),
(75,0,l),
(141,0,l),
(141,1007,l),
(816,1007,l),
(461,617,l),
(501,576,l),
(525,582,o),
(548,584,o),
(575,584,cs),
(728,584,o),
(843,479,o),
(843,303,cs),
(843,123,o),
(708,20,o),
(558,20,cs),
(408,20,o),
(297,89,o),
(276,245,c),
(213,245,l),
(239,68,o),
(375,-15,o),
(558,-15,cs)
);
}
);
width = 980;
},
{
layerId = "6DD95C5A-998B-41AB-BDFB-84A73C209871";
shapes = (
{
closed = 1;
nodes = (
(948,-15,o),
(1140,120,o),
(1140,330,cs),
(1140,491,o),
(1040,599,o),
(906,636,cs),
(894,641,o),
(882,642,o),
(870,645,c),
(1122,903,l),
(1122,1050,l),
(75,1050,l),
(75,0,l),
(303,0,l),
(303,888,l),
(828,888,l),
(566,606,l),
(663,489,l),
(719,506,o),
(732,510,o),
(764,510,cs),
(848,510,o),
(911,452,o),
(911,330,cs),
(911,206,o),
(836,147,o),
(749,147,cs),
(642,147,o),
(581,195,o),
(585,344,c),
(356,344,l),
(348,107,o),
(527,-15,o),
(749,-15,cs)
);
}
);
width = 1215;
},
{
layerId = "1FDC7037-1F88-4969-8535-0F79C1EF19DB";
shapes = (
{
closed = 1;
nodes = (
(708,-15,o),
(867,99,o),
(867,299,cs),
(867,539,o),
(710,639,o),
(516,633,cs),
(506,632,o),
(495,630,o),
(483,630,c),
(846,1023,l),
(846,1050,l),
(75,1050,l),
(75,0,l),
(116,0,l),
(116,1026,l),
(815,1026,l),
(444,618,l),
(476,590,l),
(494,594,o),
(518,596,o),
(545,596,cs),
(708,596,o),
(833,483,o),
(833,299,cs),
(833,110,o),
(687,-1,o),
(528,-1,cs),
(371,-1,o),
(252,72,o),
(227,228,c),
(191,228,l),
(221,62,o),
(351,-15,o),
(528,-15,cs)
);
}
);
width = 942;
},
{
layerId = "3ED9E848-BE83-4CAC-8EFF-D71BD2B4F667";
shapes = (
{
closed = 1;
nodes = (
(999,-15,o),
(1199,125,o),
(1199,336,cs),
(1199,480,o),
(1110,590,o),
(989,636,cs),
(977,642,o),
(965,645,o),
(953,648,c),
(1181,878,l),
(1181,1050,l),
(75,1050,l),
(75,0,l),
(344,0,l),
(344,860,l),
(831,860,l),
(591,603,l),
(704,468,l),
(767,486,o),
(777,492,o),
(810,492,cs),
(878,492,o),
(927,446,o),
(927,336,cs),
(927,227,o),
(867,179,o),
(795,179,cs),
(699,179,o),
(650,221,o),
(662,368,c),
(390,368,l),
(375,116,o),
(564,-15,o),
(795,-15,cs)
);
}
);
width = 1273;
}
);
unicode = 7838;
},
{
glyphname = T;
kernLeft = T;
kernRight = T;
lastChange = "2023-09-13 04:36:28 +0000";
layers = (
{
anchors = (
{
name = bottom;
pos = (500,0);
},
{
name = top;
pos = (501,1050);
}
);
layerId = "F5467FAD-1970-4982-B3D3-939C01050498";
shapes = (
{
closed = 1;
nodes = (
(533,0,l),
(533,1005,l),
(971,1005,l),
(971,1050,l),
(30,1050,l),
(30,1005,l),
(470,1005,l),
(470,0,l)
);
}
);
width = 1001;
},
{
anchors = (
{
name = bottom;
pos = (539,0);
},
{
name = top;
pos = (540,1050);
}
);
layerId = "6DD95C5A-998B-41AB-BDFB-84A73C209871";
shapes = (
{
closed = 1;
nodes = (
(654,0,l),
(654,864,l),
(1038,864,l),
(1038,1050,l),
(38,1050,l),
(38,864,l),
(423,864,l),
(423,0,l)
);
}
);
width = 1076;
},
{
anchors = (
{
name = bottom;
pos = (494,0);
},
{
name = top;
pos = (495,1050);
}
);
layerId = "1FDC7037-1F88-4969-8535-0F79C1EF19DB";
shapes = (
{
closed = 1;
nodes = (
(513,0,l),
(513,1028,l),
(960,1028,l),
(960,1050,l),
(29,1050,l),
(29,1028,l),
(477,1028,l),
(477,0,l)
);
}
);
width = 989;
},
{
anchors = (
{
name = bottom;
pos = (548,0);
},
{
name = top;
pos = (549,1050);
}
);
layerId = "3ED9E848-BE83-4CAC-8EFF-D71BD2B4F667";
shapes = (
{
closed = 1;
nodes = (
(684,0,l),
(684,830,l),
(1055,830,l),
(1055,1050,l),
(39,1050,l),
(39,830,l),
(411,830,l),
(411,0,l)
);
}
);
width = 1094;
}
);
note = T;
unicode = 84;
},
{
glyphname = Tbar;
lastChange = "2023-09-13 04:36:28 +0000";
layers = (
{
layerId = "F5467FAD-1970-4982-B3D3-939C01050498";
shapes = (
{
closed = 1;
nodes = (
(834,653,l),
(167,653,l),
(167,590,l),
(834,590,l)
);
},
{
ref = T;
}
);
width = 1001;
},
{
layerId = "6DD95C5A-998B-41AB-BDFB-84A73C209871";
shapes = (
{
closed = 1;
nodes = (
(942,633,l),
(128,633,l),
(128,446,l),
(942,446,l)
);
},
{
pos = (-3,0);
ref = T;
}
);
width = 1076;
},
{
layerId = "1FDC7037-1F88-4969-8535-0F79C1EF19DB";
shapes = (
{
closed = 1;
nodes = (
(816,656,l),
(173,656,l),
(173,612,l),
(816,612,l)
);
},
{
alignment = -1;
ref = T;
}
);
width = 989;
},
{
layerId = "3ED9E848-BE83-4CAC-8EFF-D71BD2B4F667";
shapes = (
{
closed = 1;
nodes = (
(969,629,l),
(119,629,l),
(119,410,l),
(969,410,l)
);
},
{
alignment = -1;
pos = (-3,0);
ref = T;
}
);
width = 1094;
}
);
unicode = 358;
},
{
glyphname = U;
kernLeft = U;
kernRight = U;
lastChange = "2023-09-13 04:36:28 +0000";
layers = (
{
anchors = (
{
name = bottom;
pos = (467,0);
},
{
name = ogonek;
pos = (512,0);
},
{
name = top;
pos = (467,1050);
}
);
layerId = "F5467FAD-1970-4982-B3D3-939C01050498";
shapes = (
{
closed = 1;
nodes = (
(690,-18,o),
(843,87,o),
(843,318,c),
(842,1050,l),
(779,1050,l),
(779,318,ls),
(779,113,o),
(642,23,o),
(467,23,cs),
(291,23,o),
(155,113,o),
(155,318,cs),
(155,1050,l),
(92,1050,l),
(90,318,ls),
(90,87,o),
(243,-18,o),
(467,-18,cs)
);
}
);
width = 933;
},
{
anchors = (
{
name = bottom;
pos = (467,0);
},
{
name = ogonek;
pos = (512,0);
},
{
name = top;
pos = (467,1050);
}
);
layerId = "6DD95C5A-998B-41AB-BDFB-84A73C209871";
shapes = (
{
closed = 1;
nodes = (
(704,-18,o),
(884,104,o),
(884,342,c),
(882,1050,l),
(653,1050,l),
(653,342,ls),
(653,200,o),
(579,150,o),
(467,150,cs),
(354,150,o),
(281,200,o),
(281,342,cs),
(281,1050,l),
(51,1050,l),
(50,342,ls),
(50,104,o),
(230,-18,o),
(467,-18,cs)
);
}
);
width = 933;
},
{
anchors = (
{
name = bottom;
pos = (467,0);
},
{
name = ogonek;
pos = (512,0);
},
{
name = top;
pos = (467,1050);
}
);
layerId = "1FDC7037-1F88-4969-8535-0F79C1EF19DB";
shapes = (
{
closed = 1;
nodes = (
(689,-18,o),
(837,84,o),
(837,314,c),
(836,1050,l),
(798,1050,l),
(798,314,ls),
(798,99,o),
(653,2,o),
(467,2,cs),
(281,2,o),
(135,99,o),
(135,314,cs),
(135,1050,l),
(98,1050,l),
(96,314,ls),
(96,84,o),
(245,-18,o),
(467,-18,cs)
);
}
);
width = 933;
},
{
anchors = (
{
name = bottom;
pos = (467,0);
},
{
name = ogonek;
pos = (512,0);
},
{
name = top;
pos = (467,1050);
}
);
layerId = "3ED9E848-BE83-4CAC-8EFF-D71BD2B4F667";
shapes = (
{
closed = 1;
nodes = (
(707,-18,o),
(894,108,o),
(894,348,c),
(893,1050,l),
(621,1050,l),
(621,348,ls),
(621,221,o),
(564,182,o),
(467,182,cs),
(369,182,o),
(312,221,o),
(312,348,cs),
(312,1050,l),
(41,1050,l),
(39,348,ls),
(39,108,o),
(227,-18,o),
(467,-18,cs)
);
}
);
width = 933;
}
);
note = U;
unicode = 85;
},
{
glyphname = V;
kernLeft = V;
kernRight = V;
lastChange = "2023-09-13 04:36:28 +0000";
layers = (
{
layerId = "F5467FAD-1970-4982-B3D3-939C01050498";
shapes = (
{
closed = 1;
nodes = (
(482,0,l),
(842,1050,l),
(785,1050,l),
(437,38,l),
(464,38,l),
(117,1050,l),
(60,1050,l),
(419,0,l)
);
}
);
width = 902;
},
{
layerId = "6DD95C5A-998B-41AB-BDFB-84A73C209871";
shapes = (
{
closed = 1;
nodes = (
(593,0,l),
(953,1050,l),
(723,1050,l),
(450,252,l),
(494,252,l),
(221,1050,l),
(-9,1050,l),
(350,0,l)
);
}
);
width = 944;
},
{
layerId = "1FDC7037-1F88-4969-8535-0F79C1EF19DB";
shapes = (
{
closed = 1;
nodes = (
(464,0,l),
(824,1050,l),
(795,1050,l),
(435,3,l),
(459,3,l),
(101,1050,l),
(71,1050,l),
(429,0,l)
);
}
);
width = 895;
},
{
layerId = "3ED9E848-BE83-4CAC-8EFF-D71BD2B4F667";
shapes = (
{
closed = 1;
nodes = (
(620,0,l),
(980,1050,l),
(708,1050,l),
(453,305,l),
(501,305,l),
(246,1050,l),
(-25,1050,l),
(333,0,l)
);
}
);
width = 954;
}
);
note = V;
unicode = 86;
},
{
glyphname = W;
kernLeft = W;
kernRight = W;
lastChange = "2023-09-13 04:36:28 +0000";
layers = (
{
anchors = (
{
name = bottom;
pos = (686,0);
},
{
name = top;
pos = (693,1050);
}
);
layerId = "F5467FAD-1970-4982-B3D3-939C01050498";
shapes = (
{
closed = 1;
nodes = (
(422,0,l),
(722,1050,l),
(665,1050,l),
(386,71,l),
(395,71,l),
(117,1050,l),
(60,1050,l),
(359,0,l)
);
},
{
closed = 1;
nodes = (
(1326,1050,l),
(1269,1050,l),
(992,71,l),
(1001,71,l),
(722,1050,l),
(665,1050,l),
(965,0,l),
(1028,0,l)
);
}
);
width = 1386;
},
{
anchors = (
{
name = bottom;
pos = (666,0);
},
{
name = top;
pos = (666,1050);
}
);
layerId = "6DD95C5A-998B-41AB-BDFB-84A73C209871";
shapes = (
{
closed = 1;
nodes = (
(533,0,l),
(782,1035,l),
(560,1035,l),
(399,297,l),
(429,297,l),
(291,1050,l),
(60,1050,l),
(294,0,l)
);
},
{
closed = 1;
nodes = (
(1281,1050,l),
(1050,1050,l),
(912,297,l),
(942,297,l),
(782,1035,l),
(560,1035,l),
(809,0,l),
(1047,0,l)
);
}
);
width = 1341;
},
{
anchors = (
{
name = bottom;
pos = (689,0);
},
{
name = top;
pos = (698,1050);
}
);
layerId = "1FDC7037-1F88-4969-8535-0F79C1EF19DB";
shapes = (
{
closed = 1;
nodes = (
(404,0,l),
(713,1053,l),
(681,1053,l),
(384,35,l),
(389,35,l),
(89,1050,l),
(60,1050,l),
(369,0,l)
);
},
{
closed = 1;
nodes = (
(1334,1050,l),
(1304,1050,l),
(1004,35,l),
(1010,35,l),
(713,1053,l),
(681,1053,l),
(990,0,l),
(1025,0,l)
);
}
);
width = 1393;
},
{
anchors = (
{
name = bottom;
pos = (662,0);
},
{
name = top;
pos = (660,1050);
}
);
layerId = "3ED9E848-BE83-4CAC-8EFF-D71BD2B4F667";
shapes = (
{
closed = 1;
nodes = (
(560,0,l),
(797,1032,l),
(534,1032,l),
(402,353,l),
(438,353,l),
(335,1050,l),
(60,1050,l),
(278,0,l)
);
},
{
closed = 1;
nodes = (
(1271,1050,l),
(996,1050,l),
(893,353,l),
(927,353,l),
(797,1032,l),
(534,1032,l),
(770,0,l),
(1052,0,l)
);
}
);
width = 1330;
}
);
note = W;
unicode = 87;
},
{
glyphname = X;
kernLeft = X;
kernRight = X;
lastChange = "2023-09-13 04:36:28 +0000";
layers = (
{
layerId = "F5467FAD-1970-4982-B3D3-939C01050498";
shapes = (
{
closed = 1;
nodes = (
(528,542,l),
(929,1050,l),
(855,1050,l),
(495,594,l)
);
},
{
closed = 1;
nodes = (
(471,579,l),
(15,0,l),
(89,0,l),
(504,525,l)
);
},
{
closed = 1;
nodes = (
(158,1050,l),
(84,1050,l),
(890,0,l),
(963,0,l)
);
}
);
width = 978;
},
{
layerId = "6DD95C5A-998B-41AB-BDFB-84A73C209871";
shapes = (
{
closed = 1;
nodes = (
(732,534,l),
(1142,1050,l),
(869,1050,l),
(599,708,l)
);
},
{
closed = 1;
nodes = (
(474,582,l),
(15,0,l),
(288,0,l),
(606,405,l)
);
},
{
closed = 1;
nodes = (
(354,1050,l),
(81,1050,l),
(888,0,l),
(1160,0,l)
);
}
);
width = 1175;
},
{
layerId = "1FDC7037-1F88-4969-8535-0F79C1EF19DB";
shapes = (
{
closed = 1;
nodes = (
(495,543,l),
(894,1050,l),
(854,1050,l),
(479,576,l)
);
},
{
closed = 1;
nodes = (
(471,579,l),
(15,0,l),
(57,0,l),
(488,545,l)
);
},
{
closed = 1;
nodes = (
(126,1050,l),
(84,1050,l),
(890,0,l),
(932,0,l)
);
}
);
width = 947;
},
{
layerId = "3ED9E848-BE83-4CAC-8EFF-D71BD2B4F667";
shapes = (
{
closed = 1;
nodes = (
(782,533,l),
(1194,1050,l),
(872,1050,l),
(624,737,l)
);
},
{
closed = 1;
nodes = (
(474,582,l),
(15,0,l),
(338,0,l),
(632,375,l)
);
},
{
closed = 1;
nodes = (
(402,1050,l),
(81,1050,l),
(888,0,l),
(1208,0,l)
);
}
);
width = 1223;
}
);
note = X;
unicode = 88;
},
{
glyphname = Y;
kernLeft = Y;
kernRight = Y;
lastChange = "2023-09-13 04:36:28 +0000";
layers = (
{
anchors = (
{
name = bottom;
pos = (431,0);
},
{
name = top;
pos = (431,1050);
}
);
layerId = "F5467FAD-1970-4982-B3D3-939C01050498";
shapes = (
{
closed = 1;
nodes = (
(461,0,l),
(461,465,l),
(845,1050,l),
(776,1050,l),
(429,506,l),
(84,1050,l),
(15,1050,l),
(398,465,l),
(398,0,l)
);
}
);
width = 860;
},
{
anchors = (
{
name = bottom;
pos = (528,0);
},
{
name = top;
pos = (528,1050);
}
);
layerId = "6DD95C5A-998B-41AB-BDFB-84A73C209871";
shapes = (
{
closed = 1;
nodes = (
(642,0,l),
(642,461,l),
(1025,1050,l),
(788,1050,l),
(527,632,l),
(267,1050,l),
(30,1050,l),
(411,461,l),
(411,0,l)
);
}
);
width = 1055;
},
{
anchors = (
{
name = bottom;
pos = (416,0);
},
{
name = top;
pos = (416,1050);
}
);
layerId = "1FDC7037-1F88-4969-8535-0F79C1EF19DB";
shapes = (
{
closed = 1;
nodes = (
(432,0,l),
(432,465,l),
(816,1050,l),
(774,1050,l),
(414,486,l),
(54,1050,l),
(12,1050,l),
(396,465,l),
(396,0,l)
);
}
);
width = 828;
},
{
anchors = (
{
name = bottom;
pos = (552,0);
},
{
name = top;
pos = (552,1050);
}
);
layerId = "3ED9E848-BE83-4CAC-8EFF-D71BD2B4F667";
shapes = (
{
closed = 1;
nodes = (
(687,0,l),
(687,459,l),
(1068,1050,l),
(791,1050,l),
(551,663,l),
(312,1050,l),
(35,1050,l),
(414,459,l),
(414,0,l)
);
}
);
width = 1102;
}
);
note = Y;
unicode = 89;
},
{
glyphname = Z;
kernLeft = Z;
kernRight = Z;
lastChange = "2023-09-13 04:36:28 +0000";
layers = (
{
anchors = (
{
name = bottom;
pos = (426,0);
},
{
name = top;
pos = (426,1050);
}
);
layerId = "F5467FAD-1970-4982-B3D3-939C01050498";
shapes = (
{
closed = 1;
nodes = (
(798,0,l),
(798,45,l),
(83,45,l),
(836,1005,l),
(836,1050,l),
(69,1050,l),
(69,1005,l),
(768,1005,l),
(15,45,l),
(15,0,l)
);
}
);
width = 851;
},
{
anchors = (
{
name = bottom;
pos = (443,0);
},
{
name = top;
pos = (443,1050);
}
);
layerId = "6DD95C5A-998B-41AB-BDFB-84A73C209871";
shapes = (
{
closed = 1;
nodes = (
(863,0,l),
(863,188,l),
(303,188,l),
(869,864,l),
(869,1050,l),
(48,1050,l),
(48,864,l),
(579,864,l),
(15,188,l),
(15,0,l)
);
}
);
width = 884;
},
{
anchors = (
{
name = bottom;
pos = (423,0);
},
{
name = top;
pos = (423,1050);
}
);
layerId = "1FDC7037-1F88-4969-8535-0F79C1EF19DB";
shapes = (
{
closed = 1;
nodes = (
(788,0,l),
(788,23,l),
(47,23,l),
(830,1028,l),
(830,1050,l),
(72,1050,l),
(72,1028,l),
(798,1028,l),
(15,23,l),
(15,0,l)
);
}
);
width = 845;
},
{
anchors = (
{
name = bottom;
pos = (447,0);
},
{
name = top;
pos = (447,1050);
}
);
layerId = "3ED9E848-BE83-4CAC-8EFF-D71BD2B4F667";
shapes = (
{
closed = 1;
nodes = (
(879,0,l),
(879,222,l),
(357,222,l),
(876,830,l),
(876,1050,l),
(44,1050,l),
(44,830,l),
(533,830,l),
(15,222,l),
(15,0,l)
);
}
);
width = 892;
}
);
note = Z;
unicode = 90;
},
{
glyphname = a;
kernLeft = a;
kernRight = a;
lastChange = "2023-09-13 04:36:28 +0000";
layers = (
{
anchors = (
{
name = bottom;
pos = (390,0);
},
{
name = ogonek;
pos = (635,0);
},
{
name = top;
pos = (390,750);
}
);
layerId = "F5467FAD-1970-4982-B3D3-939C01050498";
shapes = (
{
closed = 1;
nodes = (
(484,-21,o),
(593,73,o),
(634,192,c),
(634,0,l),
(700,0,l),
(700,465,ls),
(700,599,o),
(673,767,o),
(398,767,cs),
(257,767,o),
(140,698,o),
(108,615,cs),
(105,606,o),
(102,599,o),
(101,590,c),
(197,588,l),
(198,594,o),
(200,600,o),
(203,606,cs),
(225,669,o),
(296,725,o),
(413,725,cs),
(557,725,o),
(627,648,o),
(627,551,cs),
(627,450,o),
(506,413,o),
(368,398,cs),
(114,369,o),
(45,297,o),
(45,185,cs),
(45,63,o),
(158,-21,o),
(336,-21,cs)
);
},
{
closed = 1;
nodes = (
(164,18,o),
(120,117,o),
(120,194,cs),
(120,291,o),
(191,335,o),
(363,357,cs),
(503,375,o),
(587,407,o),
(635,465,c),
(635,314,ls),
(635,176,o),
(527,18,o),
(336,18,cs)
);
}
);
width = 776;
},
{
anchors = (
{
name = bottom;
pos = (440,0);
},
{
name = ogonek;
pos = (548,0);
},
{
name = top;
pos = (440,750);
}
);
layerId = "6DD95C5A-998B-41AB-BDFB-84A73C209871";
shapes = (
{
closed = 1;
nodes = (
(439,-20,o),
(507,24,o),
(548,86,c),
(548,0,l),
(777,0,l),
(777,451,ls),
(777,568,o),
(749,763,o),
(438,763,cs),
(257,764,o),
(104,661,o),
(104,538,cs),
(104,523,o),
(107,509,o),
(111,494,c),
(333,494,l),
(332,495,o),
(331,500,o),
(331,506,cs),
(331,537,o),
(345,611,o),
(451,611,cs),
(509,611,o),
(548,587,o),
(548,536,cs),
(548,477,o),
(479,455,o),
(380,445,cs),
(134,422,o),
(45,337,o),
(45,214,cs),
(45,84,o),
(135,-20,o),
(330,-20,cs)
);
},
{
closed = 1;
nodes = (
(306,122,o),
(272,174,o),
(272,222,cs),
(272,282,o),
(329,311,o),
(399,320,cs),
(453,326,o),
(506,339,o),
(552,359,c),
(552,344,ls),
(552,180,o),
(467,122,o),
(380,122,cs)
);
}
);
width = 852;
},
{
anchors = (
{
name = bottom;
pos = (383,0);
},
{
name = ogonek;
pos = (648,0);
},
{
name = top;
pos = (383,750);
}
);
layerId = "1FDC7037-1F88-4969-8535-0F79C1EF19DB";
shapes = (
{
closed = 1;
nodes = (
(492,-21,o),
(608,81,o),
(648,209,c),
(648,0,l),
(689,0,l),
(689,467,ls),
(689,603,o),
(662,767,o),
(392,767,cs),
(257,767,o),
(146,704,o),
(108,627,cs),
(105,620,o),
(102,614,o),
(99,605,c),
(174,603,l),
(177,611,o),
(179,617,o),
(182,623,cs),
(209,690,o),
(288,743,o),
(407,743,cs),
(564,743,o),
(639,659,o),
(639,554,cs),
(639,446,o),
(510,405,o),
(366,390,cs),
(111,360,o),
(45,291,o),
(45,180,cs),
(45,60,o),
(161,-21,o),
(338,-21,cs)
);
},
{
closed = 1;
nodes = (
(141,2,o),
(96,108,o),
(96,189,cs),
(96,293,o),
(168,339,o),
(357,363,cs),
(510,383,o),
(600,417,o),
(648,482,c),
(648,309,ls),
(648,176,o),
(536,2,o),
(329,2,cs)
);
}
);
width = 763;
},
{
anchors = (
{
name = bottom;
pos = (452,0);
},
{
name = ogonek;
pos = (527,0);
},
{
name = top;
pos = (452,750);
}
);
layerId = "3ED9E848-BE83-4CAC-8EFF-D71BD2B4F667";
shapes = (
{
closed = 1;
nodes = (
(428,-19,o),
(486,12,o),
(527,60,c),
(527,0,l),
(797,0,l),
(797,449,ls),
(797,561,o),
(767,764,o),
(449,764,cs),
(257,764,o),
(96,653,o),
(104,519,cs),
(105,503,o),
(108,486,o),
(114,470,c),
(366,471,l),
(365,471,o),
(365,476,o),
(363,482,cs),
(357,504,o),
(357,582,o),
(461,582,cs),
(497,582,o),
(528,572,o),
(528,533,cs),
(528,483,o),
(473,465,o),
(383,458,cs),
(138,435,o),
(45,347,o),
(45,222,cs),
(45,89,o),
(129,-19,o),
(329,-19,cs)
);
},
{
closed = 1;
nodes = (
(341,147,o),
(309,188,o),
(309,230,cs),
(309,281,o),
(363,305,o),
(408,311,cs),
(441,314,o),
(486,323,o),
(531,333,c),
(531,351,ls),
(531,182,o),
(452,147,o),
(390,147,cs)
);
}
);
width = 871;
}
);
note = a;
unicode = 97;
},
{
glyphname = ae;
kernLeft = a;
kernRight = ae;
lastChange = "2023-09-13 04:36:28 +0000";
layers = (
{
anchors = (
{
name = top;
pos = (677,750);
}
);
background = {
shapes = (
{
closed = 1;
nodes = (
(523,-21,o),
(626,95,o),
(660,229,c),
(717,59,o),
(871,-21,o),
(1041,-21,cs),
(1196,-21,o),
(1307,29,o),
(1379,117,c),
(1317,146,l),
(1266,72,o),
(1194,6,o),
(1041,6,cs),
(873,6,o),
(719,134,o),
(716,377,c),
(1377,377,l),
(1380,398,o),
(1381,419,o),
(1381,439,cs),
(1381,640,o),
(1248,770,o),
(1031,770,cs),
(885,770,o),
(756,706,o),
(687,588,c),
(662,684,o),
(591,767,o),
(398,767,cs),
(243,767,o),
(117,684,o),
(101,590,c),
(197,588,l),
(215,656,o),
(270,740,o),
(398,740,cs),
(545,740,o),
(611,668,o),
(623,569,cs),
(624,563,o),
(624,558,o),
(624,552,cs),
(624,451,o),
(505,414,o),
(368,398,cs),
(129,369,o),
(45,297,o),
(45,185,cs),
(45,63,o),
(158,-21,o),
(336,-21,cs)
);
},
{
closed = 1;
nodes = (
(164,3,o),
(120,117,o),
(120,194,cs),
(120,291,o),
(191,350,o),
(363,372,cs),
(487,388,o),
(587,421,o),
(634,480,c),
(635,299,ls),
(635,161,o),
(527,3,o),
(336,3,cs)
);
},
{
closed = 1;
nodes = (
(726,599,o),
(844,747,o),
(1031,747,cs),
(1220,747,o),
(1309,618,o),
(1309,491,cs),
(1309,463,o),
(1305,435,o),
(1296,409,c),
(716,409,l)
);
}
);
};
layerId = "F5467FAD-1970-4982-B3D3-939C01050498";
shapes = (
{
ref = a;
},
{
alignment = -1;
pos = (591,0);
ref = e;
}
);
width = 1442;
},
{
anchors = (
{
name = top;
pos = (701,750);
}
);
background = {
shapes = (
{
closed = 1;
nodes = (
(482,-19,o),
(572,51,o),
(606,150,c),
(675,39,o),
(801,-18,o),
(957,-18,cs),
(1125,-18,o),
(1280,53,o),
(1332,192,c),
(1148,279,l),
(1121,198,o),
(1067,143,o),
(972,143,cs),
(858,143,o),
(800,195,o),
(777,281,c),
(777,323,l),
(1310,323,l),
(1319,363,o),
(1323,401,o),
(1323,437,cs),
(1323,639,o),
(1178,767,o),
(942,767,cs),
(843,767,o),
(756,740,o),
(689,690,c),
(639,734,o),
(560,764,o),
(438,764,cs),
(257,764,o),
(105,662,o),
(105,539,cs),
(105,524,o),
(107,509,o),
(111,494,c),
(333,494,l),
(332,495,o),
(332,500,o),
(332,506,cs),
(332,537,o),
(345,611,o),
(452,611,cs),
(516,611,o),
(545,582,o),
(545,531,cs),
(545,473,o),
(480,455,o),
(380,446,cs),
(134,423,o),
(45,338,o),
(45,215,cs),
(45,84,o),
(135,-19,o),
(330,-19,cs)
);
},
{
closed = 1;
nodes = (
(302,122,o),
(267,174,o),
(267,222,cs),
(267,282,o),
(324,311,o),
(395,320,cs),
(449,326,o),
(501,339,o),
(548,359,c),
(548,344,ls),
(548,182,o),
(462,122,o),
(375,122,cs)
);
},
{
closed = 1;
nodes = (
(777,464,o),
(777,465,o),
(777,468,c),
(804,564,o),
(879,609,o),
(948,609,cs),
(1040,609,o),
(1095,564,o),
(1095,489,cs),
(1095,480,o),
(1094,471,o),
(1092,462,c),
(777,462,l)
);
}
);
};
layerId = "6DD95C5A-998B-41AB-BDFB-84A73C209871";
shapes = (
{
ref = a;
},
{
alignment = -1;
pos = (519,0);
ref = e;
}
);
width = 1409;
},
{
anchors = (
{
name = top;
pos = (672,750);
}
);
layerId = "1FDC7037-1F88-4969-8535-0F79C1EF19DB";
shapes = (
{
alignment = -1;
ref = a;
},
{
alignment = -1;
pos = (603,0);
ref = e;
}
);
width = 1447;
},
{
anchors = (
{
name = top;
pos = (707,750);
}
);
layerId = "3ED9E848-BE83-4CAC-8EFF-D71BD2B4F667";
shapes = (
{
alignment = -1;
ref = a;
},
{
alignment = -1;
pos = (501,0);
ref = e;
}
);
width = 1400;
}
);
metricLeft = a;
metricRight = e;
note = ae;
unicode = 230;
},
{
glyphname = b;
kernLeft = b;
kernRight = b;
lastChange = "2023-09-13 04:36:28 +0000";
layers = (
{
layerId = "F5467FAD-1970-4982-B3D3-939C01050498";
shapes = (
{
closed = 1;
nodes = (
(143,0,l),
(143,177,l),
(119,378,l),
(143,597,l),
(143,1050,l),
(75,1050,l),
(77,0,l)
);
},
{
closed = 1;
nodes = (
(684,-18,o),
(830,150,o),
(830,378,cs),
(830,605,o),
(684,770,o),
(456,770,cs),
(224,770,o),
(117,555,o),
(117,378,cs),
(117,203,o),
(216,-18,o),
(456,-18,cs)
);
},
{
closed = 1;
nodes = (
(275,27,o),
(125,161,o),
(125,378,cs),
(125,591,o),
(276,726,o),
(458,726,cs),
(642,726,o),
(762,569,o),
(762,378,cs),
(762,185,o),
(639,27,o),
(456,27,cs)
);
}
);
width = 875;
},
{
background = {
shapes = (
{
closed = 1;
nodes = (
(828,-18,o),
(974,150,o),
(974,378,cs),
(974,605,o),
(828,770,o),
(600,770,cs),
(417,770,o),
(312,638,o),
(275,498,c),
(287,597,l),
(287,1050,l),
(219,1050,l),
(221,0,l),
(287,0,l),
(287,177,l),
(276,255,l),
(314,114,o),
(419,-18,o),
(600,-18,cs)
);
},
{
closed = 1;
nodes = (
(419,27,o),
(267,161,o),
(267,378,cs),
(267,591,o),
(419,726,o),
(600,726,cs),
(785,726,o),
(906,569,o),
(906,378,cs),
(906,185,o),
(783,27,o),
(600,27,cs)
);
}
);
};
layerId = "6DD95C5A-998B-41AB-BDFB-84A73C209871";
shapes = (
{
closed = 1;
nodes = (
(282,0,l),
(282,39,l),
(252,378,l),
(282,735,l),
(282,1050,l),
(53,1050,l),
(54,0,l)
);
},
{
closed = 1;
nodes = (
(770,-13,o),
(927,167,o),
(927,378,cs),
(927,591,o),
(770,768,o),
(531,768,cs),
(302,768,o),
(242,638,o),
(242,378,cs),
(242,117,o),
(288,-13,o),
(531,-13,cs)
);
},
{
closed = 1;
nodes = (
(356,153,o),
(270,230,o),
(270,378,cs),
(270,525,o),
(356,603,o),
(489,603,cs),
(614,603,o),
(686,512,o),
(686,378,cs),
(686,243,o),
(614,153,o),
(489,153,cs)
);
}
);
width = 957;
},
{
associatedMasterId = "F5467FAD-1970-4982-B3D3-939C01050498";
layerId = "26A69B60-DC4A-41CE-A0B3-B5D760A97FC8";
name = "24 juil. 23  14:17";
shapes = (
{
closed = 1;
nodes = (
(143,597,l),
(143,1050,l),
(75,1050,l),
(77,0,l),
(143,0,l),
(143,177,l),
(117,366,l)
);
},
{
closed = 1;
nodes = (
(275,27,o),
(123,161,o),
(123,378,cs),
(123,591,o),
(275,726,o),
(456,726,cs),
(641,726,o),
(762,569,o),
(762,378,cs),
(762,185,o),
(639,27,o),
(456,27,cs)
);
},
{
closed = 1;
nodes = (
(126,278,l),
(159,128,o),
(266,-18,o),
(456,-18,cs),
(684,-18,o),
(830,150,o),
(830,378,cs),
(830,605,o),
(684,770,o),
(456,770,cs),
(264,770,o),
(159,624,o),
(126,476,c)
);
}
);
width = 875;
},
{
layerId = "1FDC7037-1F88-4969-8535-0F79C1EF19DB";
shapes = (
{
closed = 1;
nodes = (
(120,0,l),
(120,200,l),
(98,378,l),
(120,575,l),
(120,1050,l),
(78,1050,l),
(80,0,l)
);
},
{
closed = 1;
nodes = (
(671,-18,o),
(815,147,o),
(815,378,cs),
(815,606,o),
(671,770,o),
(444,770,cs),
(212,770,o),
(98,542,o),
(98,378,cs),
(98,216,o),
(204,-18,o),
(444,-18,cs)
);
},
{
closed = 1;
nodes = (
(261,8,o),
(101,150,o),
(101,378,cs),
(101,602,o),
(264,746,o),
(453,746,cs),
(647,746,o),
(774,578,o),
(774,378,cs),
(774,176,o),
(644,8,o),
(450,8,cs)
);
}
);
width = 861;
},
{
layerId = "3ED9E848-BE83-4CAC-8EFF-D71BD2B4F667";
shapes = (
{
closed = 1;
nodes = (
(317,0,l),
(317,5,l),
(285,378,l),
(317,770,l),
(317,1050,l),
(47,1050,l),
(48,0,l)
);
},
{
closed = 1;
nodes = (
(791,-12,o),
(951,171,o),
(951,378,cs),
(951,588,o),
(791,768,o),
(549,768,cs),
(321,768,o),
(272,659,o),
(272,378,cs),
(272,96,o),
(306,-12,o),
(549,-12,cs)
);
},
{
closed = 1;
nodes = (
(375,185,o),
(306,246,o),
(306,378,cs),
(306,509,o),
(375,573,o),
(497,573,cs),
(606,573,o),
(666,498,o),
(666,378,cs),
(666,258,o),
(608,185,o),
(497,185,cs)
);
}
);
width = 977;
}
);
note = b;
unicode = 98;
},
{
glyphname = c;
kernLeft = a;
kernRight = c;
lastChange = "2023-09-13 04:36:28 +0000";
layers = (
{
anchors = (
{
name = bottom;
pos = (453,0);
},
{
name = top;
pos = (462,750);
}
);
layerId = "F5467FAD-1970-4982-B3D3-939C01050498";
shapes = (
{
closed = 1;
nodes = (
(620,-21,o),
(735,47,o),
(794,168,c),
(734,192,l),
(689,102,o),
(608,21,o),
(450,21,cs),
(281,21,o),
(125,137,o),
(125,366,cs),
(125,588,o),
(251,728,o),
(462,728,cs),
(588,728,o),
(672,675,o),
(729,581,c),
(786,612,l),
(731,707,o),
(621,770,o),
(462,770,cs),
(219,770,o),
(45,630,o),
(45,366,cs),
(45,108,o),
(233,-21,o),
(450,-21,cs)
);
}
);
width = 839;
},
{
anchors = (
{
name = bottom;
pos = (468,0);
},
{
name = top;
pos = (477,750);
}
);
layerId = "6DD95C5A-998B-41AB-BDFB-84A73C209871";
shapes = (
{
closed = 1;
nodes = (
(668,-18,o),
(803,59,o),
(872,224,c),
(671,304,l),
(642,204,o),
(593,141,o),
(468,141,cs),
(333,141,o),
(261,236,o),
(261,368,cs),
(261,525,o),
(357,609,o),
(477,609,cs),
(578,609,o),
(648,551,o),
(648,455,c),
(848,548,l),
(806,678,o),
(672,767,o),
(477,767,cs),
(231,767,o),
(45,620,o),
(45,368,cs),
(45,117,o),
(248,-18,o),
(468,-18,cs)
);
}
);
width = 899;
},
{
anchors = (
{
name = bottom;
pos = (450,0);
},
{
name = top;
pos = (459,750);
}
);
layerId = "1FDC7037-1F88-4969-8535-0F79C1EF19DB";
shapes = (
{
closed = 1;
nodes = (
(612,-21,o),
(725,45,o),
(782,159,c),
(744,174,l),
(696,86,o),
(611,2,o),
(447,2,cs),
(272,2,o),
(102,120,o),
(102,366,cs),
(102,599,o),
(234,747,o),
(459,747,cs),
(590,747,o),
(677,695,o),
(743,600,c),
(776,623,l),
(719,711,o),
(614,770,o),
(459,770,cs),
(218,770,o),
(45,632,o),
(45,366,cs),
(45,107,o),
(230,-21,o),
(447,-21,cs)
);
}
);
width = 829;
},
{
anchors = (
{
name = bottom;
pos = (473,0);
},
{
name = top;
pos = (482,750);
}
);
layerId = "3ED9E848-BE83-4CAC-8EFF-D71BD2B4F667";
shapes = (
{
closed = 1;
nodes = (
(680,-18,o),
(819,62,o),
(891,239,c),
(656,332,l),
(630,230,o),
(590,171,o),
(473,171,cs),
(347,171,o),
(294,260,o),
(294,368,cs),
(294,510,o),
(383,581,o),
(482,581,cs),
(575,581,o),
(642,521,o),
(629,423,c),
(863,531,l),
(824,671,o),
(684,767,o),
(482,767,cs),
(234,767,o),
(45,617,o),
(45,368,cs),
(45,119,o),
(252,-18,o),
(473,-18,cs)
);
}
);
width = 913;
}
);
note = c;
unicode = 99;
},
{
glyphname = d;
kernLeft = a;
kernRight = d;
lastChange = "2023-09-13 04:36:28 +0000";
layers = (
{
anchors = (
{
name = bottom;
pos = (480,0);
},
{
name = top;
pos = (1005,750);
}
);
layerId = "F5467FAD-1970-4982-B3D3-939C01050498";
shapes = (
{
closed = 1;
nodes = (
(800,1050,l),
(732,1050,l),
(732,597,l),
(756,378,l),
(732,177,l),
(732,0,l),
(798,0,l)
);
},
{
closed = 1;
nodes = (
(659,-18,o),
(758,203,o),
(758,378,cs),
(758,555,o),
(651,770,o),
(419,770,cs),
(191,770,o),
(45,605,o),
(45,378,cs),
(45,150,o),
(191,-18,o),
(419,-18,cs)
);
},
{
closed = 1;
nodes = (
(236,27,o),
(113,185,o),
(113,378,cs),
(113,569,o),
(233,726,o),
(417,726,cs),
(599,726,o),
(750,591,o),
(750,378,cs),
(750,161,o),
(600,27,o),
(419,27,cs)
);
}
);
width = 875;
},
{
anchors = (
{
name = bottom;
pos = (530,0);
},
{
name = top;
pos = (1082,750);
}
);
layerId = "6DD95C5A-998B-41AB-BDFB-84A73C209871";
shapes = (
{
closed = 1;
nodes = (
(905,1050,l),
(675,1050,l),
(675,735,l),
(705,378,l),
(675,39,l),
(675,0,l),
(903,0,l)
);
},
{
closed = 1;
nodes = (
(669,-13,o),
(716,117,o),
(716,378,cs),
(716,638,o),
(656,768,o),
(426,768,cs),
(188,768,o),
(30,591,o),
(30,378,cs),
(30,167,o),
(188,-13,o),
(426,-13,cs)
);
},
{
closed = 1;
nodes = (
(348,153,o),
(275,243,o),
(275,378,cs),
(275,512,o),
(347,603,o),
(471,603,cs),
(611,603,o),
(690,518,o),
(690,378,cs),
(690,230,o),
(605,153,o),
(471,153,cs)
);
}
);
width = 957;
},
{
anchors = (
{
name = bottom;
pos = (530,0);
},
{
name = top;
pos = (1082,750);
}
);
associatedMasterId = "6DD95C5A-998B-41AB-BDFB-84A73C209871";
layerId = "1D074922-2F39-4A43-B83C-D4901F087130";
name = "24 juil. 23  14:32";
shapes = (
{
closed = 1;
nodes = (
(543,-13,o),
(618,12,o),
(675,51,c),
(675,27,l),
(675,0,l),
(903,0,l),
(905,1050,l),
(675,1050,l),
(675,740,l),
(675,701,l),
(618,743,o),
(542,768,o),
(441,768,cs),
(203,768,o),
(45,591,o),
(45,378,cs),
(45,167,o),
(201,-13,o),
(443,-13,cs)
);
},
{
closed = 1;
nodes = (
(348,153,o),
(275,243,o),
(275,378,cs),
(275,512,o),
(347,603,o),
(471,603,cs),
(611,603,o),
(690,518,o),
(690,378,cs),
(690,230,o),
(605,153,o),
(471,153,cs)
);
}
);
width = 957;
},
{
anchors = (
{
name = bottom;
pos = (480,0);
},
{
name = top;
pos = (1005,750);
}
);
associatedMasterId = "F5467FAD-1970-4982-B3D3-939C01050498";
layerId = "0FE110F9-B3B8-41FB-9267-A7A4874DD26C";
name = "24 juil. 23  14:32";
shapes = (
{
closed = 1;
nodes = (
(606,-18,o),
(711,122,o),
(746,269,c),
(737,177,l),
(737,0,l),
(803,0,l),
(804,1050,l),
(737,1050,l),
(737,597,l),
(746,486,l),
(711,632,o),
(606,770,o),
(419,770,cs),
(191,770,o),
(45,605,o),
(45,378,cs),
(45,150,o),
(191,-18,o),
(419,-18,cs)
);
},
{
closed = 1;
nodes = (
(236,27,o),
(113,185,o),
(113,378,cs),
(113,569,o),
(234,725,o),
(419,725,cs),
(600,725,o),
(752,591,o),
(752,378,cs),
(752,161,o),
(600,27,o),
(419,27,cs)
);
}
);
width = 879;
},
{
anchors = (
{
name = bottom;
pos = (473,0);
},
{
name = top;
pos = (993,750);
}
);
layerId = "1FDC7037-1F88-4969-8535-0F79C1EF19DB";
shapes = (
{
closed = 1;
nodes = (
(783,1050,l),
(741,1050,l),
(741,575,l),
(764,378,l),
(741,200,l),
(741,0,l),
(782,0,l)
);
},
{
closed = 1;
nodes = (
(657,-18,o),
(764,216,o),
(764,378,cs),
(764,542,o),
(651,770,o),
(417,770,cs),
(191,770,o),
(48,606,o),
(48,378,cs),
(48,147,o),
(191,-18,o),
(417,-18,cs)
);
},
{
closed = 1;
nodes = (
(218,8,o),
(87,176,o),
(87,378,cs),
(87,578,o),
(215,746,o),
(408,746,cs),
(597,746,o),
(759,603,o),
(759,378,cs),
(759,150,o),
(600,8,o),
(410,8,cs)
);
}
);
width = 861;
},
{
anchors = (
{
name = bottom;
pos = (542,0);
},
{
name = top;
pos = (1101,750);
}
);
layerId = "3ED9E848-BE83-4CAC-8EFF-D71BD2B4F667";
shapes = (
{
closed = 1;
nodes = (
(930,1050,l),
(662,1050,l),
(662,770,l),
(693,378,l),
(662,5,l),
(662,0,l),
(929,0,l)
);
},
{
closed = 1;
nodes = (
(672,-12,o),
(705,96,o),
(705,378,cs),
(705,659,o),
(657,768,o),
(428,768,cs),
(188,768,o),
(27,588,o),
(27,378,cs),
(27,171,o),
(188,-12,o),
(428,-12,cs)
);
},
{
closed = 1;
nodes = (
(375,185,o),
(315,258,o),
(315,378,cs),
(315,498,o),
(375,573,o),
(485,573,cs),
(614,573,o),
(675,500,o),
(675,378,cs),
(675,246,o),
(606,185,o),
(485,185,cs)
);
}
);
width = 977;
}
);
note = d;
unicode = 100;
},
{
glyphname = eth;
lastChange = "2023-09-13 04:36:28 +0000";
layers = (
{
layerId = "F5467FAD-1970-4982-B3D3-939C01050498";
shapes = (
{
closed = 1;
nodes = (
(699,-51,o),
(830,192,o),
(829,468,cs),
(830,765,o),
(669,995,o),
(402,1118,c),
(490,1194,l),
(462,1222,l),
(361,1135,l),
(287,1165,o),
(205,1187,o),
(117,1200,c),
(117,1146,l),
(188,1133,o),
(253,1115,o),
(312,1092,c),
(225,1017,l),
(253,988,l),
(354,1075,l),
(611,963,o),
(742,761,o),
(768,520,c),
(705,634,o),
(586,736,o),
(430,736,cs),
(218,737,o),
(57,584,o),
(57,354,cs),
(57,150,o),
(185,-51,o),
(426,-51,cs)
);
},
{
closed = 1;
nodes = (
(255,-6,o),
(127,156,o),
(127,361,cs),
(128,546,o),
(248,693,o),
(435,693,cs),
(612,693,o),
(765,558,o),
(765,331,cs),
(765,140,o),
(629,-6,o),
(433,-6,cs)
);
}
);
width = 860;
},
{
layerId = "6DD95C5A-998B-41AB-BDFB-84A73C209871";
shapes = (
{
closed = 1;
nodes = (
(722,-6,o),
(849,242,o),
(849,489,cs),
(849,729,o),
(725,927,o),
(518,1047,c),
(591,1110,l),
(496,1221,l),
(373,1114,l),
(286,1145,o),
(190,1165,o),
(85,1172,c),
(85,998,l),
(131,992,o),
(173,985,o),
(213,975,c),
(154,924,l),
(249,814,l),
(367,917,l),
(443,876,o),
(502,823,o),
(544,761,c),
(509,771,o),
(472,777,o),
(432,777,cs),
(218,777,o),
(38,621,o),
(37,395,cs),
(38,189,o),
(189,-6,o),
(429,-6,cs)
);
},
{
closed = 1;
nodes = (
(343,162,o),
(268,257,o),
(268,401,cs),
(268,526,o),
(339,610,o),
(436,610,cs),
(510,610,o),
(622,554,o),
(622,377,cs),
(623,293,o),
(581,173,o),
(435,162,cs)
);
}
);
width = 860;
},
{
layerId = "1FDC7037-1F88-4969-8535-0F79C1EF19DB";
shapes = (
{
closed = 1;
nodes = (
(696,-58,o),
(827,185,o),
(827,465,cs),
(827,771,o),
(660,1007,o),
(384,1130,c),
(474,1208,l),
(456,1223,l),
(360,1139,l),
(287,1169,o),
(207,1191,o),
(122,1205,c),
(122,1170,l),
(198,1155,o),
(266,1136,o),
(329,1112,c),
(237,1032,l),
(254,1017,l),
(351,1101,l),
(638,977,o),
(780,752,o),
(804,482,c),
(737,612,o),
(605,731,o),
(431,731,cs),
(218,731,o),
(60,578,o),
(60,348,cs),
(60,144,o),
(185,-58,o),
(426,-58,cs)
);
},
{
closed = 1;
nodes = (
(242,-33,o),
(105,140,o),
(105,356,cs),
(105,549,o),
(233,707,o),
(435,707,cs),
(629,707,o),
(788,558,o),
(788,324,cs),
(788,116,o),
(636,-34,o),
(434,-33,cs)
);
}
);
width = 860;
},
{
layerId = "3ED9E848-BE83-4CAC-8EFF-D71BD2B4F667";
shapes = (
{
closed = 1;
nodes = (
(728,5,o),
(854,254,o),
(854,494,cs),
(854,720,o),
(738,911,o),
(548,1031,c),
(615,1089,l),
(506,1221,l),
(377,1109,l),
(287,1140,o),
(186,1160,o),
(78,1164,c),
(78,962,l),
(117,959,o),
(155,953,o),
(189,945,c),
(137,902,l),
(248,771,l),
(371,878,l),
(402,855,o),
(443,839,o),
(489,821,c),
(461,806,o),
(444,788,o),
(432,788,cs),
(218,788,o),
(33,630,o),
(33,405,cs),
(33,198,o),
(191,5,o),
(429,5,cs)
);
},
{
closed = 1;
nodes = (
(365,204,o),
(303,282,o),
(303,410,cs),
(303,521,o),
(362,590,o),
(437,590,cs),
(485,590,o),
(588,554,o),
(588,387,cs),
(588,330,o),
(569,216,o),
(435,204,cs)
);
}
);
width = 860;
}
);
note = eth;
unicode = 240;
},
{
glyphname = dcroat;
lastChange = "2023-09-13 04:36:28 +0000";
layers = (
{
layerId = "F5467FAD-1970-4982-B3D3-939C01050498";
shapes = (
{
closed = 1;
nodes = (
(879,960,l),
(609,960,l),
(609,897,l),
(879,897,l)
);
},
{
ref = d;
}
);
width = 879;
},
{
layerId = "6DD95C5A-998B-41AB-BDFB-84A73C209871";
shapes = (
{
closed = 1;
nodes = (
(987,950,l),
(488,950,l),
(488,807,l),
(987,807,l)
);
},
{
ref = d;
}
);
width = 957;
},
{
layerId = "1FDC7037-1F88-4969-8535-0F79C1EF19DB";
shapes = (
{
closed = 1;
nodes = (
(861,962,l),
(629,962,l),
(629,912,l),
(861,912,l)
);
},
{
alignment = -1;
ref = d;
}
);
width = 867;
},
{
layerId = "3ED9E848-BE83-4CAC-8EFF-D71BD2B4F667";
shapes = (
{
closed = 1;
nodes = (
(1014,947,l),
(458,947,l),
(458,785,l),
(1014,785,l)
);
},
{
alignment = -1;
ref = d;
}
);
width = 976;
}
);
unicode = 273;
},
{
glyphname = e;
kernLeft = a;
kernRight = ae;
lastChange = "2023-09-13 04:36:28 +0000";
layers = (
{
anchors = (
{
name = bottom;
pos = (453,0);
},
{
name = ogonek;
pos = (489,0);
},
{
name = top;
pos = (462,750);
}
);
layerId = "F5467FAD-1970-4982-B3D3-939C01050498";
shapes = (
{
closed = 1;
nodes = (
(117,377,l),
(786,377,l),
(789,398,o),
(790,419,o),
(790,439,cs),
(790,640,o),
(657,770,o),
(440,770,cs),
(225,770,o),
(45,630,o),
(45,384,cs),
(45,108,o),
(234,-21,o),
(450,-21,cs),
(605,-21,o),
(716,29,o),
(788,117,c),
(726,161,l),
(675,87,o),
(603,21,o),
(450,21,cs),
(279,21,o),
(122,140,o),
(125,390,cs),
(128,590,o),
(246,732,o),
(440,732,cs),
(629,732,o),
(718,618,o),
(718,491,cs),
(718,463,o),
(716,444,o),
(710,419,c),
(117,419,l)
);
}
);
width = 851;
},
{
anchors = (
{
name = bottom;
pos = (453,0);
},
{
name = ogonek;
pos = (489,0);
},
{
name = top;
pos = (462,750);
}
);
layerId = "6DD95C5A-998B-41AB-BDFB-84A73C209871";
shapes = (
{
closed = 1;
nodes = (
(242,323,l),
(807,323,l),
(816,363,o),
(821,401,o),
(821,437,cs),
(821,639,o),
(675,767,o),
(440,767,cs),
(207,767,o),
(45,620,o),
(45,383,cs),
(45,117,o),
(213,-18,o),
(455,-18,cs),
(623,-18,o),
(777,53,o),
(830,192,c),
(645,279,l),
(618,198,o),
(564,140,o),
(470,140,cs),
(326,140,o),
(264,225,o),
(264,381,cs),
(264,548,o),
(357,609,o),
(446,609,cs),
(537,609,o),
(593,564,o),
(593,489,cs),
(593,480,o),
(591,471,o),
(590,462,c),
(249,462,l)
);
}
);
width = 890;
},
{
anchors = (
{
name = bottom;
pos = (453,0);
},
{
name = ogonek;
pos = (489,0);
},
{
name = top;
pos = (462,750);
}
);
layerId = "1FDC7037-1F88-4969-8535-0F79C1EF19DB";
shapes = (
{
closed = 1;
nodes = (
(98,386,l),
(783,386,l),
(785,404,o),
(785,422,o),
(785,440,cs),
(785,639,o),
(654,770,o),
(440,770,cs),
(228,770,o),
(45,632,o),
(45,384,cs),
(45,107,o),
(237,-21,o),
(450,-21,cs),
(602,-21,o),
(705,24,o),
(782,105,c),
(740,141,l),
(684,69,o),
(609,2,o),
(447,2,cs),
(272,2,o),
(99,126,o),
(102,392,cs),
(105,596,o),
(228,752,o),
(438,752,cs),
(644,752,o),
(738,627,o),
(738,492,cs),
(738,461,o),
(735,440,o),
(729,411,c),
(96,411,l)
);
}
);
width = 844;
},
{
anchors = (
{
name = bottom;
pos = (453,0);
},
{
name = ogonek;
pos = (489,0);
},
{
name = top;
pos = (462,750);
}
);
layerId = "3ED9E848-BE83-4CAC-8EFF-D71BD2B4F667";
shapes = (
{
closed = 1;
nodes = (
(272,309,l),
(812,309,l),
(822,354,o),
(828,396,o),
(828,437,cs),
(828,639,o),
(680,767,o),
(440,767,cs),
(203,767,o),
(45,617,o),
(45,383,cs),
(45,119,o),
(209,-18,o),
(456,-18,cs),
(627,-18,o),
(792,59,o),
(840,210,c),
(626,308,l),
(605,225,o),
(555,168,o),
(474,168,cs),
(338,168,o),
(299,246,o),
(299,380,cs),
(297,537,o),
(384,579,o),
(447,579,cs),
(515,579,o),
(561,551,o),
(561,489,cs),
(561,485,o),
(561,477,o),
(560,473,c),
(282,473,l)
);
}
);
width = 899;
}
);
note = e;
unicode = 101;
},
{
glyphname = f;
kernLeft = f;
kernRight = f;
lastChange = "2023-09-13 04:36:28 +0000";
layers = (
{
layerId = "F5467FAD-1970-4982-B3D3-939C01050498";
shapes = (
{
closed = 1;
nodes = (
(237,2,l),
(237,699,l),
(519,699,l),
(519,752,l),
(342,752,l),
(185,785,o),
(141,863,o),
(141,932,cs),
(141,1035,o),
(227,1092,o),
(321,1092,cs),
(407,1092,o),
(467,1043,o),
(497,995,c),
(563,1037,l),
(518,1079,o),
(423,1119,o),
(321,1119,cs),
(147,1119,o),
(87,1011,o),
(87,938,cs),
(87,855,o),
(141,771,o),
(264,752,c),
(14,752,l),
(14,699,l),
(173,699,l),
(171,2,l)
);
}
);
width = 551;
},
{
layerId = "6DD95C5A-998B-41AB-BDFB-84A73C209871";
shapes = (
{
closed = 1;
nodes = (
(369,0,l),
(369,578,l),
(603,578,l),
(603,752,l),
(411,752,ls),
(327,752,o),
(282,807,o),
(282,858,cs),
(282,924,o),
(323,966,o),
(401,966,cs),
(488,966,o),
(515,890,o),
(528,866,c),
(723,948,l),
(699,986,o),
(594,1107,o),
(401,1107,cs),
(189,1107,o),
(72,1011,o),
(72,879,cs),
(72,800,o),
(119,764,o),
(140,752,c),
(11,752,l),
(11,578,l),
(143,578,l),
(141,0,l)
);
}
);
width = 596;
},
{
layerId = "1FDC7037-1F88-4969-8535-0F79C1EF19DB";
shapes = (
{
closed = 1;
nodes = (
(216,2,l),
(216,719,l),
(506,719,l),
(506,752,l),
(332,752,l),
(162,791,o),
(119,872,o),
(119,944,cs),
(119,1053,o),
(212,1112,o),
(309,1112,cs),
(393,1112,o),
(459,1067,o),
(492,1016,c),
(537,1050,l),
(489,1094,o),
(396,1121,o),
(309,1121,cs),
(141,1121,o),
(90,1011,o),
(90,947,cs),
(90,864,o),
(144,773,o),
(284,752,c),
(14,752,l),
(14,719,l),
(177,719,l),
(176,2,l)
);
}
);
width = 543;
},
{
layerId = "3ED9E848-BE83-4CAC-8EFF-D71BD2B4F667";
shapes = (
{
closed = 1;
nodes = (
(402,0,l),
(402,548,l),
(624,548,l),
(624,752,l),
(428,752,l),
(362,744,o),
(317,794,o),
(317,840,cs),
(317,897,o),
(347,935,o),
(420,935,cs),
(507,935,o),
(527,852,o),
(536,834,c),
(762,927,l),
(744,963,o),
(636,1104,o),
(420,1104,cs),
(200,1104,o),
(69,1011,o),
(69,864,cs),
(69,786,o),
(113,762,o),
(110,752,c),
(11,752,l),
(11,548,l),
(135,548,l),
(134,0,l)
);
}
);
width = 607;
}
);
note = f;
unicode = 102;
},
{
glyphname = g;
kernLeft = a;
kernRight = a;
lastChange = "2023-09-13 04:36:28 +0000";
layers = (
{
anchors = (
{
name = top;
pos = (462,750);
}
);
layerId = "F5467FAD-1970-4982-B3D3-939C01050498";
shapes = (
{
closed = 1;
nodes = (
(638,-388,o),
(800,-262,o),
(800,-1,c),
(732,-1,l),
(732,-229,o),
(594,-345,o),
(423,-345,cs),
(261,-345,o),
(189,-265,o),
(152,-192,c),
(86,-207,l),
(132,-310,o),
(231,-388,o),
(423,-388,cs)
);
},
{
closed = 1;
nodes = (
(732,750,l),
(732,573,l),
(756,372,l),
(732,174,l),
(732,-1,l),
(800,-1,l),
(798,750,l)
);
},
{
closed = 1;
nodes = (
(191,768,o),
(45,600,o),
(45,372,cs),
(45,146,o),
(191,-19,o),
(419,-19,cs),
(651,-19,o),
(758,195,o),
(758,372,cs),
(758,548,o),
(659,768,o),
(419,768,cs)
);
},
{
closed = 1;
nodes = (
(600,723,o),
(750,590,o),
(750,372,cs),
(750,159,o),
(599,24,o),
(417,24,cs),
(233,24,o),
(113,182,o),
(113,372,cs),
(113,566,o),
(236,723,o),
(419,723,cs)
);
}
);
width = 875;
},
{
anchors = (
{
name = top;
pos = (492,750);
}
);
layerId = "6DD95C5A-998B-41AB-BDFB-84A73C209871";
shapes = (
{
closed = 1;
nodes = (
(728,-390,o),
(905,-238,o),
(905,12,c),
(675,12,l),
(675,-142,o),
(597,-223,o),
(476,-223,cs),
(362,-223,o),
(323,-168,o),
(294,-87,c),
(77,-129,l),
(105,-255,o),
(227,-390,o),
(476,-390,cs)
);
},
{
closed = 1;
nodes = (
(675,750,l),
(675,711,l),
(705,372,l),
(675,65,l),
(675,12,l),
(905,12,l),
(903,750,l)
);
},
{
closed = 1;
nodes = (
(188,764,o),
(30,584,o),
(30,372,cs),
(30,159,o),
(188,-18,o),
(426,-18,cs),
(656,-18,o),
(716,113,o),
(716,372,cs),
(716,633,o),
(669,764,o),
(426,764,cs)
);
},
{
closed = 1;
nodes = (
(602,597,o),
(687,521,o),
(687,372,cs),
(687,225,o),
(602,147,o),
(468,147,cs),
(344,147,o),
(272,239,o),
(272,372,cs),
(272,507,o),
(344,597,o),
(468,597,cs)
);
}
);
width = 957;
},
{
anchors = (
{
name = top;
pos = (462,750);
}
);
associatedMasterId = "F5467FAD-1970-4982-B3D3-939C01050498";
layerId = "1A3D1C02-0D7E-4115-85FD-4E4657FDD924";
name = "24 juil. 23  14:37";
shapes = (
{
closed = 1;
nodes = (
(642,-388,o),
(804,-262,o),
(804,-1,c),
(803,750,l),
(737,750,l),
(737,573,l),
(746,482,l),
(711,628,o),
(605,768,o),
(419,768,cs),
(191,768,o),
(45,600,o),
(45,372,cs),
(45,146,o),
(191,-21,o),
(419,-21,cs),
(605,-21,o),
(711,117,o),
(746,262,c),
(736,153,l),
(736,-1,ls),
(736,-229,o),
(598,-345,o),
(427,-345,cs),
(265,-345,o),
(193,-265,o),
(156,-192,c),
(90,-207,l),
(136,-310,o),
(235,-388,o),
(427,-388,cs)
);
},
{
closed = 1;
nodes = (
(234,24,o),
(112,182,o),
(112,372,cs),
(112,566,o),
(236,723,o),
(419,723,cs),
(600,723,o),
(751,590,o),
(751,372,cs),
(751,158,o),
(600,24,o),
(418,24,cs)
);
}
);
width = 879;
},
{
anchors = (
{
name = top;
pos = (492,750);
}
);
associatedMasterId = "6DD95C5A-998B-41AB-BDFB-84A73C209871";
layerId = "EF031D6A-BAE9-4606-BB20-E753BE158385";
name = "24 juil. 23  14:37";
shapes = (
{
closed = 1;
nodes = (
(728,-390,o),
(905,-238,o),
(905,12,c),
(903,750,l),
(675,750,l),
(675,716,l),
(675,680,l),
(619,730,o),
(543,764,o),
(441,764,cs),
(201,764,o),
(45,584,o),
(45,372,cs),
(45,159,o),
(203,-18,o),
(441,-18,cs),
(543,-18,o),
(619,15,o),
(675,65,c),
(675,39,l),
(675,12,ls),
(675,-142,o),
(597,-223,o),
(476,-223,cs),
(362,-223,o),
(323,-168,o),
(294,-87,c),
(77,-129,l),
(105,-255,o),
(227,-390,o),
(476,-390,cs)
);
},
{
closed = 1;
nodes = (
(347,147,o),
(275,239,o),
(275,372,cs),
(275,507,o),
(347,597,o),
(471,597,cs),
(605,597,o),
(690,521,o),
(690,372,cs),
(690,225,o),
(605,147,o),
(471,147,cs)
);
}
);
width = 980;
},
{
anchors = (
{
name = top;
pos = (458,750);
}
);
layerId = "1FDC7037-1F88-4969-8535-0F79C1EF19DB";
shapes = (
{
closed = 1;
nodes = (
(623,-388,o),
(783,-267,o),
(783,-3,c),
(741,-3,l),
(741,-243,o),
(594,-364,o),
(414,-364,cs),
(245,-364,o),
(168,-280,o),
(129,-208,c),
(87,-219,l),
(137,-319,o),
(231,-388,o),
(414,-388,cs)
);
},
{
closed = 1;
nodes = (
(741,750,l),
(741,551,l),
(764,372,l),
(741,192,l),
(741,-3,l),
(783,-3,l),
(782,750,l)
);
},
{
closed = 1;
nodes = (
(191,768,o),
(48,603,o),
(48,372,cs),
(48,144,o),
(191,-19,o),
(417,-19,cs),
(651,-19,o),
(764,209,o),
(764,372,cs),
(764,534,o),
(657,768,o),
(417,768,cs)
);
},
{
closed = 1;
nodes = (
(600,743,o),
(761,600,o),
(761,372,cs),
(761,149,o),
(599,5,o),
(410,5,cs),
(215,5,o),
(87,173,o),
(87,372,cs),
(87,575,o),
(218,743,o),
(411,743,cs)
);
}
);
width = 861;
},
{
anchors = (
{
name = top;
pos = (500,750);
}
);
layerId = "3ED9E848-BE83-4CAC-8EFF-D71BD2B4F667";
shapes = (
{
closed = 1;
nodes = (
(750,-390,o),
(930,-232,o),
(930,15,c),
(662,15,l),
(662,-121,o),
(597,-193,o),
(489,-193,cs),
(387,-193,o),
(356,-144,o),
(329,-61,c),
(75,-109,l),
(99,-241,o),
(225,-390,o),
(489,-390,cs)
);
},
{
closed = 1;
nodes = (
(662,750,l),
(662,746,l),
(693,372,l),
(662,38,l),
(662,15,l),
(930,15,l),
(929,750,l)
);
},
{
closed = 1;
nodes = (
(188,762,o),
(27,579,o),
(27,372,cs),
(27,162,o),
(188,-18,o),
(428,-18,cs),
(657,-18,o),
(705,92,o),
(705,372,cs),
(705,654,o),
(672,762,o),
(428,762,cs)
);
},
{
closed = 1;
nodes = (
(602,566,o),
(672,504,o),
(672,372,cs),
(672,242,o),
(602,177,o),
(480,177,cs),
(371,177,o),
(311,252,o),
(311,372,cs),
(311,492,o),
(371,566,o),
(480,566,cs)
);
}
);
width = 977;
}
);
note = g;
unicode = 103;
},
{
glyphname = h;
kernLeft = b;
kernRight = a;
lastChange = "2023-09-13 04:36:28 +0000";
layers = (
{
anchors = (
{
name = bottom;
pos = (428,0);
},
{
name = top;
pos = (428,1050);
}
);
layerId = "F5467FAD-1970-4982-B3D3-939C01050498";
shapes = (
{
closed = 1;
nodes = (
(141,0,l),
(141,416,l),
(167,630,o),
(327,722,o),
(461,722,cs),
(648,722,o),
(716,597,o),
(716,456,cs),
(716,2,l),
(782,2,l),
(782,456,ls),
(782,614,o),
(723,759,o),
(480,759,cs),
(337,759,o),
(186,653,o),
(141,514,c),
(141,1050,l),
(75,1050,l),
(75,0,l)
);
}
);
width = 858;
},
{
anchors = (
{
name = bottom;
pos = (465,0);
},
{
name = top;
pos = (465,1050);
}
);
layerId = "6DD95C5A-998B-41AB-BDFB-84A73C209871";
shapes = (
{
closed = 1;
nodes = (
(296,0,l),
(296,359,l),
(296,532,o),
(401,599,o),
(495,599,cs),
(590,599,o),
(622,542,o),
(622,441,cs),
(622,0,l),
(855,0,l),
(855,441,ls),
(855,587,o),
(790,761,o),
(512,761,cs),
(415,761,o),
(344,726,o),
(296,671,c),
(296,1050,l),
(68,1050,l),
(68,0,l)
);
}
);
width = 930;
},
{
anchors = (
{
name = bottom;
pos = (422,0);
},
{
name = top;
pos = (422,1050);
}
);
layerId = "1FDC7037-1F88-4969-8535-0F79C1EF19DB";
shapes = (
{
closed = 1;
nodes = (
(117,0,l),
(117,425,l),
(146,645,o),
(315,741,o),
(455,741,cs),
(657,741,o),
(731,606,o),
(731,459,cs),
(731,2,l),
(770,2,l),
(770,459,ls),
(770,618,o),
(713,759,o),
(476,759,cs),
(324,759,o),
(161,642,o),
(117,489,c),
(117,1050,l),
(77,1050,l),
(77,0,l)
);
}
);
width = 846;
},
{
anchors = (
{
name = bottom;
pos = (474,0);
},
{
name = top;
pos = (474,1050);
}
);
layerId = "3ED9E848-BE83-4CAC-8EFF-D71BD2B4F667";
shapes = (
{
closed = 1;
nodes = (
(333,0,l),
(333,345,l),
(327,509,o),
(419,569,o),
(504,569,cs),
(576,569,o),
(599,528,o),
(599,438,cs),
(599,0,l),
(873,0,l),
(873,438,ls),
(873,581,o),
(807,761,o),
(519,761,cs),
(434,761,o),
(384,744,o),
(333,710,c),
(333,1050,l),
(66,1050,l),
(66,0,l)
);
}
);
width = 948;
}
);
note = h;
unicode = 104;
},
{
glyphname = hbar;
lastChange = "2023-09-13 04:36:28 +0000";
layers = (
{
layerId = "F5467FAD-1970-4982-B3D3-939C01050498";
shapes = (
{
closed = 1;
nodes = (
(284,947,l),
(14,947,l),
(14,884,l),
(284,884,l)
);
},
{
ref = h;
}
);
width = 858;
},
{
layerId = "6DD95C5A-998B-41AB-BDFB-84A73C209871";
shapes = (
{
closed = 1;
nodes = (
(513,972,l),
(14,972,l),
(14,830,l),
(513,830,l)
);
},
{
ref = h;
}
);
width = 930;
},
{
layerId = "1FDC7037-1F88-4969-8535-0F79C1EF19DB";
shapes = (
{
closed = 1;
nodes = (
(248,942,l),
(14,942,l),
(14,893,l),
(248,893,l)
);
},
{
alignment = -1;
ref = h;
}
);
width = 846;
},
{
layerId = "3ED9E848-BE83-4CAC-8EFF-D71BD2B4F667";
shapes = (
{
closed = 1;
nodes = (
(570,978,l),
(14,978,l),
(14,816,l),
(570,816,l)
);
},
{
alignment = -1;
ref = h;
}
);
width = 948;
}
);
unicode = 295;
},
{
glyphname = dotlessi;
kernLeft = i;
kernRight = i;
lastChange = "2023-09-13 04:36:28 +0000";
layers = (
{
anchors = (
{
name = bottom;
pos = (153,0);
},
{
name = ogonek;
pos = (120,0);
},
{
name = top;
pos = (153,750);
}
);
layerId = "F5467FAD-1970-4982-B3D3-939C01050498";
shapes = (
{
closed = 1;
nodes = (
(186,0,l),
(186,750,l),
(120,750,l),
(120,0,l)
);
}
);
width = 306;
},
{
anchors = (
{
name = bottom;
pos = (234,0);
},
{
name = ogonek;
pos = (120,0);
},
{
name = top;
pos = (234,750);
}
);
layerId = "6DD95C5A-998B-41AB-BDFB-84A73C209871";
shapes = (
{
closed = 1;
nodes = (
(348,0,l),
(348,750,l),
(120,750,l),
(120,0,l)
);
}
);
width = 468;
},
{
anchors = (
{
name = bottom;
pos = (140,0);
},
{
name = ogonek;
pos = (120,0);
},
{
name = top;
pos = (140,750);
}
);
layerId = "1FDC7037-1F88-4969-8535-0F79C1EF19DB";
shapes = (
{
closed = 1;
nodes = (
(161,0,l),
(161,750,l),
(120,750,l),
(120,0,l)
);
}
);
width = 280;
},
{
anchors = (
{
name = bottom;
pos = (254,0);
},
{
name = ogonek;
pos = (120,0);
},
{
name = top;
pos = (254,750);
}
);
layerId = "3ED9E848-BE83-4CAC-8EFF-D71BD2B4F667";
shapes = (
{
closed = 1;
nodes = (
(389,0,l),
(389,750,l),
(120,750,l),
(120,0,l)
);
}
);
width = 508;
}
);
note = dotlessi;
unicode = 305;
},
{
glyphname = jdotless;
lastChange = "2023-09-13 04:36:28 +0000";
layers = (
{
anchors = (
{
name = top;
pos = (153,750);
}
);
layerId = "F5467FAD-1970-4982-B3D3-939C01050498";
shapes = (
{
closed = 1;
nodes = (
(150,-390,o),
(186,-202,o),
(186,-105,cs),
(186,750,l),
(120,750,l),
(120,-105,ls),
(120,-280,o),
(51,-348,o),
(-88,-348,cs),
(-166,-348,o),
(-217,-307,o),
(-256,-264,c),
(-313,-304,l),
(-270,-348,o),
(-204,-390,o),
(-88,-390,cs)
);
}
);
width = 306;
},
{
anchors = (
{
name = top;
pos = (234,750);
}
);
layerId = "6DD95C5A-998B-41AB-BDFB-84A73C209871";
shapes = (
{
closed = 1;
nodes = (
(279,-390,o),
(348,-216,o),
(348,-93,cs),
(348,750,l),
(120,750,l),
(120,-93,ls),
(120,-157,o),
(90,-214,o),
(3,-214,cs),
(-69,-214,o),
(-87,-144,o),
(-96,-108,c),
(-262,-234,l),
(-234,-274,o),
(-142,-390,o),
(33,-390,cs)
);
}
);
width = 468;
},
{
anchors = (
{
name = top;
pos = (140,750);
}
);
layerId = "1FDC7037-1F88-4969-8535-0F79C1EF19DB";
shapes = (
{
closed = 1;
nodes = (
(129,-390,o),
(161,-201,o),
(161,-106,cs),
(161,750,l),
(120,750,l),
(120,-106,ls),
(120,-300,o),
(45,-369,o),
(-103,-369,cs),
(-181,-369,o),
(-238,-333,o),
(-282,-289,c),
(-321,-316,l),
(-276,-360,o),
(-214,-390,o),
(-108,-390,cs)
);
}
);
width = 280;
},
{
anchors = (
{
name = top;
pos = (254,750);
}
);
layerId = "3ED9E848-BE83-4CAC-8EFF-D71BD2B4F667";
shapes = (
{
closed = 1;
nodes = (
(311,-390,o),
(389,-219,o),
(389,-90,cs),
(389,750,l),
(120,750,l),
(120,-90,ls),
(120,-127,o),
(99,-181,o),
(26,-181,cs),
(-45,-181,o),
(-55,-103,o),
(-57,-69,c),
(-250,-216,l),
(-225,-256,o),
(-127,-390,o),
(63,-390,cs)
);
}
);
width = 508;
}
);
unicode = 567;
},
{
glyphname = k;
kernLeft = b;
kernRight = k;
lastChange = "2023-09-13 04:36:28 +0000";
layers = (
{
anchors = (
{
name = bottom;
pos = (321,0);
},
{
name = top;
pos = (321,750);
}
);
layerId = "F5467FAD-1970-4982-B3D3-939C01050498";
shapes = (
{
closed = 1;
nodes = (
(141,0,l),
(141,306,l),
(125,252,l),
(326,461,l),
(287,458,l),
(593,0,l),
(671,0,l),
(335,507,l),
(326,461,l),
(605,750,l),
(525,750,l),
(122,332,l),
(141,332,l),
(141,1050,l),
(75,1050,l),
(75,0,l)
);
}
);
width = 701;
},
{
anchors = (
{
name = bottom;
pos = (447,0);
},
{
name = top;
pos = (447,750);
}
);
layerId = "6DD95C5A-998B-41AB-BDFB-84A73C209871";
shapes = (
{
closed = 1;
nodes = (
(303,0,l),
(303,225,l),
(263,144,l),
(488,381,l),
(329,390,l),
(587,0,l),
(842,0,l),
(482,548,l),
(488,381,l),
(831,750,l),
(576,750,l),
(279,438,l),
(303,438,l),
(303,1050,l),
(75,1050,l),
(75,0,l)
);
}
);
width = 872;
},
{
anchors = (
{
name = bottom;
pos = (302,0);
},
{
name = top;
pos = (302,750);
}
);
layerId = "1FDC7037-1F88-4969-8535-0F79C1EF19DB";
shapes = (
{
closed = 1;
nodes = (
(116,0,l),
(116,320,l),
(102,270,l),
(300,473,l),
(281,468,l),
(594,0,l),
(644,0,l),
(311,501,l),
(300,473,l),
(569,750,l),
(518,750,l),
(96,315,l),
(116,315,l),
(116,1050,l),
(75,1050,l),
(75,0,l)
);
}
);
width = 673;
},
{
anchors = (
{
name = bottom;
pos = (479,0);
},
{
name = top;
pos = (479,750);
}
);
layerId = "3ED9E848-BE83-4CAC-8EFF-D71BD2B4F667";
shapes = (
{
closed = 1;
nodes = (
(344,0,l),
(344,206,l),
(297,117,l),
(528,362,l),
(339,374,l),
(585,0,l),
(884,0,l),
(518,558,l),
(528,362,l),
(887,750,l),
(588,750,l),
(318,464,l),
(344,464,l),
(344,1050,l),
(75,1050,l),
(75,0,l)
);
}
);
width = 914;
}
);
note = k;
unicode = 107;
},
{
glyphname = kgreenlandic;
lastChange = "2023-09-13 04:36:28 +0000";
layers = (
{
layerId = "F5467FAD-1970-4982-B3D3-939C01050498";
shapes = (
{
closed = 1;
nodes = (
(141,0,l),
(141,306,l),
(125,252,l),
(326,461,l),
(287,458,l),
(593,0,l),
(671,0,l),
(335,507,l),
(326,461,l),
(605,750,l),
(525,750,l),
(122,332,l),
(141,332,l),
(141,750,l),
(75,750,l),
(75,0,l)
);
}
);
width = 701;
},
{
layerId = "6DD95C5A-998B-41AB-BDFB-84A73C209871";
shapes = (
{
closed = 1;
nodes = (
(303,0,l),
(303,225,l),
(263,144,l),
(488,381,l),
(329,390,l),
(587,0,l),
(842,0,l),
(482,548,l),
(488,381,l),
(831,750,l),
(576,750,l),
(279,438,l),
(303,438,l),
(303,750,l),
(75,750,l),
(75,0,l)
);
}
);
width = 872;
},
{
layerId = "1FDC7037-1F88-4969-8535-0F79C1EF19DB";
shapes = (
{
closed = 1;
nodes = (
(116,0,l),
(116,320,l),
(102,270,l),
(300,473,l),
(281,468,l),
(594,0,l),
(644,0,l),
(311,501,l),
(300,473,l),
(569,750,l),
(518,750,l),
(96,315,l),
(116,315,l),
(116,750,l),
(75,750,l),
(75,0,l)
);
}
);
width = 673;
},
{
layerId = "3ED9E848-BE83-4CAC-8EFF-D71BD2B4F667";
shapes = (
{
closed = 1;
nodes = (
(344,0,l),
(344,206,l),
(297,117,l),
(528,362,l),
(339,374,l),
(585,0,l),
(884,0,l),
(518,558,l),
(528,362,l),
(887,750,l),
(588,750,l),
(318,464,l),
(344,464,l),
(344,750,l),
(75,750,l),
(75,0,l)
);
}
);
width = 914;
}
);
metricLeft = k;
metricRight = k;
unicode = 312;
},
{
glyphname = l;
kernLeft = b;
kernRight = l;
lastChange = "2023-09-13 04:36:28 +0000";
layers = (
{
anchors = (
{
name = bottom;
pos = (153,0);
},
{
name = top;
pos = (153,1050);
}
);
layerId = "F5467FAD-1970-4982-B3D3-939C01050498";
shapes = (
{
closed = 1;
nodes = (
(186,0,l),
(186,1050,l),
(120,1050,l),
(120,0,l)
);
}
);
width = 306;
},
{
anchors = (
{
name = bottom;
pos = (234,0);
},
{
name = top;
pos = (234,1050);
}
);
layerId = "6DD95C5A-998B-41AB-BDFB-84A73C209871";
shapes = (
{
closed = 1;
nodes = (
(348,0,l),
(348,1050,l),
(120,1050,l),
(120,0,l)
);
}
);
width = 468;
},
{
anchors = (
{
name = bottom;
pos = (140,0);
},
{
name = top;
pos = (140,1050);
}
);
layerId = "1FDC7037-1F88-4969-8535-0F79C1EF19DB";
shapes = (
{
closed = 1;
nodes = (
(161,0,l),
(161,1050,l),
(120,1050,l),
(120,0,l)
);
}
);
width = 280;
},
{
anchors = (
{
name = bottom;
pos = (254,0);
},
{
name = top;
pos = (254,1050);
}
);
layerId = "3ED9E848-BE83-4CAC-8EFF-D71BD2B4F667";
shapes = (
{
closed = 1;
nodes = (
(389,0,l),
(389,1050,l),
(120,1050,l),
(120,0,l)
);
}
);
width = 508;
}
);
note = l;
unicode = 108;
},
{
glyphname = lslash;
lastChange = "2023-09-13 04:36:28 +0000";
layers = (
{
layerId = "F5467FAD-1970-4982-B3D3-939C01050498";
shapes = (
{
closed = 1;
nodes = (
(311,0,l),
(311,572,l),
(582,650,l),
(582,705,l),
(311,627,l),
(311,1050,l),
(245,1050,l),
(245,608,l),
(126,575,l),
(126,519,l),
(245,553,l),
(245,0,l)
);
}
);
width = 708;
},
{
layerId = "6DD95C5A-998B-41AB-BDFB-84A73C209871";
shapes = (
{
closed = 1;
nodes = (
(500,0,l),
(500,546,l),
(630,584,l),
(629,768,l),
(500,731,l),
(500,1050,l),
(272,1050,l),
(272,666,l),
(78,611,l),
(80,426,l),
(272,481,l),
(272,0,l)
);
}
);
width = 708;
},
{
layerId = "1FDC7037-1F88-4969-8535-0F79C1EF19DB";
shapes = (
{
closed = 1;
nodes = (
(281,0,l),
(281,576,l),
(575,660,l),
(575,695,l),
(281,611,l),
(281,1050,l),
(240,1050,l),
(240,599,l),
(134,569,l),
(134,534,l),
(240,564,l),
(240,0,l)
);
}
);
width = 708;
},
{
layerId = "3ED9E848-BE83-4CAC-8EFF-D71BD2B4F667";
shapes = (
{
closed = 1;
nodes = (
(546,0,l),
(546,540,l),
(642,567,l),
(641,783,l),
(546,756,l),
(546,1050,l),
(278,1050,l),
(278,680,l),
(66,620,l),
(68,404,l),
(278,464,l),
(278,0,l)
);
}
);
width = 708;
}
);
note = lslash;
unicode = 322;
},
{
glyphname = m;
kernLeft = m;
kernRight = a;
lastChange = "2023-09-13 04:36:28 +0000";
layers = (
{
anchors = (
{
name = bottom;
pos = (732,0);
},
{
name = top;
pos = (732,1050);
}
);
background = {
shapes = (
{
closed = 1;
nodes = (
(141,0,l),
(141,428,l),
(171,633,o),
(326,722,o),
(453,722,cs),
(641,722,o),
(705,596,o),
(705,456,cs),
(705,0,l),
(771,0,l),
(771,428,l),
(801,633,o),
(959,722,o),
(1089,722,cs),
(1277,722,o),
(1343,597,o),
(1343,456,cs),
(1343,0,l),
(1409,0,l),
(1409,456,ls),
(1409,614,o),
(1350,765,o),
(1107,765,cs),
(947,765,o),
(807,650,o),
(770,503,c),
(758,642,o),
(687,765,o),
(473,765,cs),
(330,765,o),
(192,668,o),
(141,537,c),
(141,750,l),
(75,750,l),
(75,0,l)
);
}
);
};
layerId = "F5467FAD-1970-4982-B3D3-939C01050498";
shapes = (
{
closed = 1;
nodes = (
(336,761,o),
(186,684,o),
(141,515,c),
(141,750,l),
(75,750,l),
(75,2,l),
(141,2,l),
(141,350,ls),
(141,633,o),
(335,708,o),
(468,708,cs),
(641,708,o),
(701,597,o),
(701,456,cs),
(701,2,l),
(767,2,l),
(767,456,ls),
(767,614,o),
(723,761,o),
(480,761,cs)
);
},
{
closed = 1;
nodes = (
(963,761,o),
(764,684,o),
(743,423,c),
(767,350,l),
(767,633,o),
(962,708,o),
(1095,708,cs),
(1283,708,o),
(1343,597,o),
(1343,456,cs),
(1343,2,l),
(1409,2,l),
(1409,456,ls),
(1409,614,o),
(1350,761,o),
(1107,761,cs)
);
}
);
width = 1464;
},
{
anchors = (
{
name = bottom;
pos = (720,0);
},
{
name = top;
pos = (720,1050);
}
);
background = {
shapes = (
{
closed = 1;
nodes = (
(296,0,l),
(296,359,l),
(296,533,o),
(401,599,o),
(495,599,cs),
(590,599,o),
(623,542,o),
(623,441,cs),
(623,0,l),
(855,0,l),
(855,429,l),
(879,551,o),
(968,602,o),
(1050,602,cs),
(1146,602,o),
(1179,542,o),
(1179,441,cs),
(1179,0,l),
(1416,0,l),
(1416,441,ls),
(1416,587,o),
(1350,764,o),
(1067,764,cs),
(947,764,o),
(861,708,o),
(809,627,c),
(761,704,o),
(672,761,o),
(512,761,cs),
(416,761,o),
(345,726,o),
(296,671,c),
(296,750,l),
(68,750,l),
(68,0,l)
);
}
);
};
layerId = "6DD95C5A-998B-41AB-BDFB-84A73C209871";
shapes = (
{
closed = 1;
nodes = (
(416,761,o),
(320,711,o),
(296,633,c),
(296,750,l),
(68,750,l),
(68,0,l),
(296,0,l),
(296,404,ls),
(296,540,o),
(390,599,o),
(485,599,cs),
(564,599,o),
(608,542,o),
(608,441,cs),
(608,0,l),
(840,0,l),
(840,441,ls),
(840,587,o),
(776,761,o),
(512,761,cs)
);
},
{
closed = 1;
nodes = (
(849,761,o),
(777,593,o),
(755,477,c),
(840,404,l),
(840,540,o),
(935,599,o),
(1029,599,cs),
(1124,599,o),
(1167,542,o),
(1167,441,cs),
(1167,0,l),
(1400,0,l),
(1400,441,ls),
(1400,587,o),
(1335,761,o),
(1056,761,cs)
);
}
);
width = 1491;
},
{
associatedMasterId = "F5467FAD-1970-4982-B3D3-939C01050498";
layerId = "64CD0211-15FE-4936-BA61-E1070913194B";
name = "23 juil. 23  22:09";
shapes = (
{
closed = 1;
nodes = (
(141,0,l),
(141,427,l),
(171,633,o),
(325,722,o),
(453,722,cs),
(641,722,o),
(705,596,o),
(705,456,cs),
(705,0,l),
(771,0,l),
(771,427,l),
(801,633,o),
(958,722,o),
(1089,722,cs),
(1277,722,o),
(1343,597,o),
(1343,456,cs),
(1343,0,l),
(1409,0,l),
(1409,456,ls),
(1409,614,o),
(1350,765,o),
(1107,765,cs),
(946,765,o),
(807,649,o),
(769,503,c),
(757,642,o),
(687,765,o),
(473,765,cs),
(330,765,o),
(191,667,o),
(141,536,c),
(141,750,l),
(75,750,l),
(75,0,l)
);
}
);
width = 1464;
},
{
associatedMasterId = "6DD95C5A-998B-41AB-BDFB-84A73C209871";
layerId = "1D003824-EE15-49CD-8401-78CCFECE2030";
name = "23 juil. 23  22:09";
shapes = (
{
closed = 1;
nodes = (
(296,0,l),
(296,359,l),
(296,532,o),
(401,599,o),
(495,599,cs),
(590,599,o),
(622,542,o),
(622,441,cs),
(622,0,l),
(855,0,l),
(855,430,l),
(879,551,o),
(968,602,o),
(1049,602,cs),
(1146,602,o),
(1179,542,o),
(1179,441,cs),
(1179,0,l),
(1416,0,l),
(1416,441,ls),
(1416,587,o),
(1351,764,o),
(1066,764,cs),
(946,764,o),
(861,709,o),
(808,627,c),
(761,703,o),
(672,761,o),
(512,761,cs),
(415,761,o),
(344,726,o),
(296,671,c),
(296,750,l),
(68,750,l),
(68,0,l)
);
}
);
width = 1491;
},
{
anchors = (
{
name = bottom;
pos = (734,0);
},
{
name = top;
pos = (734,1050);
}
);
layerId = "1FDC7037-1F88-4969-8535-0F79C1EF19DB";
shapes = (
{
closed = 1;
nodes = (
(324,761,o),
(165,680,o),
(117,495,c),
(117,750,l),
(77,750,l),
(77,2,l),
(117,2,l),
(117,341,ls),
(117,648,o),
(326,726,o),
(465,726,cs),
(653,726,o),
(716,606,o),
(716,459,cs),
(716,2,l),
(755,2,l),
(755,459,ls),
(755,618,o),
(714,761,o),
(476,761,cs)
);
},
{
closed = 1;
nodes = (
(981,761,o),
(762,699,o),
(741,414,c),
(755,341,l),
(755,648,o),
(966,726,o),
(1106,726,cs),
(1308,726,o),
(1371,606,o),
(1371,459,cs),
(1371,2,l),
(1410,2,l),
(1410,459,ls),
(1410,618,o),
(1353,761,o),
(1115,761,cs)
);
}
);
width = 1460;
},
{
anchors = (
{
name = bottom;
pos = (717,0);
},
{
name = top;
pos = (717,1050);
}
);
layerId = "3ED9E848-BE83-4CAC-8EFF-D71BD2B4F667";
shapes = (
{
closed = 1;
nodes = (
(435,761,o),
(353,717,o),
(333,662,c),
(333,750,l),
(66,750,l),
(66,0,l),
(333,0,l),
(333,417,ls),
(333,518,o),
(404,572,o),
(489,572,cs),
(545,572,o),
(585,528,o),
(585,438,cs),
(585,0,l),
(858,0,l),
(858,438,ls),
(858,581,o),
(789,761,o),
(519,761,cs)
);
},
{
closed = 1;
nodes = (
(821,761,o),
(780,570,o),
(758,491,c),
(858,417,l),
(858,518,o),
(929,572,o),
(1013,572,cs),
(1085,572,o),
(1124,528,o),
(1124,438,cs),
(1124,0,l),
(1398,0,l),
(1398,438,ls),
(1398,581,o),
(1332,761,o),
(1044,761,cs)
);
}
);
width = 1498;
}
);
note = m;
unicode = 109;
},
{
glyphname = n;
kernLeft = m;
kernRight = a;
lastChange = "2023-09-13 04:36:28 +0000";
layers = (
{
anchors = (
{
name = bottom;
pos = (435,0);
},
{
name = top;
pos = (420,750);
}
);
layerId = "F5467FAD-1970-4982-B3D3-939C01050498";
shapes = (
{
closed = 1;
nodes = (
(336,761,o),
(186,684,o),
(141,515,c),
(141,750,l),
(75,750,l),
(75,0,l),
(141,0,l),
(141,350,ls),
(141,633,o),
(335,708,o),
(468,708,cs),
(656,708,o),
(716,597,o),
(716,456,cs),
(716,0,l),
(782,0,l),
(782,456,ls),
(782,614,o),
(723,761,o),
(480,761,cs)
);
}
);
width = 857;
},
{
anchors = (
{
name = bottom;
pos = (450,0);
},
{
name = top;
pos = (435,750);
}
);
layerId = "6DD95C5A-998B-41AB-BDFB-84A73C209871";
shapes = (
{
closed = 1;
nodes = (
(416,761,o),
(320,711,o),
(296,633,c),
(296,750,l),
(68,750,l),
(68,0,l),
(296,0,l),
(296,404,ls),
(296,540,o),
(390,599,o),
(485,599,cs),
(579,599,o),
(623,542,o),
(623,441,cs),
(622,0,l),
(855,0,l),
(855,441,ls),
(855,587,o),
(791,761,o),
(512,761,cs)
);
}
);
width = 900;
},
{
associatedMasterId = "F5467FAD-1970-4982-B3D3-939C01050498";
layerId = "3C353789-449F-4092-BEE0-4CA981632AB3";
name = "23 juil. 23  22:05";
shapes = (
{
closed = 1;
nodes = (
(336,761,o),
(186,654,o),
(141,515,c),
(141,750,l),
(75,750,l),
(75,2,l),
(141,2,l),
(141,416,l),
(167,630,o),
(327,723,o),
(461,723,cs),
(648,723,o),
(716,597,o),
(716,456,cs),
(716,2,l),
(782,2,l),
(782,456,ls),
(782,614,o),
(723,761,o),
(480,761,cs)
);
}
);
width = 857;
},
{
associatedMasterId = "6DD95C5A-998B-41AB-BDFB-84A73C209871";
layerId = "7BB64EC5-02E9-450E-915E-662FFD7665C3";
name = "23 juil. 23  22:05";
shapes = (
{
closed = 1;
nodes = (
(415,761,o),
(344,726,o),
(296,671,c),
(296,750,l),
(68,750,l),
(68,0,l),
(296,0,l),
(296,359,l),
(296,532,o),
(401,599,o),
(495,599,cs),
(590,599,o),
(622,542,o),
(622,441,cs),
(622,0,l),
(855,0,l),
(855,441,ls),
(855,587,o),
(790,761,o),
(512,761,cs)
);
}
);
width = 900;
},
{
anchors = (
{
name = bottom;
pos = (432,0);
},
{
name = top;
pos = (417,750);
}
);
layerId = "1FDC7037-1F88-4969-8535-0F79C1EF19DB";
shapes = (
{
closed = 1;
nodes = (
(324,761,o),
(165,680,o),
(117,495,c),
(117,750,l),
(77,750,l),
(77,0,l),
(117,0,l),
(117,341,ls),
(117,648,o),
(326,726,o),
(465,726,cs),
(668,726,o),
(731,606,o),
(731,459,cs),
(731,0,l),
(770,0,l),
(770,459,ls),
(770,618,o),
(713,761,o),
(476,761,cs)
);
}
);
width = 850;
},
{
anchors = (
{
name = bottom;
pos = (455,0);
},
{
name = top;
pos = (440,750);
}
);
layerId = "3ED9E848-BE83-4CAC-8EFF-D71BD2B4F667";
shapes = (
{
closed = 1;
nodes = (
(435,761,o),
(353,717,o),
(333,662,c),
(333,750,l),
(66,750,l),
(66,0,l),
(333,0,l),
(333,417,ls),
(333,518,o),
(404,572,o),
(489,572,cs),
(560,572,o),
(600,528,o),
(600,438,cs),
(599,0,l),
(873,0,l),
(873,438,ls),
(873,581,o),
(807,761,o),
(519,761,cs)
);
}
);
width = 911;
}
);
note = n;
unicode = 110;
},
{
glyphname = nhookleft;
lastChange = "2023-09-13 04:36:28 +0000";
layers = (
{
layerId = "F5467FAD-1970-4982-B3D3-939C01050498";
shapes = (
{
closed = 1;
nodes = (
(75,0,l),
(75,-187,ls),
(75,-238,o),
(54,-249,o),
(30,-249,cs),
(-3,-249,o),
(-45,-235,o),
(-84,-202,c),
(-90,-253,l),
(-67,-277,o),
(-19,-304,o),
(30,-304,cs),
(119,-304,o),
(141,-238,o),
(141,-187,cs),
(141,0,l)
);
},
{
ref = n;
}
);
width = 857;
},
{
layerId = "6DD95C5A-998B-41AB-BDFB-84A73C209871";
shapes = (
{
closed = 1;
nodes = (
(68,0,l),
(68,-97,ls),
(68,-148,o),
(47,-159,o),
(23,-159,cs),
(-10,-159,o),
(-52,-145,o),
(-91,-112,c),
(-91,-253,l),
(-54,-277,o),
(-1,-304,o),
(80,-304,cs),
(189,-304,o),
(296,-238,o),
(296,-97,cs),
(296,0,l)
);
},
{
ref = n;
}
);
width = 900;
},
{
layerId = "1FDC7037-1F88-4969-8535-0F79C1EF19DB";
shapes = (
{
closed = 1;
nodes = (
(77,0,l),
(77,-202,ls),
(77,-253,o),
(56,-264,o),
(32,-264,cs),
(-1,-264,o),
(-43,-250,o),
(-82,-217,c),
(-90,-253,l),
(-69,-277,o),
(-22,-304,o),
(23,-304,cs),
(107,-304,o),
(117,-238,o),
(117,-202,cs),
(117,0,l)
);
},
{
alignment = -1;
ref = n;
}
);
width = 850;
},
{
layerId = "3ED9E848-BE83-4CAC-8EFF-D71BD2B4F667";
shapes = (
{
closed = 1;
nodes = (
(66,0,l),
(66,-75,ls),
(66,-126,o),
(45,-136,o),
(21,-136,cs),
(-12,-136,o),
(-54,-123,o),
(-93,-90,c),
(-91,-253,l),
(-51,-277,o),
(3,-304,o),
(92,-304,cs),
(207,-304,o),
(333,-238,o),
(333,-75,cs),
(333,0,l)
);
},
{
alignment = -1;
ref = n;
}
);
width = 911;
}
);
unicode = 626;
},
{
glyphname = eng;
lastChange = "2023-09-13 04:36:28 +0000";
layers = (
{
layerId = "F5467FAD-1970-4982-B3D3-939C01050498";
shapes = (
{
closed = 1;
nodes = (
(716,0,l),
(716,-187,ls),
(716,-228,o),
(699,-249,o),
(647,-249,cs),
(614,-249,o),
(582,-235,o),
(543,-202,c),
(537,-253,l),
(566,-277,o),
(608,-304,o),
(657,-304,cs),
(746,-304,o),
(782,-253,o),
(782,-187,cs),
(782,0,l)
);
},
{
ref = n;
}
);
width = 857;
},
{
layerId = "6DD95C5A-998B-41AB-BDFB-84A73C209871";
shapes = (
{
closed = 1;
nodes = (
(623,0,l),
(623,-97,ls),
(623,-148,o),
(599,-159,o),
(575,-159,cs),
(542,-159,o),
(500,-145,o),
(461,-112,c),
(461,-253,l),
(498,-277,o),
(551,-304,o),
(632,-304,cs),
(741,-304,o),
(855,-238,o),
(855,-97,cs),
(855,0,l)
);
},
{
ref = n;
}
);
width = 900;
},
{
layerId = "1FDC7037-1F88-4969-8535-0F79C1EF19DB";
shapes = (
{
closed = 1;
nodes = (
(731,0,l),
(731,-202,ls),
(731,-240,o),
(716,-264,o),
(659,-264,cs),
(626,-264,o),
(596,-250,o),
(557,-217,c),
(549,-253,l),
(576,-277,o),
(617,-304,o),
(662,-304,cs),
(746,-304,o),
(770,-256,o),
(770,-202,cs),
(770,0,l)
);
},
{
alignment = -1;
ref = n;
}
);
width = 850;
},
{
layerId = "3ED9E848-BE83-4CAC-8EFF-D71BD2B4F667";
shapes = (
{
closed = 1;
nodes = (
(600,0,l),
(600,-75,ls),
(600,-129,o),
(575,-136,o),
(557,-136,cs),
(524,-136,o),
(479,-123,o),
(440,-90,c),
(441,-253,l),
(482,-277,o),
(537,-304,o),
(626,-304,cs),
(740,-304,o),
(873,-234,o),
(873,-75,cs),
(873,0,l)
);
},
{
alignment = -1;
ref = n;
}
);
width = 911;
}
);
unicode = 331;
},
{
glyphname = o;
kernLeft = a;
kernRight = o;
lastChange = "2023-09-13 04:36:28 +0000";
layers = (
{
anchors = (
{
name = bottom;
pos = (434,0);
},
{
name = ogonek;
pos = (479,0);
},
{
name = top;
pos = (434,750);
}
);
layerId = "F5467FAD-1970-4982-B3D3-939C01050498";
shapes = (
{
closed = 1;
nodes = (
(665,-21,o),
(821,147,o),
(821,371,cs),
(821,596,o),
(663,768,o),
(434,768,cs),
(203,768,o),
(45,596,o),
(45,371,cs),
(45,147,o),
(201,-21,o),
(434,-21,cs)
);
},
{
closed = 1;
nodes = (
(240,21,o),
(120,170,o),
(120,371,cs),
(120,573,o),
(240,726,o),
(432,726,cs),
(624,726,o),
(744,573,o),
(744,371,cs),
(744,170,o),
(624,21,o),
(432,21,cs)
);
}
);
width = 866;
},
{
anchors = (
{
name = bottom;
pos = (453,0);
},
{
name = ogonek;
pos = (479,0);
},
{
name = top;
pos = (453,750);
}
);
layerId = "6DD95C5A-998B-41AB-BDFB-84A73C209871";
shapes = (
{
closed = 1;
nodes = (
(694,-18,o),
(858,162,o),
(858,371,cs),
(858,581,o),
(694,765,o),
(453,765,cs),
(212,765,o),
(48,581,o),
(48,371,cs),
(48,162,o),
(212,-18,o),
(453,-18,cs)
);
},
{
closed = 1;
nodes = (
(345,140,o),
(262,215,o),
(262,371,cs),
(262,528,o),
(345,603,o),
(453,603,cs),
(561,603,o),
(644,528,o),
(644,371,cs),
(644,215,o),
(561,140,o),
(453,140,cs)
);
}
);
width = 876;
},
{
anchors = (
{
name = bottom;
pos = (431,0);
},
{
name = ogonek;
pos = (479,0);
},
{
name = top;
pos = (431,750);
}
);
layerId = "1FDC7037-1F88-4969-8535-0F79C1EF19DB";
shapes = (
{
closed = 1;
nodes = (
(660,-21,o),
(815,144,o),
(815,371,cs),
(815,599,o),
(659,768,o),
(431,768,cs),
(201,768,o),
(45,599,o),
(45,371,cs),
(45,144,o),
(200,-21,o),
(431,-21,cs)
);
},
{
closed = 1;
nodes = (
(224,2,o),
(98,162,o),
(98,371,cs),
(98,581,o),
(224,746,o),
(429,746,cs),
(635,746,o),
(761,581,o),
(761,371,cs),
(761,162,o),
(635,2,o),
(429,2,cs)
);
}
);
width = 864;
},
{
anchors = (
{
name = bottom;
pos = (458,0);
},
{
name = ogonek;
pos = (479,0);
},
{
name = top;
pos = (458,750);
}
);
layerId = "3ED9E848-BE83-4CAC-8EFF-D71BD2B4F667";
shapes = (
{
closed = 1;
nodes = (
(702,-18,o),
(867,167,o),
(867,371,cs),
(867,578,o),
(702,765,o),
(458,765,cs),
(215,765,o),
(50,578,o),
(50,371,cs),
(50,167,o),
(215,-18,o),
(458,-18,cs)
);
},
{
closed = 1;
nodes = (
(372,168,o),
(297,225,o),
(297,371,cs),
(297,518,o),
(372,573,o),
(458,573,cs),
(545,573,o),
(620,518,o),
(620,371,cs),
(620,225,o),
(545,168,o),
(458,168,cs)
);
}
);
width = 879;
}
);
note = o;
unicode = 111;
},
{
glyphname = oslash;
lastChange = "2023-09-13 04:36:28 +0000";
layers = (
{
anchors = (
{
name = top;
pos = (246,750);
}
);
layerId = "F5467FAD-1970-4982-B3D3-939C01050498";
shapes = (
{
closed = 1;
nodes = (
(216,-246,l),
(269,-246,l),
(650,1043,l),
(597,1043,l)
);
},
{
ref = o;
}
);
width = 866;
},
{
anchors = (
{
name = top;
pos = (164,750);
}
);
layerId = "6DD95C5A-998B-41AB-BDFB-84A73C209871";
shapes = (
{
closed = 1;
nodes = (
(177,-231,l),
(357,-231,l),
(731,1028,l),
(551,1028,l)
);
},
{
ref = o;
}
);
width = 876;
},
{
anchors = (
{
name = top;
pos = (260,750);
}
);
layerId = "1FDC7037-1F88-4969-8535-0F79C1EF19DB";
shapes = (
{
closed = 1;
nodes = (
(222,-249,l),
(255,-249,l),
(636,1046,l),
(605,1046,l)
);
},
{
alignment = -1;
ref = o;
}
);
width = 864;
},
{
anchors = (
{
name = top;
pos = (143,750);
}
);
layerId = "3ED9E848-BE83-4CAC-8EFF-D71BD2B4F667";
shapes = (
{
closed = 1;
nodes = (
(168,-226,l),
(378,-226,l),
(750,1025,l),
(539,1025,l)
);
},
{
alignment = -1;
ref = o;
}
);
width = 879;
}
);
note = oslash;
unicode = 248;
},
{
glyphname = oe;
kernLeft = a;
kernRight = ae;
lastChange = "2023-09-13 04:40:18 +0000";
layers = (
{
background = {
shapes = (
{
closed = 1;
nodes = (
(595,-21,o),
(721,62,o),
(781,188,c),
(848,46,o),
(990,-21,o),
(1146,-21,cs),
(1301,-21,o),
(1412,29,o),
(1484,117,c),
(1422,146,l),
(1371,72,o),
(1299,6,o),
(1146,6,cs),
(979,6,o),
(826,132,o),
(821,371,c),
(821,373,o),
(821,375,o),
(821,377,c),
(1482,377,l),
(1485,398,o),
(1486,419,o),
(1486,439,cs),
(1486,640,o),
(1353,770,o),
(1135,770,cs),
(979,770,o),
(841,696,o),
(778,560,c),
(716,686,o),
(592,768,o),
(433,768,cs),
(203,768,o),
(45,596,o),
(45,371,cs),
(45,147,o),
(201,-21,o),
(433,-21,cs)
);
},
{
closed = 1;
nodes = (
(240,-3,o),
(121,170,o),
(121,371,cs),
(121,573,o),
(240,747,o),
(433,747,cs),
(609,747,o),
(725,601,o),
(742,420,c),
(741,408,o),
(741,396,o),
(741,384,cs),
(741,366,o),
(742,349,o),
(743,333,c),
(729,148,o),
(613,-3,o),
(433,-3,cs)
);
},
{
closed = 1;
nodes = (
(831,599,o),
(949,747,o),
(1136,747,cs),
(1325,747,o),
(1414,618,o),
(1414,491,cs),
(1414,463,o),
(1410,435,o),
(1401,409,c),
(821,409,l)
);
}
);
};
layerId = "F5467FAD-1970-4982-B3D3-939C01050498";
shapes = (
{
ref = o;
},
{
alignment = -1;
pos = (707,0);
ref = e;
}
);
width = 1558;
},
{
background = {
shapes = (
{
closed = 1;
nodes = (
(572,-18,o),
(672,26,o),
(743,95,c),
(815,20,o),
(922,-18,o),
(1050,-18,cs),
(1218,-18,o),
(1373,53,o),
(1425,191,c),
(1241,279,l),
(1214,198,o),
(1159,143,o),
(1065,143,cs),
(932,143,o),
(875,213,o),
(862,323,c),
(1403,323,l),
(1412,363,o),
(1416,401,o),
(1416,436,cs),
(1416,640,o),
(1270,766,o),
(1035,766,cs),
(913,766,o),
(810,726,o),
(740,653,c),
(669,721,o),
(570,765,o),
(453,765,cs),
(212,765,o),
(48,580,o),
(48,370,cs),
(48,162,o),
(212,-18,o),
(453,-18,cs)
);
},
{
closed = 1;
nodes = (
(345,139,o),
(262,214,o),
(262,370,cs),
(262,528,o),
(345,603,o),
(453,603,cs),
(550,603,o),
(627,543,o),
(642,416,c),
(641,405,o),
(641,394,o),
(641,383,cs),
(641,366,o),
(641,349,o),
(643,333,c),
(630,203,o),
(552,140,o),
(453,140,cs)
);
},
{
closed = 1;
nodes = (
(894,562,o),
(970,609,o),
(1041,609,cs),
(1132,609,o),
(1187,563,o),
(1187,489,cs),
(1187,480,o),
(1187,471,o),
(1185,462,c),
(868,462,l)
);
}
);
};
layerId = "6DD95C5A-998B-41AB-BDFB-84A73C209871";
shapes = (
{
ref = o;
},
{
alignment = -1;
pos = (602,0);
ref = e;
}
);
width = 1492;
},
{
layerId = "1FDC7037-1F88-4969-8535-0F79C1EF19DB";
shapes = (
{
alignment = -1;
ref = o;
},
{
alignment = -1;
pos = (723,0);
ref = e;
}
);
width = 1567;
},
{
layerId = "3ED9E848-BE83-4CAC-8EFF-D71BD2B4F667";
shapes = (
{
alignment = -1;
ref = o;
},
{
alignment = -1;
pos = (576,0);
ref = e;
}
);
width = 1475;
}
);
metricLeft = o;
metricRight = e;
note = oe;
unicode = 339;
},
{
glyphname = p;
kernLeft = p;
kernRight = p;
lastChange = "2023-09-13 04:36:28 +0000";
layers = (
{
layerId = "F5467FAD-1970-4982-B3D3-939C01050498";
shapes = (
{
closed = 1;
nodes = (
(75,-300,l),
(143,-300,l),
(143,153,l),
(119,372,l),
(143,573,l),
(143,750,l),
(77,750,l)
);
},
{
closed = 1;
nodes = (
(216,768,o),
(117,548,o),
(117,372,cs),
(117,195,o),
(224,-19,o),
(456,-19,cs),
(684,-19,o),
(830,146,o),
(830,372,cs),
(830,600,o),
(684,768,o),
(456,768,cs)
);
},
{
closed = 1;
nodes = (
(639,723,o),
(762,566,o),
(762,372,cs),
(762,182,o),
(642,24,o),
(458,24,cs),
(276,24,o),
(125,159,o),
(125,372,cs),
(125,590,o),
(275,723,o),
(456,723,cs)
);
}
);
width = 875;
},
{
layerId = "6DD95C5A-998B-41AB-BDFB-84A73C209871";
shapes = (
{
closed = 1;
nodes = (
(53,-300,l),
(282,-300,l),
(282,15,l),
(252,372,l),
(282,711,l),
(282,750,l),
(54,750,l)
);
},
{
closed = 1;
nodes = (
(288,764,o),
(242,633,o),
(242,372,cs),
(242,113,o),
(302,-18,o),
(531,-18,cs),
(770,-18,o),
(927,159,o),
(927,372,cs),
(927,584,o),
(770,764,o),
(531,764,cs)
);
},
{
closed = 1;
nodes = (
(614,597,o),
(686,507,o),
(686,372,cs),
(686,239,o),
(614,147,o),
(489,147,cs),
(356,147,o),
(270,225,o),
(270,372,cs),
(270,521,o),
(356,597,o),
(489,597,cs)
);
}
);
width = 957;
},
{
associatedMasterId = "6DD95C5A-998B-41AB-BDFB-84A73C209871";
layerId = "98FC4237-0C9A-470F-B714-1BBC7CCDE98A";
name = "24 juil. 23  14:33";
shapes = (
{
closed = 1;
nodes = (
(282,-300,l),
(282,20,l),
(282,71,l),
(328,7,o),
(416,-22,o),
(516,-22,cs),
(755,-22,o),
(912,155,o),
(912,368,cs),
(912,579,o),
(756,759,o),
(516,759,cs),
(415,759,o),
(312,716,o),
(282,651,c),
(282,696,l),
(282,750,l),
(54,750,l),
(53,-300,l)
);
},
{
closed = 1;
nodes = (
(353,143,o),
(267,221,o),
(267,368,cs),
(267,516,o),
(353,593,o),
(486,593,cs),
(611,593,o),
(683,503,o),
(683,368,cs),
(683,234,o),
(611,143,o),
(486,143,cs)
);
}
);
width = 957;
},
{
associatedMasterId = "F5467FAD-1970-4982-B3D3-939C01050498";
layerId = "DACE8C0B-C6A5-45B8-B8AC-06B9D7DDFF7F";
name = "24 juil. 23  14:33";
shapes = (
{
closed = 1;
nodes = (
(143,-300,l),
(143,153,l),
(132,274,l),
(165,126,o),
(271,-19,o),
(462,-19,cs),
(690,-19,o),
(836,146,o),
(836,372,cs),
(836,600,o),
(690,768,o),
(462,768,cs),
(270,768,o),
(164,620,o),
(132,469,c),
(143,573,l),
(143,750,l),
(77,750,l),
(75,-300,l)
);
},
{
closed = 1;
nodes = (
(281,24,o),
(129,159,o),
(129,372,cs),
(129,590,o),
(281,723,o),
(462,723,cs),
(645,723,o),
(768,566,o),
(768,372,cs),
(768,182,o),
(647,24,o),
(462,24,cs)
);
}
);
width = 881;
},
{
layerId = "1FDC7037-1F88-4969-8535-0F79C1EF19DB";
shapes = (
{
closed = 1;
nodes = (
(78,-300,l),
(120,-300,l),
(120,176,l),
(98,372,l),
(120,551,l),
(120,750,l),
(80,750,l)
);
},
{
closed = 1;
nodes = (
(204,768,o),
(98,534,o),
(98,372,cs),
(98,209,o),
(212,-19,o),
(444,-19,cs),
(671,-19,o),
(815,144,o),
(815,372,cs),
(815,603,o),
(671,768,o),
(444,768,cs)
);
},
{
closed = 1;
nodes = (
(644,743,o),
(774,575,o),
(774,372,cs),
(774,173,o),
(647,5,o),
(453,5,cs),
(264,5,o),
(101,149,o),
(101,372,cs),
(101,600,o),
(261,743,o),
(450,743,cs)
);
}
);
width = 861;
},
{
layerId = "3ED9E848-BE83-4CAC-8EFF-D71BD2B4F667";
shapes = (
{
closed = 1;
nodes = (
(47,-300,l),
(317,-300,l),
(317,-19,l),
(285,372,l),
(317,746,l),
(317,750,l),
(48,750,l)
);
},
{
closed = 1;
nodes = (
(306,762,o),
(272,654,o),
(272,372,cs),
(272,92,o),
(321,-18,o),
(549,-18,cs),
(791,-18,o),
(951,162,o),
(951,372,cs),
(951,579,o),
(791,762,o),
(549,762,cs)
);
},
{
closed = 1;
nodes = (
(608,566,o),
(666,492,o),
(666,372,cs),
(666,252,o),
(606,177,o),
(497,177,cs),
(375,177,o),
(306,242,o),
(306,372,cs),
(306,504,o),
(375,566,o),
(497,566,cs)
);
}
);
width = 977;
}
);
note = p;
unicode = 112;
},
{
glyphname = thorn;
lastChange = "2023-09-13 04:36:28 +0000";
layers = (
{
layerId = "F5467FAD-1970-4982-B3D3-939C01050498";
shapes = (
{
closed = 1;
nodes = (
(122,-357,l),
(122,144,l),
(111,265,l),
(144,117,o),
(250,-28,o),
(441,-28,cs),
(669,-28,o),
(815,137,o),
(815,363,cs),
(815,591,o),
(669,759,o),
(441,759,cs),
(249,759,o),
(143,611,o),
(111,460,c),
(122,564,l),
(122,1212,l),
(56,1212,l),
(54,-357,l)
);
},
{
closed = 1;
nodes = (
(260,15,o),
(108,150,o),
(108,363,cs),
(108,581,o),
(260,714,o),
(441,714,cs),
(624,714,o),
(747,557,o),
(747,363,cs),
(747,173,o),
(626,15,o),
(441,15,cs)
);
}
);
width = 845;
},
{
layerId = "6DD95C5A-998B-41AB-BDFB-84A73C209871";
shapes = (
{
closed = 1;
nodes = (
(267,-286,l),
(267,-6,l),
(267,29,l),
(312,1,o),
(369,-15,o),
(441,-15,cs),
(680,-15,o),
(837,162,o),
(837,374,cs),
(837,587,o),
(681,767,o),
(441,767,cs),
(369,767,o),
(312,750,o),
(267,723,c),
(267,779,l),
(267,1142,l),
(39,1142,l),
(38,-286,l)
);
},
{
closed = 1;
nodes = (
(338,150,o),
(252,228,o),
(252,374,cs),
(252,522,o),
(338,600,o),
(441,600,cs),
(536,600,o),
(608,509,o),
(608,374,cs),
(608,242,o),
(536,150,o),
(441,150,cs)
);
}
);
width = 845;
},
{
layerId = "1FDC7037-1F88-4969-8535-0F79C1EF19DB";
shapes = (
{
closed = 1;
nodes = (
(98,-369,l),
(98,168,l),
(87,303,l),
(117,135,o),
(231,-30,o),
(441,-30,cs),
(668,-30,o),
(812,132,o),
(812,362,cs),
(812,591,o),
(668,758,o),
(441,758,cs),
(230,758,o),
(116,590,o),
(86,419,c),
(98,530,l),
(98,1224,l),
(59,1224,l),
(57,-369,l)
);
},
{
closed = 1;
nodes = (
(248,-6,o),
(86,138,o),
(86,362,cs),
(86,590,o),
(248,732,o),
(441,732,cs),
(638,732,o),
(770,564,o),
(770,362,cs),
(770,162,o),
(641,-6,o),
(441,-6,cs)
);
}
);
width = 845;
},
{
layerId = "3ED9E848-BE83-4CAC-8EFF-D71BD2B4F667";
shapes = (
{
closed = 1;
nodes = (
(303,-268,l),
(303,-43,l),
(305,-30,l),
(354,-27,o),
(399,-12,o),
(441,-12,cs),
(683,-12,o),
(843,168,o),
(843,377,cs),
(843,585,o),
(684,768,o),
(441,768,cs),
(399,768,o),
(354,785,o),
(306,788,c),
(303,831,l),
(303,1124,l),
(35,1124,l),
(33,-268,l)
);
},
{
closed = 1;
nodes = (
(357,183,o),
(288,248,o),
(288,377,cs),
(288,507,o),
(357,572,o),
(441,572,cs),
(515,572,o),
(573,497,o),
(573,377,cs),
(573,258,o),
(513,183,o),
(441,183,cs)
);
}
);
width = 845;
}
);
note = thorn;
unicode = 254;
},
{
glyphname = q;
kernLeft = a;
kernRight = aacute;
lastChange = "2023-09-13 04:36:28 +0000";
layers = (
{
layerId = "F5467FAD-1970-4982-B3D3-939C01050498";
shapes = (
{
closed = 1;
nodes = (
(732,750,l),
(732,573,l),
(756,372,l),
(732,153,l),
(732,-300,l),
(800,-300,l),
(798,750,l)
);
},
{
closed = 1;
nodes = (
(191,768,o),
(45,600,o),
(45,372,cs),
(45,146,o),
(191,-19,o),
(419,-19,cs),
(651,-19,o),
(758,195,o),
(758,372,cs),
(758,548,o),
(659,768,o),
(419,768,cs)
);
},
{
closed = 1;
nodes = (
(600,723,o),
(750,590,o),
(750,372,cs),
(750,159,o),
(599,24,o),
(417,24,cs),
(233,24,o),
(113,182,o),
(113,372,cs),
(113,566,o),
(236,723,o),
(419,723,cs)
);
}
);
width = 875;
},
{
layerId = "6DD95C5A-998B-41AB-BDFB-84A73C209871";
shapes = (
{
closed = 1;
nodes = (
(675,750,l),
(675,711,l),
(705,372,l),
(675,15,l),
(675,-300,l),
(905,-300,l),
(903,750,l)
);
},
{
closed = 1;
nodes = (
(188,764,o),
(30,584,o),
(30,372,cs),
(30,159,o),
(188,-18,o),
(426,-18,cs),
(656,-18,o),
(716,113,o),
(716,372,cs),
(716,633,o),
(669,764,o),
(426,764,cs)
);
},
{
closed = 1;
nodes = (
(602,597,o),
(687,521,o),
(687,372,cs),
(687,225,o),
(602,147,o),
(468,147,cs),
(344,147,o),
(272,239,o),
(272,372,cs),
(272,507,o),
(344,597,o),
(468,597,cs)
);
}
);
width = 957;
},
{
associatedMasterId = "6DD95C5A-998B-41AB-BDFB-84A73C209871";
layerId = "0C2631EF-B1CC-4266-849D-97E34A750FC9";
name = "24 juil. 23  14:33";
shapes = (
{
closed = 1;
nodes = (
(904,-300,l),
(903,750,l),
(675,750,l),
(675,695,l),
(675,651,l),
(645,716,o),
(542,759,o),
(441,759,cs),
(201,759,o),
(45,579,o),
(45,368,cs),
(45,155,o),
(203,-22,o),
(441,-22,cs),
(541,-22,o),
(629,7,o),
(675,71,c),
(675,23,l),
(675,-300,l)
);
},
{
closed = 1;
nodes = (
(346,143,o),
(274,234,o),
(274,368,cs),
(274,503,o),
(346,593,o),
(471,593,cs),
(604,593,o),
(690,516,o),
(690,368,cs),
(690,221,o),
(604,143,o),
(471,143,cs)
);
}
);
width = 957;
},
{
associatedMasterId = "F5467FAD-1970-4982-B3D3-939C01050498";
layerId = "90652EA9-EDFC-4C18-BA74-0C2524A4B062";
name = "24 juil. 23  14:33";
shapes = (
{
closed = 1;
nodes = (
(806,-300,l),
(804,750,l),
(738,750,l),
(738,573,l),
(749,469,l),
(717,620,o),
(611,768,o),
(418,768,cs),
(190,768,o),
(45,600,o),
(45,372,cs),
(45,146,o),
(190,-19,o),
(418,-19,cs),
(610,-19,o),
(716,126,o),
(748,274,c),
(738,153,l),
(738,-300,l)
);
},
{
closed = 1;
nodes = (
(234,24,o),
(112,182,o),
(112,372,cs),
(112,566,o),
(235,723,o),
(418,723,cs),
(600,723,o),
(751,590,o),
(751,372,cs),
(751,159,o),
(600,24,o),
(418,24,cs)
);
}
);
width = 881;
},
{
layerId = "1FDC7037-1F88-4969-8535-0F79C1EF19DB";
shapes = (
{
closed = 1;
nodes = (
(741,750,l),
(741,551,l),
(764,372,l),
(741,176,l),
(741,-300,l),
(783,-300,l),
(782,750,l)
);
},
{
closed = 1;
nodes = (
(191,768,o),
(48,603,o),
(48,372,cs),
(48,144,o),
(191,-19,o),
(417,-19,cs),
(651,-19,o),
(764,209,o),
(764,372,cs),
(764,534,o),
(657,768,o),
(417,768,cs)
);
},
{
closed = 1;
nodes = (
(600,743,o),
(761,600,o),
(761,372,cs),
(761,149,o),
(599,5,o),
(410,5,cs),
(215,5,o),
(87,173,o),
(87,372,cs),
(87,575,o),
(218,743,o),
(411,743,cs)
);
}
);
width = 861;
},
{
layerId = "3ED9E848-BE83-4CAC-8EFF-D71BD2B4F667";
shapes = (
{
closed = 1;
nodes = (
(662,750,l),
(662,746,l),
(693,372,l),
(662,-19,l),
(662,-300,l),
(930,-300,l),
(929,750,l)
);
},
{
closed = 1;
nodes = (
(188,762,o),
(27,579,o),
(27,372,cs),
(27,162,o),
(188,-18,o),
(428,-18,cs),
(657,-18,o),
(705,92,o),
(705,372,cs),
(705,654,o),
(672,762,o),
(428,762,cs)
);
},
{
closed = 1;
nodes = (
(602,566,o),
(672,504,o),
(672,372,cs),
(672,242,o),
(602,177,o),
(480,177,cs),
(371,177,o),
(311,252,o),
(311,372,cs),
(311,492,o),
(371,566,o),
(480,566,cs)
);
}
);
width = 977;
}
);
note = q;
unicode = 113;
},
{
glyphname = r;
kernLeft = m;
kernRight = r;
lastChange = "2023-09-13 04:36:28 +0000";
layers = (
{
anchors = (
{
name = bottom;
pos = (372,0);
},
{
name = top;
pos = (413,750);
}
);
layerId = "F5467FAD-1970-4982-B3D3-939C01050498";
shapes = (
{
closed = 1;
nodes = (
(141,0,l),
(141,406,l),
(162,619,o),
(296,716,o),
(429,716,cs),
(536,716,o),
(587,659,o),
(606,581,c),
(681,581,l),
(680,587,o),
(680,591,o),
(678,597,cs),
(662,692,o),
(606,761,o),
(450,759,cs),
(306,759,o),
(173,665,o),
(141,497,c),
(141,750,l),
(75,750,l),
(75,0,l)
);
}
);
width = 690;
},
{
anchors = (
{
name = bottom;
pos = (438,0);
},
{
name = top;
pos = (479,750);
}
);
layerId = "6DD95C5A-998B-41AB-BDFB-84A73C209871";
shapes = (
{
closed = 1;
nodes = (
(296,0,l),
(296,388,ls),
(296,540,o),
(378,599,o),
(461,599,cs),
(522,599,o),
(564,561,o),
(557,488,c),
(782,488,l),
(783,497,o),
(783,504,o),
(783,513,cs),
(783,639,o),
(689,765,o),
(522,765,cs),
(435,765,o),
(338,719,o),
(296,649,c),
(296,750,l),
(68,750,l),
(68,0,l)
);
}
);
width = 798;
},
{
anchors = (
{
name = bottom;
pos = (362,0);
},
{
name = top;
pos = (402,750);
}
);
layerId = "1FDC7037-1F88-4969-8535-0F79C1EF19DB";
shapes = (
{
closed = 1;
nodes = (
(117,0,l),
(117,410,l),
(141,632,o),
(282,734,o),
(425,734,cs),
(537,734,o),
(591,675,o),
(614,596,c),
(665,596,l),
(663,602,o),
(663,605,o),
(662,611,cs),
(642,701,o),
(593,761,o),
(440,759,cs),
(285,758,o),
(146,656,o),
(117,473,c),
(117,750,l),
(77,750,l),
(77,0,l)
);
}
);
width = 673;
},
{
anchors = (
{
name = bottom;
pos = (455,0);
},
{
name = top;
pos = (495,750);
}
);
layerId = "3ED9E848-BE83-4CAC-8EFF-D71BD2B4F667";
shapes = (
{
closed = 1;
nodes = (
(333,0,l),
(333,384,l),
(329,521,o),
(399,570,o),
(468,570,cs),
(519,570,o),
(558,537,o),
(545,465,c),
(807,465,l),
(809,474,o),
(809,483,o),
(809,492,cs),
(813,626,o),
(710,767,o),
(540,767,cs),
(467,767,o),
(378,732,o),
(333,687,c),
(333,750,l),
(66,750,l),
(66,0,l)
);
}
);
width = 825;
}
);
note = r;
unicode = 114;
},
{
glyphname = s;
kernLeft = s;
kernRight = s;
lastChange = "2023-09-13 04:36:28 +0000";
layers = (
{
anchors = (
{
name = bottom;
pos = (365,0);
},
{
name = top;
pos = (342,750);
}
);
layerId = "F5467FAD-1970-4982-B3D3-939C01050498";
shapes = (
{
closed = 1;
nodes = (
(192,770,o),
(83,687,o),
(83,578,cs),
(83,300,o),
(575,459,o),
(575,188,cs),
(575,120,o),
(521,21,o),
(359,21,cs),
(237,21,o),
(135,78,o),
(90,192,c),
(30,168,l),
(78,53,o),
(182,-21,o),
(359,-21,cs),
(572,-21,o),
(650,83,o),
(650,182,cs),
(650,497,o),
(158,339,o),
(158,578,cs),
(158,669,o),
(222,728,o),
(341,728,cs),
(456,728,o),
(543,663,o),
(585,558,c),
(642,590,l),
(599,705,o),
(489,770,o),
(341,770,cs)
);
}
);
width = 680;
},
{
anchors = (
{
name = bottom;
pos = (401,0);
},
{
name = top;
pos = (378,750);
}
);
layerId = "6DD95C5A-998B-41AB-BDFB-84A73C209871";
shapes = (
{
closed = 1;
nodes = (
(228,767,o),
(83,690,o),
(83,555,cs),
(83,233,o),
(525,368,o),
(525,221,cs),
(525,176,o),
(473,140,o),
(396,140,cs),
(291,140,o),
(251,239,o),
(231,305,c),
(30,225,l),
(78,51,o),
(213,-18,o),
(396,-18,cs),
(609,-18,o),
(747,78,o),
(747,230,cs),
(747,519,o),
(299,375,o),
(299,540,cs),
(299,584,o),
(335,609,o),
(393,609,cs),
(479,609,o),
(534,551,o),
(534,455,c),
(734,548,l),
(692,678,o),
(558,767,o),
(378,767,cs)
);
}
);
width = 777;
},
{
anchors = (
{
name = bottom;
pos = (372,0);
},
{
name = top;
pos = (350,750);
}
);
associatedMasterId = "6DD95C5A-998B-41AB-BDFB-84A73C209871";
layerId = "D619BE00-27DC-4BA7-9494-58223F4FA2F3";
name = "24 juil. 23  14:52";
shapes = (
{
closed = 1;
nodes = (
(566,-18,o),
(674,78,o),
(674,230,cs),
(674,392,o),
(471,444,o),
(380,471,cs),
(309,492,o),
(270,516,o),
(270,555,cs),
(270,599,o),
(306,618,o),
(350,618,cs),
(417,618,o),
(432,573,o),
(434,540,c),
(627,602,l),
(602,707,o),
(485,767,o),
(350,767,cs),
(200,767,o),
(69,675,o),
(69,555,cs),
(69,422,o),
(192,368,o),
(317,332,cs),
(413,302,o),
(467,285,o),
(467,233,cs),
(467,173,o),
(414,140,o),
(353,140,cs),
(234,140,o),
(195,249,o),
(195,321,c),
(23,201,l),
(56,72,o),
(200,-18,o),
(353,-18,cs)
);
}
);
width = 711;
},
{
anchors = (
{
name = bottom;
pos = (357,0);
},
{
name = top;
pos = (335,750);
}
);
associatedMasterId = "F5467FAD-1970-4982-B3D3-939C01050498";
layerId = "6BCDE198-901C-4CEB-AD18-42D9A29F4FA8";
name = "24 juil. 23  14:52";
shapes = (
{
closed = 1;
nodes = (
(549,-21,o),
(642,86,o),
(642,200,cs),
(642,341,o),
(458,383,o),
(340,414,cs),
(199,452,o),
(131,513,o),
(131,593,cs),
(131,680,o),
(214,744,o),
(333,744,cs),
(403,744,o),
(497,737,o),
(526,602,c),
(605,620,l),
(560,735,o),
(436,770,o),
(333,770,cs),
(184,770,o),
(75,698,o),
(75,593,cs),
(75,480,o),
(176,425,o),
(322,386,cs),
(463,347,o),
(582,314,o),
(582,203,cs),
(582,90,o),
(497,6,o),
(337,6,cs),
(198,6,o),
(101,89,o),
(70,236,c),
(10,195,l),
(58,65,o),
(159,-21,o),
(337,-21,cs)
);
}
);
width = 662;
},
{
anchors = (
{
name = bottom;
pos = (359,0);
},
{
name = top;
pos = (336,750);
}
);
layerId = "1FDC7037-1F88-4969-8535-0F79C1EF19DB";
shapes = (
{
closed = 1;
nodes = (
(186,770,o),
(83,687,o),
(83,581,cs),
(83,311,o),
(582,474,o),
(582,182,cs),
(582,111,o),
(528,2,o),
(353,2,cs),
(228,2,o),
(117,53,o),
(68,174,c),
(30,159,l),
(78,53,o),
(177,-21,o),
(353,-21,cs),
(566,-21,o),
(635,83,o),
(635,174,cs),
(635,494,o),
(135,333,o),
(135,584,cs),
(135,683,o),
(204,747,o),
(332,747,cs),
(453,747,o),
(545,681,o),
(593,575,c),
(627,596,l),
(584,710,o),
(479,770,o),
(335,770,cs)
);
}
);
width = 664;
},
{
anchors = (
{
name = bottom;
pos = (410,0);
},
{
name = top;
pos = (387,750);
}
);
layerId = "3ED9E848-BE83-4CAC-8EFF-D71BD2B4F667";
shapes = (
{
closed = 1;
nodes = (
(237,767,o),
(83,690,o),
(83,549,cs),
(83,216,o),
(513,345,o),
(513,228,cs),
(513,189,o),
(461,168,o),
(405,168,cs),
(305,168,o),
(279,278,o),
(266,332,c),
(30,239,l),
(78,51,o),
(221,-18,o),
(405,-18,cs),
(618,-18,o),
(771,77,o),
(771,242,cs),
(771,525,o),
(333,384,o),
(333,531,cs),
(333,563,o),
(362,581,o),
(407,581,cs),
(485,581,o),
(533,524,o),
(522,429,c),
(756,537,l),
(714,672,o),
(575,767,o),
(387,767,cs)
);
}
);
width = 801;
}
);
note = s;
unicode = 115;
},
{
glyphname = germandbls;
kernLeft = germandbls;
kernRight = germandbls;
lastChange = "2023-09-13 04:36:28 +0000";
layers = (
{
layerId = "F5467FAD-1970-4982-B3D3-939C01050498";
shapes = (
{
closed = 1;
nodes = (
(131,-24,l),
(131,797,ls),
(131,947,o),
(218,1032,o),
(362,1032,cs),
(513,1032,o),
(602,947,o),
(602,827,cs),
(602,716,o),
(561,647,o),
(420,647,cs),
(395,647,l),
(395,608,l),
(455,608,ls),
(653,608,o),
(800,498,o),
(800,302,cs),
(800,108,o),
(654,26,o),
(446,26,cs),
(407,26,o),
(362,35,o),
(323,47,c),
(323,6,l),
(359,-9,o),
(414,-24,o),
(462,-24,cs),
(704,-24,o),
(867,80,o),
(867,302,cs),
(867,456,o),
(762,608,o),
(546,638,c),
(645,678,o),
(668,752,o),
(668,845,cs),
(668,975,o),
(534,1074,o),
(362,1074,cs),
(185,1074,o),
(65,962,o),
(65,780,cs),
(65,-24,l)
);
}
);
width = 894;
},
{
layerId = "6DD95C5A-998B-41AB-BDFB-84A73C209871";
shapes = (
{
closed = 1;
nodes = (
(275,6,l),
(275,776,ls),
(275,843,o),
(309,875,o),
(380,875,cs),
(456,875,o),
(491,843,o),
(491,776,cs),
(491,707,o),
(456,671,o),
(375,671,cs),
(321,671,l),
(321,498,l),
(456,498,ls),
(578,498,o),
(656,453,o),
(656,341,cs),
(656,249,o),
(614,176,o),
(479,176,cs),
(434,176,o),
(344,198,o),
(317,216,c),
(317,39,l),
(341,26,o),
(411,6,o),
(477,6,cs),
(714,6,o),
(885,120,o),
(885,341,cs),
(885,486,o),
(807,590,o),
(671,639,c),
(704,683,o),
(719,729,o),
(719,789,cs),
(719,980,o),
(548,1044,o),
(380,1044,cs),
(206,1044,o),
(47,950,o),
(47,756,cs),
(47,6,l)
);
}
);
width = 894;
},
{
layerId = "1FDC7037-1F88-4969-8535-0F79C1EF19DB";
shapes = (
{
closed = 1;
nodes = (
(108,-28,l),
(108,800,ls),
(108,963,o),
(203,1058,o),
(359,1058,cs),
(522,1058,o),
(620,963,o),
(620,834,cs),
(620,717,o),
(578,642,o),
(428,642,cs),
(407,642,l),
(407,626,l),
(455,626,ls),
(665,626,o),
(822,506,o),
(822,296,cs),
(822,86,o),
(660,2,o),
(440,2,cs),
(402,2,o),
(365,9,o),
(324,20,c),
(324,0,l),
(362,-15,o),
(414,-28,o),
(459,-28,cs),
(702,-28,o),
(864,74,o),
(864,296,cs),
(864,452,o),
(755,611,o),
(527,638,c),
(636,678,o),
(660,755,o),
(660,854,cs),
(660,975,o),
(533,1079,o),
(359,1079,cs),
(182,1079,o),
(68,963,o),
(68,785,cs),
(68,-28,l)
);
}
);
width = 894;
},
{
layerId = "3ED9E848-BE83-4CAC-8EFF-D71BD2B4F667";
shapes = (
{
closed = 1;
nodes = (
(311,14,l),
(311,771,ls),
(311,818,o),
(332,836,o),
(384,836,cs),
(443,836,o),
(464,818,o),
(464,764,cs),
(464,705,o),
(431,677,o),
(365,677,cs),
(303,677,l),
(303,471,l),
(456,471,ls),
(560,471,o),
(620,443,o),
(620,350,cs),
(620,284,o),
(603,213,o),
(486,213,cs),
(440,213,o),
(339,239,o),
(315,258,c),
(315,47,l),
(336,35,o),
(411,14,o),
(482,14,cs),
(717,14,o),
(890,131,o),
(890,350,cs),
(890,494,o),
(818,585,o),
(701,639,c),
(719,684,o),
(731,723,o),
(731,776,cs),
(731,981,o),
(551,1037,o),
(384,1037,cs),
(210,1037,o),
(42,947,o),
(42,750,cs),
(42,14,l)
);
}
);
width = 894;
}
);
note = germandbls;
unicode = 223;
},
{
glyphname = t;
kernLeft = t;
kernRight = t;
lastChange = "2023-09-13 04:36:28 +0000";
layers = (
{
anchors = (
{
name = bottom;
pos = (396,0);
},
{
name = top;
pos = (215,1050);
}
);
layerId = "F5467FAD-1970-4982-B3D3-939C01050498";
shapes = (
{
closed = 1;
nodes = (
(492,-18,o),
(569,24,o),
(614,89,c),
(561,114,l),
(530,53,o),
(462,24,o),
(393,24,cs),
(288,24,o),
(248,89,o),
(248,216,cs),
(248,701,l),
(513,701,l),
(513,753,l),
(248,753,l),
(248,1050,l),
(182,1050,l),
(182,753,l),
(24,753,l),
(24,701,l),
(182,701,l),
(182,212,ls),
(182,63,o),
(242,-18,o),
(393,-18,cs)
);
}
);
width = 689;
},
{
anchors = (
{
name = bottom;
pos = (417,0);
},
{
name = top;
pos = (267,1050);
}
);
layerId = "6DD95C5A-998B-41AB-BDFB-84A73C209871";
shapes = (
{
closed = 1;
nodes = (
(606,-12,o),
(689,81,o),
(729,162,c),
(555,263,l),
(539,189,o),
(503,146,o),
(452,146,cs),
(410,146,o),
(381,179,o),
(381,246,cs),
(381,582,l),
(600,582,l),
(600,756,l),
(381,756,l),
(381,1050,l),
(153,1050,l),
(153,756,l),
(23,756,l),
(23,582,l),
(153,582,l),
(153,243,ls),
(153,110,o),
(225,-12,o),
(452,-12,cs)
);
}
);
width = 737;
},
{
anchors = (
{
name = bottom;
pos = (393,0);
},
{
name = top;
pos = (206,1050);
}
);
layerId = "1FDC7037-1F88-4969-8535-0F79C1EF19DB";
shapes = (
{
closed = 1;
nodes = (
(474,-19,o),
(549,15,o),
(596,77,c),
(563,90,l),
(528,30,o),
(456,5,o),
(384,5,cs),
(269,5,o),
(227,74,o),
(227,212,cs),
(227,720,l),
(500,720,l),
(500,753,l),
(227,753,l),
(227,1050,l),
(186,1050,l),
(186,753,l),
(24,753,l),
(24,720,l),
(186,720,l),
(186,207,ls),
(186,56,o),
(245,-19,o),
(384,-19,cs)
);
}
);
width = 681;
},
{
anchors = (
{
name = bottom;
pos = (422,0);
},
{
name = top;
pos = (281,1050);
}
);
layerId = "3ED9E848-BE83-4CAC-8EFF-D71BD2B4F667";
shapes = (
{
closed = 1;
nodes = (
(635,-10,o),
(719,95,o),
(758,180,c),
(554,299,l),
(540,222,o),
(513,176,o),
(467,176,cs),
(440,176,o),
(414,201,o),
(414,254,cs),
(414,554,l),
(621,554,l),
(621,756,l),
(414,756,l),
(414,1050,l),
(146,1050,l),
(146,756,l),
(23,756,l),
(23,554,l),
(146,554,l),
(146,251,ls),
(146,122,o),
(221,-10,o),
(467,-10,cs)
);
}
);
width = 748;
}
);
note = t;
unicode = 116;
},
{
glyphname = tbar;
lastChange = "2023-09-13 04:36:28 +0000";
layers = (
{
layerId = "F5467FAD-1970-4982-B3D3-939C01050498";
shapes = (
{
closed = 1;
nodes = (
(488,543,l),
(39,543,l),
(39,480,l),
(488,480,l)
);
},
{
ref = t;
}
);
width = 689;
},
{
layerId = "6DD95C5A-998B-41AB-BDFB-84A73C209871";
shapes = (
{
closed = 1;
nodes = (
(560,515,l),
(60,515,l),
(60,372,l),
(560,372,l)
);
},
{
ref = t;
}
);
width = 737;
},
{
layerId = "1FDC7037-1F88-4969-8535-0F79C1EF19DB";
shapes = (
{
closed = 1;
nodes = (
(476,548,l),
(36,548,l),
(36,498,l),
(476,498,l)
);
},
{
alignment = -1;
ref = t;
}
);
width = 681;
},
{
layerId = "3ED9E848-BE83-4CAC-8EFF-D71BD2B4F667";
shapes = (
{
closed = 1;
nodes = (
(578,507,l),
(65,507,l),
(65,345,l),
(578,345,l)
);
},
{
alignment = -1;
ref = t;
}
);
width = 748;
}
);
unicode = 359;
},
{
glyphname = u;
kernLeft = m;
kernRight = a;
lastChange = "2023-09-13 04:36:28 +0000";
layers = (
{
anchors = (
{
name = bottom;
pos = (440,0);
},
{
name = ogonek;
pos = (714,2);
},
{
name = top;
pos = (440,750);
}
);
layerId = "F5467FAD-1970-4982-B3D3-939C01050498";
shapes = (
{
closed = 1;
nodes = (
(527,-10,o),
(674,67,o),
(714,219,c),
(714,2,l),
(780,2,l),
(780,750,l),
(714,750,l),
(714,336,l),
(692,83,o),
(525,27,o),
(396,27,cs),
(209,27,o),
(141,155,o),
(141,296,cs),
(141,750,l),
(75,750,l),
(75,296,ls),
(75,138,o),
(134,-10,o),
(377,-10,cs)
);
}
);
width = 855;
},
{
anchors = (
{
name = bottom;
pos = (440,0);
},
{
name = ogonek;
pos = (599,0);
},
{
name = top;
pos = (440,750);
}
);
layerId = "6DD95C5A-998B-41AB-BDFB-84A73C209871";
shapes = (
{
closed = 1;
nodes = (
(493,-10,o),
(557,22,o),
(599,76,c),
(599,0,l),
(827,0,l),
(827,750,l),
(599,750,l),
(599,379,ls),
(599,189,o),
(502,152,o),
(420,152,cs),
(327,152,o),
(296,209,o),
(296,309,cs),
(296,750,l),
(68,750,l),
(68,309,ls),
(68,164,o),
(131,-10,o),
(404,-10,cs)
);
}
);
width = 902;
},
{
anchors = (
{
name = bottom;
pos = (440,0);
},
{
name = ogonek;
pos = (732,2);
},
{
name = top;
pos = (440,750);
}
);
layerId = "1FDC7037-1F88-4969-8535-0F79C1EF19DB";
shapes = (
{
closed = 1;
nodes = (
(533,-10,o),
(693,75,o),
(732,242,c),
(732,2,l),
(773,2,l),
(773,750,l),
(732,750,l),
(732,329,l),
(707,66,o),
(528,8,o),
(392,8,cs),
(189,8,o),
(117,146,o),
(117,294,cs),
(117,750,l),
(77,750,l),
(77,294,ls),
(77,134,o),
(134,-10,o),
(372,-10,cs)
);
}
);
width = 848;
},
{
anchors = (
{
name = bottom;
pos = (440,0);
},
{
name = ogonek;
pos = (570,0);
},
{
name = top;
pos = (440,750);
}
);
layerId = "3ED9E848-BE83-4CAC-8EFF-D71BD2B4F667";
shapes = (
{
closed = 1;
nodes = (
(485,-10,o),
(528,12,o),
(570,41,c),
(570,0,l),
(839,0,l),
(839,750,l),
(570,750,l),
(570,389,l),
(576,215,o),
(497,182,o),
(426,182,cs),
(356,182,o),
(333,222,o),
(333,312,cs),
(333,750,l),
(66,750,l),
(66,312,ls),
(66,170,o),
(131,-10,o),
(410,-10,cs)
);
}
);
width = 913;
}
);
note = u;
unicode = 117;
},
{
glyphname = v;
kernLeft = v;
kernRight = v;
lastChange = "2023-09-13 04:36:28 +0000";
layers = (
{
layerId = "F5467FAD-1970-4982-B3D3-939C01050498";
shapes = (
{
closed = 1;
nodes = (
(387,0,l),
(704,750,l),
(644,750,l),
(350,53,l),
(371,53,l),
(77,750,l),
(17,750,l),
(333,0,l)
);
}
);
width = 750;
},
{
layerId = "6DD95C5A-998B-41AB-BDFB-84A73C209871";
shapes = (
{
closed = 1;
nodes = (
(534,0,l),
(836,750,l),
(609,750,l),
(390,191,l),
(470,191,l),
(249,750,l),
(23,750,l),
(324,0,l)
);
}
);
width = 858;
},
{
layerId = "1FDC7037-1F88-4969-8535-0F79C1EF19DB";
shapes = (
{
closed = 1;
nodes = (
(363,0,l),
(683,750,l),
(650,750,l),
(344,30,l),
(354,30,l),
(50,750,l),
(15,750,l),
(335,0,l)
);
}
);
width = 733;
},
{
layerId = "3ED9E848-BE83-4CAC-8EFF-D71BD2B4F667";
shapes = (
{
closed = 1;
nodes = (
(570,0,l),
(869,750,l),
(600,750,l),
(401,225,l),
(494,225,l),
(291,750,l),
(24,750,l),
(321,0,l)
);
}
);
width = 885;
}
);
note = v;
unicode = 118;
},
{
glyphname = w;
kernLeft = w;
kernRight = w;
lastChange = "2023-09-13 04:36:28 +0000";
layers = (
{
anchors = (
{
name = bottom;
pos = (485,0);
},
{
name = top;
pos = (474,750);
}
);
layerId = "F5467FAD-1970-4982-B3D3-939C01050498";
shapes = (
{
closed = 1;
nodes = (
(294,0,l),
(485,704,l),
(464,704,l),
(654,0,l),
(719,0,l),
(933,750,l),
(873,750,l),
(681,56,l),
(690,56,l),
(498,750,l),
(450,750,l),
(258,56,l),
(267,56,l),
(75,750,l),
(15,750,l),
(230,0,l)
);
}
);
width = 969;
},
{
anchors = (
{
name = bottom;
pos = (573,0);
},
{
name = top;
pos = (573,750);
}
);
layerId = "6DD95C5A-998B-41AB-BDFB-84A73C209871";
shapes = (
{
closed = 1;
nodes = (
(488,0,l),
(588,521,l),
(558,521,l),
(659,0,l),
(909,0,l),
(1124,750,l),
(896,750,l),
(767,192,l),
(803,192,l),
(674,750,l),
(473,750,l),
(344,194,l),
(380,194,l),
(251,750,l),
(23,750,l),
(236,0,l)
);
}
);
width = 1146;
},
{
anchors = (
{
name = bottom;
pos = (471,0);
},
{
name = top;
pos = (458,750);
}
);
layerId = "1FDC7037-1F88-4969-8535-0F79C1EF19DB";
shapes = (
{
closed = 1;
nodes = (
(263,0,l),
(468,734,l),
(449,734,l),
(654,0,l),
(689,0,l),
(903,750,l),
(870,750,l),
(668,33,l),
(672,33,l),
(470,750,l),
(447,750,l),
(245,33,l),
(249,33,l),
(47,750,l),
(14,750,l),
(228,0,l)
);
}
);
width = 941;
},
{
anchors = (
{
name = bottom;
pos = (594,0);
},
{
name = top;
pos = (597,750);
}
);
layerId = "3ED9E848-BE83-4CAC-8EFF-D71BD2B4F667";
shapes = (
{
closed = 1;
nodes = (
(536,0,l),
(614,476,l),
(581,476,l),
(660,0,l),
(956,0,l),
(1170,750,l),
(902,750,l),
(788,225,l),
(830,225,l),
(717,750,l),
(479,750,l),
(365,228,l),
(407,228,l),
(294,750,l),
(24,750,l),
(237,0,l)
);
}
);
width = 1190;
}
);
note = w;
unicode = 119;
},
{
glyphname = x;
kernLeft = x;
kernRight = x;
lastChange = "2023-09-13 04:36:28 +0000";
layers = (
{
layerId = "F5467FAD-1970-4982-B3D3-939C01050498";
shapes = (
{
closed = 1;
nodes = (
(108,750,l),
(24,750,l),
(690,0,l),
(774,0,l)
);
},
{
closed = 1;
nodes = (
(428,350,l),
(783,750,l),
(699,750,l),
(387,399,l)
);
},
{
closed = 1;
nodes = (
(369,399,l),
(15,0,l),
(99,0,l),
(410,350,l)
);
}
);
width = 798;
},
{
layerId = "6DD95C5A-998B-41AB-BDFB-84A73C209871";
shapes = (
{
closed = 1;
nodes = (
(315,750,l),
(45,750,l),
(623,0,l),
(893,0,l)
);
},
{
closed = 1;
nodes = (
(561,281,l),
(923,750,l),
(653,750,l),
(426,456,l)
);
},
{
closed = 1;
nodes = (
(366,456,l),
(15,0,l),
(285,0,l),
(501,281,l)
);
}
);
width = 938;
},
{
layerId = "1FDC7037-1F88-4969-8535-0F79C1EF19DB";
shapes = (
{
closed = 1;
nodes = (
(75,750,l),
(21,750,l),
(701,0,l),
(755,0,l)
);
},
{
closed = 1;
nodes = (
(407,360,l),
(761,750,l),
(707,750,l),
(381,390,l)
);
},
{
closed = 1;
nodes = (
(369,390,l),
(15,0,l),
(69,0,l),
(395,360,l)
);
}
);
width = 776;
},
{
layerId = "3ED9E848-BE83-4CAC-8EFF-D71BD2B4F667";
shapes = (
{
closed = 1;
nodes = (
(366,750,l),
(50,750,l),
(606,0,l),
(921,0,l)
);
},
{
closed = 1;
nodes = (
(594,264,l),
(957,750,l),
(641,750,l),
(435,470,l)
);
},
{
closed = 1;
nodes = (
(366,470,l),
(15,0,l),
(332,0,l),
(524,264,l)
);
}
);
width = 972;
}
);
note = x;
unicode = 120;
},
{
glyphname = y;
kernLeft = y;
kernRight = y;
lastChange = "2023-09-13 04:36:28 +0000";
layers = (
{
anchors = (
{
name = top;
pos = (348,750);
}
);
layerId = "F5467FAD-1970-4982-B3D3-939C01050498";
shapes = (
{
closed = 1;
nodes = (
(266,-300,l),
(693,750,l),
(623,750,l),
(377,147,l),
(396,147,l),
(92,752,l),
(15,750,l),
(377,35,l),
(377,147,l),
(194,-300,l)
);
}
);
width = 708;
},
{
anchors = (
{
name = top;
pos = (486,750);
}
);
layerId = "6DD95C5A-998B-41AB-BDFB-84A73C209871";
shapes = (
{
closed = 1;
nodes = (
(455,-300,l),
(882,750,l),
(648,750,l),
(468,308,l),
(479,309,l),
(266,750,l),
(15,750,l),
(407,-49,l),
(407,161,l),
(219,-300,l)
);
}
);
width = 897;
},
{
anchors = (
{
name = top;
pos = (326,750);
}
);
layerId = "1FDC7037-1F88-4969-8535-0F79C1EF19DB";
shapes = (
{
closed = 1;
nodes = (
(236,-300,l),
(663,750,l),
(618,750,l),
(362,122,l),
(383,122,l),
(63,752,l),
(15,750,l),
(372,48,l),
(372,146,l),
(189,-300,l)
);
}
);
width = 678;
},
{
anchors = (
{
name = top;
pos = (521,750);
}
);
layerId = "3ED9E848-BE83-4CAC-8EFF-D71BD2B4F667";
shapes = (
{
closed = 1;
nodes = (
(501,-300,l),
(929,750,l),
(654,750,l),
(491,347,l),
(500,350,l),
(309,750,l),
(15,750,l),
(414,-70,l),
(414,164,l),
(225,-300,l)
);
}
);
width = 943;
}
);
note = y;
unicode = 121;
},
{
glyphname = z;
kernLeft = z;
kernRight = z;
lastChange = "2023-09-13 04:36:28 +0000";
layers = (
{
anchors = (
{
name = bottom;
pos = (375,0);
},
{
name = top;
pos = (375,750);
}
);
layerId = "F5467FAD-1970-4982-B3D3-939C01050498";
shapes = (
{
closed = 1;
nodes = (
(710,0,l),
(710,53,l),
(107,53,l),
(735,698,l),
(735,750,l),
(75,750,l),
(75,698,l),
(641,698,l),
(15,53,l),
(15,0,l)
);
}
);
width = 750;
},
{
anchors = (
{
name = bottom;
pos = (392,0);
},
{
name = top;
pos = (392,750);
}
);
layerId = "6DD95C5A-998B-41AB-BDFB-84A73C209871";
shapes = (
{
closed = 1;
nodes = (
(752,0,l),
(752,173,l),
(333,173,l),
(740,593,l),
(740,750,l),
(53,750,l),
(53,578,l),
(422,578,l),
(30,158,l),
(30,0,l)
);
}
);
width = 782;
},
{
anchors = (
{
name = bottom;
pos = (372,0);
},
{
name = top;
pos = (372,750);
}
);
layerId = "1FDC7037-1F88-4969-8535-0F79C1EF19DB";
shapes = (
{
closed = 1;
nodes = (
(704,0,l),
(704,33,l),
(71,33,l),
(735,714,l),
(735,750,l),
(78,750,l),
(78,717,l),
(675,717,l),
(12,36,l),
(12,0,l)
);
}
);
width = 745;
},
{
anchors = (
{
name = bottom;
pos = (396,0);
},
{
name = top;
pos = (396,750);
}
);
layerId = "3ED9E848-BE83-4CAC-8EFF-D71BD2B4F667";
shapes = (
{
closed = 1;
nodes = (
(762,0,l),
(762,203,l),
(389,203,l),
(741,567,l),
(741,750,l),
(47,750,l),
(47,548,l),
(368,548,l),
(35,183,l),
(35,0,l)
);
}
);
width = 789;
}
);
note = z;
unicode = 122;
},
{
glyphname = a.ss01;
lastChange = "2023-09-13 04:36:28 +0000";
layers = (
{
anchors = (
{
name = bottom;
pos = (452,0);
},
{
name = ogonek;
pos = (737,0);
},
{
name = top;
pos = (411,750);
}
);
layerId = "F5467FAD-1970-4982-B3D3-939C01050498";
shapes = (
{
closed = 1;
nodes = (
(800,750,l),
(732,750,l),
(732,597,l),
(756,378,l),
(732,177,l),
(732,0,l),
(798,0,l)
);
},
{
closed = 1;
nodes = (
(659,-18,o),
(758,203,o),
(758,378,cs),
(758,555,o),
(651,770,o),
(419,770,cs),
(191,770,o),
(45,605,o),
(45,378,cs),
(45,150,o),
(191,-18,o),
(419,-18,cs)
);
},
{
closed = 1;
nodes = (
(236,27,o),
(113,185,o),
(113,378,cs),
(113,569,o),
(233,726,o),
(417,726,cs),
(599,726,o),
(750,591,o),
(750,378,cs),
(750,161,o),
(600,27,o),
(419,27,cs)
);
}
);
width = 875;
},
{
anchors = (
{
name = bottom;
pos = (489,0);
},
{
name = ogonek;
pos = (675,0);
},
{
name = top;
pos = (471,750);
}
);
layerId = "6DD95C5A-998B-41AB-BDFB-84A73C209871";
shapes = (
{
closed = 1;
nodes = (
(905,750,l),
(675,750,l),
(675,710,l),
(705,378,l),
(675,39,l),
(675,0,l),
(903,0,l)
);
},
{
closed = 1;
nodes = (
(669,-13,o),
(716,117,o),
(716,378,cs),
(716,638,o),
(656,768,o),
(426,768,cs),
(188,768,o),
(30,591,o),
(30,378,cs),
(30,167,o),
(188,-13,o),
(426,-13,cs)
);
},
{
closed = 1;
nodes = (
(348,153,o),
(275,243,o),
(275,378,cs),
(275,512,o),
(347,603,o),
(471,603,cs),
(611,603,o),
(690,518,o),
(690,378,cs),
(690,230,o),
(605,153,o),
(471,153,cs)
);
}
);
width = 957;
},
{
anchors = (
{
name = bottom;
pos = (446,0);
},
{
name = ogonek;
pos = (747,0);
},
{
name = top;
pos = (402,750);
}
);
layerId = "1FDC7037-1F88-4969-8535-0F79C1EF19DB";
shapes = (
{
closed = 1;
nodes = (
(783,750,l),
(741,750,l),
(741,579,l),
(764,378,l),
(741,200,l),
(741,0,l),
(782,0,l)
);
},
{
closed = 1;
nodes = (
(657,-18,o),
(764,216,o),
(764,378,cs),
(764,542,o),
(651,770,o),
(417,770,cs),
(191,770,o),
(48,606,o),
(48,378,cs),
(48,147,o),
(191,-18,o),
(417,-18,cs)
);
},
{
closed = 1;
nodes = (
(218,8,o),
(87,176,o),
(87,378,cs),
(87,578,o),
(215,746,o),
(408,746,cs),
(597,746,o),
(759,603,o),
(759,378,cs),
(759,150,o),
(600,8,o),
(410,8,cs)
);
}
);
width = 861;
},
{
anchors = (
{
name = bottom;
pos = (498,0);
},
{
name = ogonek;
pos = (660,0);
},
{
name = top;
pos = (486,750);
}
);
layerId = "3ED9E848-BE83-4CAC-8EFF-D71BD2B4F667";
shapes = (
{
closed = 1;
nodes = (
(930,750,l),
(662,750,l),
(662,737,l),
(693,378,l),
(662,5,l),
(662,0,l),
(929,0,l)
);
},
{
closed = 1;
nodes = (
(672,-12,o),
(705,96,o),
(705,378,cs),
(705,659,o),
(657,768,o),
(428,768,cs),
(188,768,o),
(27,588,o),
(27,378,cs),
(27,171,o),
(188,-12,o),
(428,-12,cs)
);
},
{
closed = 1;
nodes = (
(375,185,o),
(315,258,o),
(315,378,cs),
(315,498,o),
(375,573,o),
(485,573,cs),
(614,573,o),
(675,500,o),
(675,378,cs),
(675,246,o),
(606,185,o),
(485,185,cs)
);
}
);
width = 977;
}
);
},
{
glyphname = f.ss02;
lastChange = "2023-09-13 04:36:28 +0000";
layers = (
{
layerId = "F5467FAD-1970-4982-B3D3-939C01050498";
shapes = (
{
closed = 1;
nodes = (
(519,699,l),
(519,752,l),
(14,752,l),
(14,699,l)
);
},
{
closed = 1;
nodes = (
(222,1140,o),
(186,953,o),
(186,855,cs),
(186,0,l),
(252,0,l),
(252,855,ls),
(252,1031,o),
(321,1098,o),
(461,1098,cs),
(539,1098,o),
(590,1058,o),
(629,1014,c),
(686,1055,l),
(642,1098,o),
(576,1140,o),
(461,1140,cs)
);
}
);
width = 635;
},
{
layerId = "6DD95C5A-998B-41AB-BDFB-84A73C209871";
shapes = (
{
closed = 1;
nodes = (
(603,578,l),
(603,752,l),
(11,752,l),
(11,578,l)
);
},
{
closed = 1;
nodes = (
(231,1140,o),
(162,966,o),
(162,843,cs),
(162,0,l),
(390,0,l),
(390,843,ls),
(390,908,o),
(420,965,o),
(507,965,cs),
(579,965,o),
(597,894,o),
(606,858,c),
(773,984,l),
(744,1025,o),
(653,1140,o),
(477,1140,cs)
);
}
);
width = 596;
},
{
layerId = "1FDC7037-1F88-4969-8535-0F79C1EF19DB";
shapes = (
{
closed = 1;
nodes = (
(506,719,l),
(506,752,l),
(14,752,l),
(14,719,l)
);
},
{
closed = 1;
nodes = (
(221,1140,o),
(191,951,o),
(191,857,cs),
(191,0,l),
(230,0,l),
(230,857,ls),
(230,1050,o),
(305,1119,o),
(453,1119,cs),
(533,1119,o),
(588,1083,o),
(632,1040,c),
(672,1067,l),
(626,1110,o),
(564,1140,o),
(458,1140,cs)
);
}
);
width = 641;
},
{
layerId = "3ED9E848-BE83-4CAC-8EFF-D71BD2B4F667";
shapes = (
{
closed = 1;
nodes = (
(624,548,l),
(624,752,l),
(11,752,l),
(11,548,l)
);
},
{
closed = 1;
nodes = (
(233,1140,o),
(156,969,o),
(156,840,cs),
(156,0,l),
(425,0,l),
(425,840,ls),
(425,878,o),
(444,932,o),
(519,932,cs),
(590,932,o),
(599,854,o),
(600,819,c),
(794,966,l),
(770,1007,o),
(672,1140,o),
(482,1140,cs)
);
}
);
width = 586;
}
);
},
{
glyphname = f_f_ij;
lastChange = "2023-09-13 04:36:28 +0000";
layers = (
{
anchors = (
{
name = bottom_1;
pos = (258,0);
},
{
name = bottom_2;
pos = (774,0);
},
{
name = bottom_3;
pos = (1290,0);
},
{
name = caret_1;
pos = (516,0);
},
{
name = caret_2;
pos = (1032,0);
},
{
name = top_1;
pos = (258,1500);
},
{
name = top_2;
pos = (774,1500);
},
{
name = top_3;
pos = (1290,1500);
}
);
layerId = "F5467FAD-1970-4982-B3D3-939C01050498";
shapes = (
{
closed = 1;
nodes = (
(1106,0,l),
(1106,750,l),
(663,752,l),
(542,794,o),
(525,860,o),
(525,917,cs),
(525,1031,o),
(621,1091,o),
(770,1091,cs),
(900,1091,o),
(983,1010,o),
(1017,974,c),
(1106,972,l),
(1106,1056,l),
(1032,1056,l),
(980,1091,o),
(899,1133,o),
(770,1133,cs),
(542,1133,o),
(471,1001,o),
(471,923,cs),
(471,852,o),
(512,782,o),
(588,752,c),
(392,752,l),
(392,699,l),
(551,699,l),
(549,2,l),
(615,2,l),
(615,699,l),
(1040,699,l),
(1040,0,l)
);
},
{
ref = f;
},
{
pos = (1242,0);
ref = j;
}
);
width = 1548;
},
{
anchors = (
{
name = bottom_1;
pos = (314,0);
},
{
name = bottom_2;
pos = (942,0);
},
{
name = bottom_3;
pos = (1571,0);
},
{
name = caret_1;
pos = (628,0);
},
{
name = caret_2;
pos = (1256,0);
},
{
name = top_1;
pos = (314,1500);
},
{
name = top_2;
pos = (942,1500);
},
{
name = top_3;
pos = (1571,1500);
}
);
layerId = "6DD95C5A-998B-41AB-BDFB-84A73C209871";
shapes = (
{
closed = 1;
nodes = (
(1275,0,l),
(1275,752,l),
(794,752,l),
(744,777,o),
(729,819,o),
(729,858,cs),
(729,924,o),
(785,951,o),
(833,951,cs),
(911,951,o),
(942,933,o),
(1022,842,c),
(1275,842,l),
(1275,1040,l),
(1043,1040,l),
(1019,1059,o),
(936,1107,o),
(833,1107,cs),
(615,1107,o),
(530,966,o),
(530,863,cs),
(530,831,o),
(533,792,o),
(558,752,c),
(443,752,l),
(443,578,l),
(575,578,l),
(573,0,l),
(801,0,l),
(801,578,l),
(1047,578,l),
(1047,0,l)
);
},
{
ref = f;
},
{
pos = (1416,0);
ref = j;
}
);
width = 1884;
},
{
anchors = (
{
name = bottom_1;
pos = (249,0);
},
{
name = bottom_2;
pos = (747,0);
},
{
name = bottom_3;
pos = (1245,0);
},
{
name = caret_1;
pos = (498,0);
},
{
name = caret_2;
pos = (996,0);
},
{
name = top_1;
pos = (249,1500);
},
{
name = top_2;
pos = (747,1500);
},
{
name = top_3;
pos = (1245,1500);
}
);
layerId = "1FDC7037-1F88-4969-8535-0F79C1EF19DB";
shapes = (
{
closed = 1;
nodes = (
(1079,0,l),
(1079,750,l),
(642,752,l),
(509,797,o),
(492,866,o),
(492,926,cs),
(492,1047,o),
(596,1113,o),
(759,1113,cs),
(899,1113,o),
(989,1022,o),
(1017,995,c),
(1079,993,l),
(1079,1059,l),
(1031,1059,l),
(974,1095,o),
(893,1137,o),
(759,1137,cs),
(530,1137,o),
(462,1007,o),
(462,932,cs),
(462,855,o),
(509,780,o),
(593,752,c),
(384,752,l),
(384,719,l),
(546,719,l),
(545,2,l),
(585,2,l),
(585,719,l),
(1038,719,l),
(1038,0,l)
);
},
{
alignment = -1;
ref = f;
},
{
alignment = -1;
pos = (1214,0);
ref = j;
}
);
width = 1494;
},
{
anchors = (
{
name = bottom_1;
pos = (329,0);
},
{
name = bottom_2;
pos = (984,0);
},
{
name = bottom_3;
pos = (1640,0);
},
{
name = caret_1;
pos = (656,0);
},
{
name = caret_2;
pos = (1312,0);
},
{
name = top_1;
pos = (329,1500);
},
{
name = top_2;
pos = (984,1500);
},
{
name = top_3;
pos = (1640,1500);
}
);
layerId = "3ED9E848-BE83-4CAC-8EFF-D71BD2B4F667";
shapes = (
{
closed = 1;
nodes = (
(1317,0,l),
(1317,752,l),
(825,752,l),
(794,773,o),
(779,809,o),
(779,843,cs),
(779,899,o),
(825,917,o),
(848,917,cs),
(914,917,o),
(932,914,o),
(1023,809,c),
(1317,810,l),
(1317,1035,l),
(1046,1035,l),
(1028,1052,o),
(945,1101,o),
(848,1101,cs),
(633,1101,o),
(545,957,o),
(545,848,cs),
(545,827,o),
(537,795,o),
(551,752,c),
(455,752,l),
(455,548,l),
(581,548,l),
(579,0,l),
(848,0,l),
(848,548,l),
(1049,548,l),
(1049,0,l)
);
},
{
alignment = -1;
ref = f;
},
{
alignment = -1;
pos = (1460,0);
ref = j;
}
);
width = 1968;
}
);
metricLeft = f;
metricRight = ij;
},
{
glyphname = f_i;
lastChange = "2023-09-13 04:36:28 +0000";
layers = (
{
anchors = (
{
name = bottom_1;
pos = (212,0);
},
{
name = bottom_2;
pos = (636,0);
},
{
name = caret_1;
pos = (424,0);
},
{
name = top_1;
pos = (212,1500);
},
{
name = top_2;
pos = (636,1500);
}
);
layerId = "F5467FAD-1970-4982-B3D3-939C01050498";
shapes = (
{
closed = 1;
nodes = (
(728,0,l),
(728,750,l),
(285,752,l),
(164,794,o),
(147,860,o),
(147,917,cs),
(147,1031,o),
(243,1091,o),
(392,1091,cs),
(522,1091,o),
(605,1010,o),
(639,974,c),
(728,972,l),
(728,1056,l),
(654,1056,l),
(602,1091,o),
(521,1133,o),
(392,1133,cs),
(164,1133,o),
(93,1001,o),
(93,923,cs),
(93,852,o),
(134,782,o),
(210,752,c),
(14,752,l),
(14,699,l),
(173,699,l),
(171,2,l),
(237,2,l),
(237,699,l),
(662,699,l),
(662,0,l)
);
}
);
width = 848;
},
{
anchors = (
{
name = bottom_1;
pos = (242,0);
},
{
name = bottom_2;
pos = (723,0);
},
{
name = caret_1;
pos = (482,0);
},
{
name = top_1;
pos = (242,1500);
},
{
name = top_2;
pos = (723,1500);
}
);
layerId = "6DD95C5A-998B-41AB-BDFB-84A73C209871";
shapes = (
{
closed = 1;
nodes = (
(843,0,l),
(843,752,l),
(362,752,l),
(312,777,o),
(297,819,o),
(297,858,cs),
(297,924,o),
(353,951,o),
(401,951,cs),
(479,951,o),
(510,933,o),
(590,842,c),
(843,842,l),
(843,1040,l),
(611,1040,l),
(587,1059,o),
(504,1107,o),
(401,1107,cs),
(183,1107,o),
(98,966,o),
(98,863,cs),
(98,831,o),
(101,792,o),
(126,752,c),
(11,752,l),
(11,578,l),
(143,578,l),
(141,0,l),
(369,0,l),
(369,578,l),
(615,578,l),
(615,0,l)
);
}
);
width = 963;
},
{
anchors = (
{
name = bottom_1;
pos = (207,0);
},
{
name = bottom_2;
pos = (623,0);
},
{
name = caret_1;
pos = (415,0);
},
{
name = top_1;
pos = (207,1500);
},
{
name = top_2;
pos = (623,1500);
}
);
layerId = "1FDC7037-1F88-4969-8535-0F79C1EF19DB";
shapes = (
{
closed = 1;
nodes = (
(710,0,l),
(710,750,l),
(273,752,l),
(140,797,o),
(123,866,o),
(123,926,cs),
(123,1047,o),
(225,1113,o),
(390,1113,cs),
(530,1113,o),
(620,1022,o),
(647,995,c),
(710,993,l),
(710,1059,l),
(662,1059,l),
(605,1095,o),
(524,1137,o),
(390,1137,cs),
(161,1137,o),
(93,1007,o),
(93,932,cs),
(93,855,o),
(140,780,o),
(224,752,c),
(14,752,l),
(14,719,l),
(177,719,l),
(176,2,l),
(216,2,l),
(216,719,l),
(669,719,l),
(669,0,l)
);
}
);
width = 829;
},
{
anchors = (
{
name = bottom_1;
pos = (248,0);
},
{
name = bottom_2;
pos = (744,0);
},
{
name = caret_1;
pos = (496,0);
},
{
name = top_1;
pos = (248,1500);
},
{
name = top_2;
pos = (744,1500);
}
);
layerId = "3ED9E848-BE83-4CAC-8EFF-D71BD2B4F667";
shapes = (
{
closed = 1;
nodes = (
(872,0,l),
(872,752,l),
(381,752,l),
(348,773,o),
(335,809,o),
(335,843,cs),
(335,899,o),
(380,917,o),
(402,917,cs),
(468,917,o),
(488,914,o),
(578,809,c),
(872,810,l),
(872,1035,l),
(600,1035,l),
(584,1052,o),
(500,1101,o),
(402,1101,cs),
(188,1101,o),
(99,957,o),
(99,848,cs),
(99,827,o),
(93,795,o),
(105,752,c),
(11,752,l),
(11,548,l),
(135,548,l),
(134,0,l),
(402,0,l),
(402,548,l),
(603,548,l),
(603,0,l)
);
}
);
width = 991;
}
);
metricLeft = f;
metricRight = i;
},
{
glyphname = fi;
lastChange = "2023-09-13 04:36:28 +0000";
layers = (
{
anchors = (
{
name = caret_1;
pos = (424,0);
}
);
layerId = "F5467FAD-1970-4982-B3D3-939C01050498";
shapes = (
{
closed = 1;
nodes = (
(728,0,l),
(728,750,l),
(285,752,l),
(164,794,o),
(147,860,o),
(147,917,cs),
(147,1031,o),
(243,1091,o),
(392,1091,cs),
(522,1091,o),
(605,1010,o),
(639,974,c),
(728,972,l),
(728,1056,l),
(654,1056,l),
(602,1091,o),
(521,1133,o),
(392,1133,cs),
(164,1133,o),
(93,1001,o),
(93,923,cs),
(93,852,o),
(134,782,o),
(210,752,c),
(14,752,l),
(14,699,l),
(173,699,l),
(171,2,l),
(237,2,l),
(237,699,l),
(662,699,l),
(662,0,l)
);
}
);
width = 848;
},
{
anchors = (
{
name = caret_1;
pos = (482,0);
}
);
layerId = "6DD95C5A-998B-41AB-BDFB-84A73C209871";
shapes = (
{
closed = 1;
nodes = (
(843,0,l),
(843,752,l),
(362,752,l),
(312,777,o),
(297,819,o),
(297,858,cs),
(297,924,o),
(353,951,o),
(401,951,cs),
(479,951,o),
(510,933,o),
(590,842,c),
(843,842,l),
(843,1040,l),
(611,1040,l),
(587,1059,o),
(504,1107,o),
(401,1107,cs),
(183,1107,o),
(98,966,o),
(98,863,cs),
(98,807,o),
(123,762,o),
(162,749,c),
(11,752,l),
(11,578,l),
(143,578,l),
(141,0,l),
(369,0,l),
(369,578,l),
(615,578,l),
(615,0,l)
);
}
);
width = 963;
},
{
anchors = (
{
name = caret_1;
pos = (415,0);
}
);
layerId = "1FDC7037-1F88-4969-8535-0F79C1EF19DB";
shapes = (
{
closed = 1;
nodes = (
(710,0,l),
(710,750,l),
(273,752,l),
(140,797,o),
(123,866,o),
(123,926,cs),
(123,1047,o),
(225,1113,o),
(390,1113,cs),
(530,1113,o),
(620,1022,o),
(647,995,c),
(710,993,l),
(710,1059,l),
(662,1059,l),
(605,1095,o),
(524,1137,o),
(390,1137,cs),
(161,1137,o),
(93,1007,o),
(93,932,cs),
(93,860,o),
(135,785,o),
(218,752,c),
(14,752,l),
(14,719,l),
(177,719,l),
(176,2,l),
(216,2,l),
(216,719,l),
(669,719,l),
(669,0,l)
);
}
);
width = 829;
},
{
anchors = (
{
name = caret_1;
pos = (496,0);
}
);
layerId = "3ED9E848-BE83-4CAC-8EFF-D71BD2B4F667";
shapes = (
{
closed = 1;
nodes = (
(872,0,l),
(872,752,l),
(381,752,l),
(348,773,o),
(335,809,o),
(335,843,cs),
(335,899,o),
(380,917,o),
(402,917,cs),
(468,917,o),
(488,914,o),
(578,809,c),
(872,810,l),
(872,1035,l),
(600,1035,l),
(584,1052,o),
(500,1101,o),
(402,1101,cs),
(188,1101,o),
(99,957,o),
(99,848,cs),
(99,797,o),
(120,758,o),
(150,749,c),
(11,752,l),
(11,548,l),
(135,548,l),
(134,0,l),
(402,0,l),
(402,548,l),
(603,548,l),
(603,0,l)
);
}
);
width = 991;
}
);
metricLeft = f;
metricRight = i;
unicode = 64257;
},
{
glyphname = ordfeminine;
lastChange = "2023-09-13 04:36:28 +0000";
layers = (
{
layerId = "F5467FAD-1970-4982-B3D3-939C01050498";
shapes = (
{
closed = 1;
nodes = (
(342,557,o),
(417,621,o),
(446,704,c),
(446,572,l),
(492,572,l),
(492,893,ls),
(492,986,o),
(473,1101,o),
(282,1101,cs),
(185,1101,o),
(104,1053,o),
(81,996,cs),
(80,990,o),
(78,986,o),
(77,978,c),
(143,978,l),
(144,981,o),
(146,986,o),
(147,990,cs),
(162,1034,o),
(201,1083,o),
(282,1083,cs),
(402,1083,o),
(438,1010,o),
(438,953,cs),
(438,884,o),
(357,858,o),
(261,846,cs),
(96,827,o),
(38,777,o),
(38,699,cs),
(38,615,o),
(116,557,o),
(240,557,cs)
);
},
{
closed = 1;
nodes = (
(120,573,o),
(90,653,o),
(90,705,cs),
(90,773,o),
(138,813,o),
(258,828,cs),
(344,839,o),
(413,861,o),
(446,902,c),
(446,777,ls),
(446,683,o),
(371,573,o),
(240,573,cs)
);
}
);
width = 560;
},
{
layerId = "6DD95C5A-998B-41AB-BDFB-84A73C209871";
shapes = (
{
closed = 1;
nodes = (
(309,558,o),
(356,588,o),
(384,632,c),
(384,572,l),
(542,572,l),
(542,882,ls),
(542,963,o),
(522,1098,o),
(308,1098,cs),
(185,1098,o),
(78,1028,o),
(78,944,cs),
(78,933,o),
(81,923,o),
(83,912,c),
(236,912,l),
(236,912,o),
(234,917,o),
(234,921,cs),
(234,942,o),
(245,993,o),
(318,993,cs),
(362,993,o),
(383,974,o),
(383,938,cs),
(383,897,o),
(338,885,o),
(269,879,cs),
(99,863,o),
(38,804,o),
(38,719,cs),
(38,629,o),
(99,558,o),
(234,558,cs)
);
},
{
closed = 1;
nodes = (
(215,656,o),
(191,692,o),
(191,725,cs),
(191,767,o),
(230,786,o),
(278,792,cs),
(317,797,o),
(351,806,o),
(384,819,c),
(384,809,ls),
(384,696,o),
(326,656,o),
(264,656,cs)
);
}
);
width = 609;
},
{
layerId = "1FDC7037-1F88-4969-8535-0F79C1EF19DB";
shapes = (
{
closed = 1;
nodes = (
(348,557,o),
(428,627,o),
(456,716,c),
(456,572,l),
(485,572,l),
(485,894,ls),
(485,989,o),
(465,1101,o),
(278,1101,cs),
(185,1101,o),
(108,1058,o),
(81,1005,cs),
(80,999,o),
(78,996,o),
(75,989,c),
(128,989,l),
(129,992,o),
(132,996,o),
(134,1001,cs),
(150,1049,o),
(194,1098,o),
(276,1098,cs),
(408,1098,o),
(447,1016,o),
(447,956,cs),
(447,882,o),
(360,854,o),
(260,840,cs),
(96,821,o),
(38,773,o),
(38,696,cs),
(38,614,o),
(119,557,o),
(242,557,cs)
);
},
{
closed = 1;
nodes = (
(105,560,o),
(74,647,o),
(74,702,cs),
(74,774,o),
(123,818,o),
(255,834,cs),
(348,845,o),
(423,870,o),
(456,915,c),
(456,773,ls),
(456,681,o),
(378,560,o),
(236,560,cs)
);
}
);
width = 552;
},
{
layerId = "3ED9E848-BE83-4CAC-8EFF-D71BD2B4F667";
shapes = (
{
closed = 1;
nodes = (
(302,558,o),
(341,581,o),
(369,614,c),
(369,572,l),
(554,572,l),
(554,879,ls),
(554,957,o),
(534,1098,o),
(314,1098,cs),
(185,1098,o),
(72,1022,o),
(78,930,cs),
(78,920,o),
(81,908,o),
(84,896,c),
(258,896,l),
(258,896,o),
(255,900,o),
(255,905,cs),
(252,920,o),
(255,971,o),
(327,971,cs),
(351,971,o),
(369,965,o),
(369,935,cs),
(369,900,o),
(333,891,o),
(270,887,cs),
(99,872,o),
(38,810,o),
(38,723,cs),
(38,632,o),
(95,558,o),
(233,558,cs)
);
},
{
closed = 1;
nodes = (
(237,677,o),
(216,701,o),
(216,729,cs),
(216,765,o),
(252,780,o),
(282,783,cs),
(311,786,o),
(336,792,o),
(369,798,c),
(369,816,ls),
(369,699,o),
(315,677,o),
(270,677,cs)
);
}
);
width = 621;
}
);
note = ordfeminine;
unicode = 170;
},
{
glyphname = ordmasculine;
lastChange = "2023-09-13 04:36:28 +0000";
layers = (
{
layerId = "F5467FAD-1970-4982-B3D3-939C01050498";
shapes = (
{
closed = 1;
nodes = (
(468,551,o),
(575,667,o),
(575,821,cs),
(575,976,o),
(466,1095,o),
(308,1095,cs),
(149,1095,o),
(40,976,o),
(40,821,cs),
(40,667,o),
(148,551,o),
(308,551,cs)
);
},
{
closed = 1;
nodes = (
(175,563,o),
(92,682,o),
(92,821,cs),
(92,961,o),
(175,1081,o),
(308,1081,cs),
(440,1081,o),
(523,961,o),
(523,821,cs),
(523,682,o),
(440,563,o),
(308,563,cs)
);
}
);
width = 570;
},
{
layerId = "6DD95C5A-998B-41AB-BDFB-84A73C209871";
shapes = (
{
closed = 1;
nodes = (
(488,553,o),
(601,677,o),
(601,821,cs),
(601,966,o),
(488,1093,o),
(322,1093,cs),
(155,1093,o),
(42,966,o),
(42,821,cs),
(42,677,o),
(155,553,o),
(322,553,cs)
);
},
{
closed = 1;
nodes = (
(247,662,o),
(190,714,o),
(190,821,cs),
(190,930,o),
(247,982,o),
(322,982,cs),
(396,982,o),
(453,930,o),
(453,821,cs),
(453,714,o),
(396,662,o),
(322,662,cs)
);
}
);
width = 570;
},
{
layerId = "1FDC7037-1F88-4969-8535-0F79C1EF19DB";
shapes = (
{
closed = 1;
nodes = (
(465,551,o),
(572,666,o),
(572,821,cs),
(572,978,o),
(464,1097,o),
(306,1097,cs),
(149,1097,o),
(39,978,o),
(39,821,cs),
(39,666,o),
(147,551,o),
(306,551,cs)
);
},
{
closed = 1;
nodes = (
(164,548,o),
(77,678,o),
(77,821,cs),
(77,966,o),
(164,1097,o),
(306,1097,cs),
(447,1097,o),
(534,966,o),
(534,821,cs),
(534,678,o),
(447,548,o),
(306,548,cs)
);
}
);
width = 570;
},
{
layerId = "3ED9E848-BE83-4CAC-8EFF-D71BD2B4F667";
shapes = (
{
closed = 1;
nodes = (
(494,554,o),
(608,680,o),
(608,821,cs),
(608,963,o),
(494,1094,o),
(326,1094,cs),
(156,1094,o),
(44,963,o),
(44,821,cs),
(44,680,o),
(158,554,o),
(326,554,cs)
);
},
{
closed = 1;
nodes = (
(266,686,o),
(213,722,o),
(213,821,cs),
(213,923,o),
(266,957,o),
(326,957,cs),
(386,957,o),
(437,923,o),
(437,821,cs),
(437,722,o),
(386,686,o),
(326,686,cs)
);
}
);
width = 570;
}
);
note = ordmasculine;
unicode = 186;
},
{
glyphname = Delta;
lastChange = "2023-09-13 04:36:28 +0000";
layers = (
{
layerId = "F5467FAD-1970-4982-B3D3-939C01050498";
shapes = (
{
closed = 1;
nodes = (
(917,0,l),
(917,57,l),
(531,1050,l),
(447,1050,l),
(62,57,l),
(62,0,l)
);
},
{
closed = 1;
nodes = (
(489,992,l),
(852,57,l),
(126,57,l)
);
}
);
width = 978;
},
{
layerId = "6DD95C5A-998B-41AB-BDFB-84A73C209871";
shapes = (
{
closed = 1;
nodes = (
(978,0,l),
(978,197,l),
(617,1050,l),
(362,1050,l),
(0,197,l),
(0,0,l)
);
},
{
closed = 1;
nodes = (
(489,840,l),
(732,197,l),
(246,197,l)
);
}
);
width = 978;
},
{
layerId = "1FDC7037-1F88-4969-8535-0F79C1EF19DB";
shapes = (
{
closed = 1;
nodes = (
(906,0,l),
(906,35,l),
(518,1050,l),
(461,1050,l),
(72,35,l),
(72,0,l)
);
},
{
closed = 1;
nodes = (
(489,1017,l),
(872,35,l),
(107,35,l)
);
}
);
width = 978;
},
{
layerId = "3ED9E848-BE83-4CAC-8EFF-D71BD2B4F667";
shapes = (
{
closed = 1;
nodes = (
(993,0,l),
(993,231,l),
(638,1050,l),
(341,1050,l),
(-15,231,l),
(-15,0,l)
);
},
{
closed = 1;
nodes = (
(489,803,l),
(702,231,l),
(276,231,l)
);
}
);
width = 978;
}
);
note = Delta;
unicode = 916;
},
{
glyphname = Omega;
lastChange = "2023-09-13 04:36:28 +0000";
layers = (
{
layerId = "F5467FAD-1970-4982-B3D3-939C01050498";
shapes = (
{
closed = 1;
nodes = (
(402,0,l),
(402,81,l),
(219,144,o),
(110,323,o),
(110,539,cs),
(110,800,o),
(294,1011,o),
(569,1011,cs),
(845,1011,o),
(1028,800,o),
(1028,539,cs),
(1028,323,o),
(917,143,o),
(734,81,c),
(734,0,l),
(1113,0,l),
(1113,66,l),
(825,66,l),
(999,111,o),
(1092,360,o),
(1092,539,cs),
(1092,819,o),
(885,1058,o),
(569,1058,cs),
(252,1058,o),
(47,819,o),
(47,539,cs),
(47,410,o),
(107,126,o),
(320,66,c),
(23,66,l),
(23,0,l)
);
}
);
width = 1137;
},
{
layerId = "6DD95C5A-998B-41AB-BDFB-84A73C209871";
shapes = (
{
closed = 1;
nodes = (
(471,0,l),
(471,165,l),
(308,203,o),
(207,350,o),
(207,537,cs),
(207,747,o),
(351,911,o),
(569,911,cs),
(788,911,o),
(930,747,o),
(930,537,cs),
(930,350,o),
(828,201,o),
(665,165,c),
(665,0,l),
(1112,0,l),
(1112,165,l),
(939,165,l),
(1046,261,o),
(1122,399,o),
(1122,537,cs),
(1122,816,o),
(884,1058,o),
(569,1058,cs),
(254,1058,o),
(15,816,o),
(15,537,cs),
(15,399,o),
(92,260,o),
(203,165,c),
(24,165,l),
(24,0,l)
);
}
);
width = 1137;
},
{
layerId = "1FDC7037-1F88-4969-8535-0F79C1EF19DB";
shapes = (
{
closed = 1;
nodes = (
(392,0,l),
(392,68,l),
(206,135,o),
(95,318,o),
(95,539,cs),
(95,809,o),
(285,1028,o),
(569,1028,cs),
(854,1028,o),
(1043,809,o),
(1043,539,cs),
(1043,318,o),
(930,134,o),
(744,68,c),
(744,0,l),
(1113,0,l),
(1113,50,l),
(807,50,l),
(992,87,o),
(1088,354,o),
(1088,539,cs),
(1088,819,o),
(885,1058,o),
(569,1058,cs),
(252,1058,o),
(51,819,o),
(51,539,cs),
(51,411,o),
(110,105,o),
(338,50,c),
(23,50,l),
(23,0,l)
);
}
);
width = 1137;
},
{
layerId = "3ED9E848-BE83-4CAC-8EFF-D71BD2B4F667";
shapes = (
{
closed = 1;
nodes = (
(488,0,l),
(488,186,l),
(329,218,o),
(231,356,o),
(231,537,cs),
(231,734,o),
(365,887,o),
(569,887,cs),
(774,887,o),
(906,734,o),
(906,537,cs),
(906,356,o),
(807,216,o),
(648,186,c),
(648,0,l),
(1112,0,l),
(1112,189,l),
(968,189,l),
(1058,299,o),
(1130,408,o),
(1130,537,cs),
(1130,816,o),
(884,1058,o),
(569,1058,cs),
(254,1058,o),
(8,816,o),
(8,537,cs),
(8,396,o),
(89,293,o),
(174,189,c),
(24,189,l),
(24,0,l)
);
}
);
width = 1137;
}
);
note = Omega;
unicode = 937;
},
{
glyphname = mu;
lastChange = "2023-09-13 04:36:28 +0000";
layers = (
{
layerId = "F5467FAD-1970-4982-B3D3-939C01050498";
shapes = (
{
closed = 1;
nodes = (
(143,-300,l),
(143,120,l),
(191,33,o),
(275,-10,o),
(386,-10,cs),
(518,-10,o),
(632,35,o),
(689,158,c),
(689,0,l),
(752,0,l),
(752,750,l),
(689,750,l),
(689,320,ls),
(689,108,o),
(509,32,o),
(386,32,cs),
(221,32,o),
(143,177,o),
(143,282,cs),
(143,750,l),
(80,750,l),
(80,-300,l)
);
}
);
width = 834;
},
{
layerId = "6DD95C5A-998B-41AB-BDFB-84A73C209871";
shapes = (
{
closed = 1;
nodes = (
(264,-300,l),
(264,-7,l),
(296,-13,o),
(332,-18,o),
(374,-18,cs),
(450,-18,o),
(517,-1,o),
(570,33,c),
(570,-9,l),
(801,-9,l),
(801,750,l),
(570,750,l),
(570,376,ls),
(566,183,o),
(472,144,o),
(390,144,cs),
(296,144,o),
(264,204,o),
(264,305,cs),
(264,750,l),
(33,750,l),
(33,-300,l)
);
}
);
width = 834;
},
{
layerId = "1FDC7037-1F88-4969-8535-0F79C1EF19DB";
shapes = (
{
closed = 1;
nodes = (
(123,-300,l),
(123,141,l),
(174,41,o),
(266,-9,o),
(387,-9,cs),
(528,-9,o),
(650,41,o),
(708,177,c),
(708,2,l),
(744,2,l),
(744,750,l),
(708,750,l),
(708,311,ls),
(708,96,o),
(515,14,o),
(386,14,cs),
(209,14,o),
(123,173,o),
(123,279,cs),
(123,750,l),
(87,750,l),
(87,-300,l)
);
}
);
width = 834;
},
{
layerId = "3ED9E848-BE83-4CAC-8EFF-D71BD2B4F667";
shapes = (
{
closed = 1;
nodes = (
(294,-300,l),
(294,-39,l),
(321,-25,o),
(347,-19,o),
(371,-19,cs),
(434,-19,o),
(489,-9,o),
(542,2,c),
(542,-10,l),
(813,-10,l),
(813,750,l),
(542,750,l),
(542,390,ls),
(536,201,o),
(462,171,o),
(392,171,cs),
(314,171,o),
(294,210,o),
(294,311,cs),
(294,750,l),
(21,750,l),
(21,-300,l)
);
}
);
width = 834;
}
);
note = mu;
unicode = 956;
},
{
glyphname = pi;
lastChange = "2023-09-13 04:36:28 +0000";
layers = (
{
layerId = "F5467FAD-1970-4982-B3D3-939C01050498";
shapes = (
{
closed = 1;
nodes = (
(261,0,l),
(261,695,l),
(639,695,l),
(639,0,l),
(714,0,l),
(714,695,l),
(870,695,l),
(870,750,l),
(35,750,l),
(35,695,l),
(186,695,l),
(186,0,l)
);
}
);
width = 900;
},
{
layerId = "6DD95C5A-998B-41AB-BDFB-84A73C209871";
shapes = (
{
closed = 1;
nodes = (
(372,-4,l),
(372,561,l),
(530,561,l),
(530,-4,l),
(770,-4,l),
(770,561,l),
(906,561,l),
(906,758,l),
(-1,758,l),
(-1,561,l),
(132,561,l),
(132,-4,l)
);
}
);
width = 900;
},
{
layerId = "1FDC7037-1F88-4969-8535-0F79C1EF19DB";
shapes = (
{
closed = 1;
nodes = (
(243,0,l),
(243,716,l),
(657,716,l),
(657,0,l),
(705,0,l),
(705,716,l),
(864,716,l),
(864,749,l),
(41,749,l),
(41,716,l),
(195,716,l),
(195,0,l)
);
}
);
width = 900;
},
{
layerId = "3ED9E848-BE83-4CAC-8EFF-D71BD2B4F667";
shapes = (
{
closed = 1;
nodes = (
(399,-6,l),
(399,528,l),
(503,528,l),
(503,-6,l),
(783,-6,l),
(783,528,l),
(915,528,l),
(915,759,l),
(-10,759,l),
(-10,528,l),
(119,528,l),
(119,-6,l)
);
}
);
width = 900;
}
);
note = pi;
unicode = 960;
},
{
glyphname = zero;
kernRight = zero;
lastChange = "2023-09-13 04:36:28 +0000";
layers = (
{
layerId = "F5467FAD-1970-4982-B3D3-939C01050498";
shapes = (
{
closed = 1;
nodes = (
(768,-19,o),
(924,194,o),
(924,522,cs),
(924,851,o),
(768,1064,o),
(488,1064,cs),
(209,1064,o),
(54,851,o),
(54,522,cs),
(54,194,o),
(209,-19,o),
(488,-19,cs)
);
},
{
closed = 1;
nodes = (
(260,21,o),
(122,212,o),
(122,522,cs),
(122,833,o),
(260,1023,o),
(488,1023,cs),
(714,1023,o),
(857,833,o),
(857,522,cs),
(857,212,o),
(714,21,o),
(488,21,cs)
);
}
);
width = 978;
},
{
layerId = "6DD95C5A-998B-41AB-BDFB-84A73C209871";
shapes = (
{
closed = 1;
nodes = (
(825,-18,o),
(989,210,o),
(989,522,cs),
(989,834,o),
(825,1062,o),
(519,1062,cs),
(215,1062,o),
(53,834,o),
(53,522,cs),
(53,210,o),
(215,-18,o),
(519,-18,cs)
);
},
{
closed = 1;
nodes = (
(383,149,o),
(285,278,o),
(285,522,cs),
(285,767,o),
(383,896,o),
(519,896,cs),
(657,896,o),
(756,767,o),
(756,522,cs),
(756,278,o),
(657,149,o),
(519,149,cs)
);
}
);
width = 1041;
},
{
layerId = "1FDC7037-1F88-4969-8535-0F79C1EF19DB";
shapes = (
{
closed = 1;
nodes = (
(759,-19,o),
(914,191,o),
(914,522,cs),
(914,854,o),
(759,1064,o),
(483,1064,cs),
(207,1064,o),
(54,854,o),
(54,522,cs),
(54,191,o),
(207,-19,o),
(483,-19,cs)
);
},
{
closed = 1;
nodes = (
(240,0,o),
(96,201,o),
(96,522,cs),
(96,843,o),
(240,1044,o),
(483,1044,cs),
(723,1044,o),
(873,843,o),
(873,522,cs),
(873,201,o),
(723,0,o),
(483,0,cs)
);
}
);
width = 968;
},
{
layerId = "3ED9E848-BE83-4CAC-8EFF-D71BD2B4F667";
shapes = (
{
closed = 1;
nodes = (
(839,-18,o),
(1005,215,o),
(1005,522,cs),
(1005,830,o),
(839,1062,o),
(527,1062,cs),
(216,1062,o),
(53,830,o),
(53,522,cs),
(53,215,o),
(216,-18,o),
(527,-18,cs)
);
},
{
closed = 1;
nodes = (
(413,180,o),
(326,294,o),
(326,522,cs),
(326,750,o),
(413,864,o),
(527,864,cs),
(644,864,o),
(732,750,o),
(732,522,cs),
(732,294,o),
(644,180,o),
(527,180,cs)
);
}
);
width = 1056;
}
);
note = zero;
unicode = 48;
},
{
glyphname = one;
kernRight = one;
lastChange = "2023-09-13 04:36:28 +0000";
layers = (
{
layerId = "F5467FAD-1970-4982-B3D3-939C01050498";
shapes = (
{
closed = 1;
nodes = (
(423,0,l),
(423,1050,l),
(351,1050,l),
(351,1031,ls),
(351,999,o),
(315,981,o),
(270,971,cs),
(216,959,o),
(149,957,o),
(113,959,c),
(113,930,l),
(360,930,l),
(360,0,l)
);
}
);
width = 566;
},
{
layerId = "6DD95C5A-998B-41AB-BDFB-84A73C209871";
shapes = (
{
closed = 1;
nodes = (
(492,0,l),
(492,1050,l),
(261,1050,l),
(261,1023,ls),
(261,971,o),
(213,943,o),
(140,943,cs),
(112,943,o),
(80,947,o),
(44,956,c),
(44,806,l),
(261,806,l),
(261,0,l)
);
}
);
width = 566;
},
{
layerId = "1FDC7037-1F88-4969-8535-0F79C1EF19DB";
shapes = (
{
closed = 1;
nodes = (
(413,0,l),
(413,1050,l),
(366,1050,l),
(366,1032,ls),
(366,1004,o),
(332,987,o),
(291,975,cs),
(233,962,o),
(159,959,o),
(123,959,c),
(123,950,l),
(377,950,l),
(377,0,l)
);
}
);
width = 566;
},
{
layerId = "3ED9E848-BE83-4CAC-8EFF-D71BD2B4F667";
shapes = (
{
closed = 1;
nodes = (
(509,0,l),
(509,1050,l),
(239,1050,l),
(239,1022,ls),
(239,963,o),
(188,935,o),
(108,936,cs),
(87,939,o),
(63,945,o),
(27,956,c),
(27,776,l),
(237,776,l),
(237,0,l)
);
}
);
width = 566;
}
);
note = one;
unicode = 49;
},
{
glyphname = two;
lastChange = "2023-09-13 04:36:28 +0000";
layers = (
{
layerId = "F5467FAD-1970-4982-B3D3-939C01050498";
shapes = (
{
closed = 1;
nodes = (
(741,0,l),
(741,60,l),
(141,60,l),
(365,365,o),
(725,475,o),
(725,788,cs),
(725,971,o),
(611,1070,o),
(402,1070,cs),
(260,1070,o),
(125,1002,o),
(90,834,c),
(161,842,l),
(182,951,o),
(279,1028,o),
(402,1028,cs),
(554,1028,o),
(662,950,o),
(662,779,cs),
(662,497,o),
(285,369,o),
(65,51,c),
(65,0,l)
);
}
);
width = 806;
},
{
layerId = "6DD95C5A-998B-41AB-BDFB-84A73C209871";
shapes = (
{
closed = 1;
nodes = (
(803,0,l),
(803,185,l),
(335,185,l),
(426,302,o),
(774,412,o),
(774,740,cs),
(774,926,o),
(656,1070,o),
(417,1070,cs),
(210,1070,o),
(36,944,o),
(66,728,c),
(296,750,l),
(278,840,o),
(323,906,o),
(417,906,cs),
(495,906,o),
(546,848,o),
(545,743,cs),
(540,455,o),
(125,314,o),
(35,150,c),
(33,0,l)
);
}
);
width = 836;
},
{
layerId = "1FDC7037-1F88-4969-8535-0F79C1EF19DB";
shapes = (
{
closed = 1;
nodes = (
(731,0,l),
(731,41,l),
(110,41,l),
(354,375,o),
(717,485,o),
(717,797,cs),
(717,978,o),
(603,1070,o),
(399,1070,cs),
(267,1070,o),
(138,1011,o),
(95,851,c),
(140,857,l),
(167,969,o),
(272,1047,o),
(399,1047,cs),
(563,1047,o),
(680,966,o),
(681,785,cs),
(681,503,o),
(311,378,o),
(69,35,c),
(69,0,l)
);
}
);
width = 801;
},
{
layerId = "3ED9E848-BE83-4CAC-8EFF-D71BD2B4F667";
shapes = (
{
closed = 1;
nodes = (
(818,0,l),
(818,215,l),
(383,215,l),
(441,287,o),
(786,396,o),
(786,728,cs),
(786,915,o),
(668,1070,o),
(420,1070,cs),
(198,1070,o),
(15,929,o),
(60,702,c),
(329,728,l),
(302,813,o),
(333,876,o),
(422,876,cs),
(480,876,o),
(518,822,o),
(516,734,cs),
(510,444,o),
(86,300,o),
(27,174,c),
(26,0,l)
);
}
);
width = 843;
}
);
note = two;
unicode = 50;
},
{
glyphname = three;
kernRight = three;
lastChange = "2023-09-13 04:36:28 +0000";
layers = (
{
layerId = "F5467FAD-1970-4982-B3D3-939C01050498";
shapes = (
{
closed = 1;
nodes = (
(579,-15,o),
(743,87,o),
(743,288,cs),
(743,566,o),
(527,647,o),
(335,611,c),
(342,599,l),
(722,1007,l),
(722,1050,l),
(107,1050,l),
(107,1007,l),
(654,1007,l),
(299,617,l),
(324,576,l),
(348,582,o),
(386,584,o),
(413,584,cs),
(566,584,o),
(681,479,o),
(681,303,cs),
(681,123,o),
(546,27,o),
(396,27,cs),
(246,27,o),
(135,89,o),
(114,245,c),
(51,245,l),
(77,68,o),
(213,-15,o),
(396,-15,cs)
);
}
);
width = 806;
},
{
layerId = "6DD95C5A-998B-41AB-BDFB-84A73C209871";
shapes = (
{
closed = 1;
nodes = (
(653,-15,o),
(845,120,o),
(845,330,cs),
(845,554,o),
(689,654,o),
(510,636,c),
(522,621,l),
(812,903,l),
(812,1050,l),
(111,1050,l),
(111,888,l),
(533,888,l),
(270,606,l),
(368,489,l),
(408,506,o),
(437,510,o),
(468,510,cs),
(552,510,o),
(615,452,o),
(615,330,cs),
(615,206,o),
(540,147,o),
(453,147,cs),
(347,147,o),
(285,195,o),
(290,344,c),
(60,344,l),
(53,107,o),
(231,-15,o),
(453,-15,cs)
);
}
);
width = 905;
},
{
layerId = "1FDC7037-1F88-4969-8535-0F79C1EF19DB";
shapes = (
{
closed = 1;
nodes = (
(567,-15,o),
(726,81,o),
(726,282,cs),
(726,567,o),
(501,645,o),
(306,606,c),
(314,596,l),
(707,1023,l),
(707,1050,l),
(105,1050,l),
(105,1026,l),
(674,1026,l),
(303,618,l),
(317,590,l),
(339,594,o),
(378,596,o),
(404,596,cs),
(567,596,o),
(692,483,o),
(692,299,cs),
(692,110,o),
(548,8,o),
(387,8,cs),
(230,8,o),
(111,72,o),
(86,228,c),
(50,228,l),
(81,62,o),
(210,-15,o),
(387,-15,cs)
);
}
);
width = 790;
},
{
layerId = "3ED9E848-BE83-4CAC-8EFF-D71BD2B4F667";
shapes = (
{
closed = 1;
nodes = (
(671,-15,o),
(870,128,o),
(870,341,cs),
(870,551,o),
(729,656,o),
(554,642,c),
(566,627,l),
(834,878,l),
(834,1050,l),
(113,1050,l),
(113,860,l),
(503,860,l),
(263,603,l),
(378,468,l),
(423,486,o),
(449,492,o),
(482,492,cs),
(549,492,o),
(599,446,o),
(599,336,cs),
(599,227,o),
(539,177,o),
(468,177,cs),
(372,177,o),
(323,221,o),
(333,368,c),
(63,368,l),
(47,116,o),
(236,-15,o),
(468,-15,cs)
);
}
);
width = 929;
}
);
note = three;
unicode = 51;
},
{
glyphname = four;
kernRight = four;
lastChange = "2023-09-13 04:36:28 +0000";
layers = (
{
layerId = "F5467FAD-1970-4982-B3D3-939C01050498";
shapes = (
{
closed = 1;
nodes = (
(633,0,l),
(633,363,l),
(821,363,l),
(821,410,l),
(633,410,l),
(633,1050,l),
(575,1050,l),
(51,402,l),
(51,365,l),
(570,363,l),
(570,0,l)
);
},
{
closed = 1;
nodes = (
(570,977,l),
(570,410,l),
(120,410,l)
);
}
);
width = 866;
},
{
layerId = "6DD95C5A-998B-41AB-BDFB-84A73C209871";
shapes = (
{
closed = 1;
nodes = (
(731,0,l),
(731,279,l),
(896,279,l),
(896,452,l),
(731,452,l),
(731,1050,l),
(530,1050,l),
(47,435,l),
(45,281,l),
(500,280,l),
(500,0,l)
);
},
{
closed = 1;
nodes = (
(500,726,l),
(500,452,l),
(291,452,l)
);
}
);
width = 945;
},
{
layerId = "1FDC7037-1F88-4969-8535-0F79C1EF19DB";
shapes = (
{
closed = 1;
nodes = (
(618,0,l),
(618,377,l),
(809,377,l),
(809,404,l),
(618,404,l),
(618,1050,l),
(582,1050,l),
(51,396,l),
(53,378,l),
(582,377,l),
(582,0,l)
);
},
{
closed = 1;
nodes = (
(582,1017,l),
(582,404,l),
(93,404,l)
);
}
);
width = 853;
},
{
layerId = "3ED9E848-BE83-4CAC-8EFF-D71BD2B4F667";
shapes = (
{
closed = 1;
nodes = (
(755,0,l),
(755,258,l),
(914,258,l),
(914,462,l),
(755,462,l),
(755,1050,l),
(519,1050,l),
(45,443,l),
(44,260,l),
(482,260,l),
(482,0,l)
);
},
{
closed = 1;
nodes = (
(482,665,l),
(482,462,l),
(333,462,l)
);
}
);
width = 965;
}
);
note = four;
unicode = 52;
},
{
glyphname = five;
kernRight = five;
lastChange = "2023-09-13 04:36:28 +0000";
layers = (
{
layerId = "F5467FAD-1970-4982-B3D3-939C01050498";
shapes = (
{
closed = 1;
nodes = (
(638,-15,o),
(810,110,o),
(810,311,cs),
(810,527,o),
(647,645,o),
(462,645,cs),
(363,645,o),
(295,611,o),
(240,572,c),
(240,1005,l),
(749,1005,l),
(749,1050,l),
(177,1050,l),
(177,519,l),
(240,519,l),
(287,560,o),
(338,603,o),
(462,603,cs),
(609,603,o),
(749,512,o),
(749,311,cs),
(749,132,o),
(606,27,o),
(456,27,cs),
(323,27,o),
(216,101,o),
(191,245,c),
(114,245,l),
(143,80,o),
(291,-15,o),
(456,-15,cs)
);
}
);
width = 900;
},
{
layerId = "6DD95C5A-998B-41AB-BDFB-84A73C209871";
shapes = (
{
closed = 1;
nodes = (
(656,-15,o),
(855,128,o),
(855,336,cs),
(855,588,o),
(663,692,o),
(473,692,cs),
(428,692,o),
(392,686,o),
(356,671,c),
(356,864,l),
(801,864,l),
(801,1050,l),
(155,1050,l),
(155,462,l),
(342,462,l),
(372,510,o),
(417,527,o),
(456,527,cs),
(545,527,o),
(626,474,o),
(626,336,cs),
(626,213,o),
(543,147,o),
(456,147,cs),
(366,147,o),
(288,210,o),
(294,344,c),
(66,344,l),
(56,126,o),
(252,-15,o),
(456,-15,cs)
);
}
);
width = 900;
},
{
layerId = "1FDC7037-1F88-4969-8535-0F79C1EF19DB";
shapes = (
{
closed = 1;
nodes = (
(635,-15,o),
(803,107,o),
(803,306,cs),
(803,516,o),
(644,638,o),
(461,638,cs),
(353,638,o),
(281,599,o),
(222,557,c),
(222,1028,l),
(740,1028,l),
(740,1050,l),
(180,1050,l),
(180,528,l),
(224,528,l),
(273,567,o),
(326,615,o),
(464,615,cs),
(620,615,o),
(768,518,o),
(768,306,cs),
(768,119,o),
(617,8,o),
(456,8,cs),
(315,8,o),
(204,83,o),
(174,228,c),
(122,228,l),
(156,72,o),
(297,-15,o),
(456,-15,cs)
);
}
);
width = 900;
},
{
layerId = "3ED9E848-BE83-4CAC-8EFF-D71BD2B4F667";
shapes = (
{
closed = 1;
nodes = (
(660,-15,o),
(866,132,o),
(866,342,cs),
(866,603,o),
(668,704,o),
(476,704,cs),
(444,704,o),
(416,704,o),
(384,695,c),
(384,830,l),
(815,830,l),
(815,1050,l),
(149,1050,l),
(149,449,l),
(368,449,l),
(393,498,o),
(437,507,o),
(455,507,cs),
(528,507,o),
(596,465,o),
(596,342,cs),
(596,233,o),
(528,177,o),
(456,177,cs),
(377,177,o),
(306,237,o),
(320,368,c),
(54,368,l),
(35,138,o),
(243,-15,o),
(456,-15,cs)
);
}
);
width = 900;
}
);
note = five;
unicode = 53;
},
{
glyphname = six;
lastChange = "2023-09-13 04:36:28 +0000";
layers = (
{
layerId = "F5467FAD-1970-4982-B3D3-939C01050498";
shapes = (
{
closed = 1;
nodes = (
(592,-15,o),
(756,102,o),
(756,303,cs),
(756,504,o),
(591,623,o),
(408,623,cs),
(349,623,o),
(299,611,o),
(249,587,c),
(536,1050,l),
(468,1050,l),
(119,488,ls),
(86,435,o),
(61,377,o),
(61,305,cs),
(61,104,o),
(226,-15,o),
(409,-15,cs)
);
},
{
closed = 1;
nodes = (
(258,27,o),
(124,123,o),
(124,303,cs),
(124,483,o),
(260,579,o),
(410,579,cs),
(560,579,o),
(693,485,o),
(693,305,cs),
(693,125,o),
(558,27,o),
(408,27,cs)
);
}
);
width = 821;
},
{
layerId = "6DD95C5A-998B-41AB-BDFB-84A73C209871";
shapes = (
{
closed = 1;
nodes = (
(609,-15,o),
(801,120,o),
(801,330,cs),
(801,515,o),
(648,644,o),
(474,671,cs),
(462,672,o),
(450,674,o),
(438,674,c),
(672,1050,l),
(408,1050,l),
(99,552,ls),
(48,471,o),
(17,407,o),
(17,330,cs),
(17,122,o),
(210,-15,o),
(410,-15,cs)
);
},
{
closed = 1;
nodes = (
(321,149,o),
(248,206,o),
(248,330,cs),
(248,453,o),
(323,512,o),
(410,512,cs),
(497,512,o),
(570,455,o),
(570,330,cs),
(570,207,o),
(495,149,o),
(408,149,cs)
);
}
);
width = 821;
},
{
layerId = "1FDC7037-1F88-4969-8535-0F79C1EF19DB";
shapes = (
{
closed = 1;
nodes = (
(590,-15,o),
(749,99,o),
(749,299,cs),
(749,503,o),
(582,620,o),
(398,615,cs),
(330,615,o),
(275,600,o),
(219,573,c),
(513,1050,l),
(477,1050,l),
(122,477,ls),
(92,429,o),
(69,372,o),
(69,300,cs),
(69,101,o),
(230,-15,o),
(410,-15,cs)
);
},
{
closed = 1;
nodes = (
(248,8,o),
(105,110,o),
(105,299,cs),
(105,488,o),
(249,590,o),
(410,590,cs),
(570,590,o),
(713,489,o),
(713,300,cs),
(713,111,o),
(569,8,o),
(408,8,cs)
);
}
);
width = 821;
},
{
layerId = "3ED9E848-BE83-4CAC-8EFF-D71BD2B4F667";
shapes = (
{
closed = 1;
nodes = (
(614,-15,o),
(812,125,o),
(812,336,cs),
(812,518,o),
(662,648,o),
(491,683,cs),
(491,684,o),
(488,689,o),
(485,696,c),
(705,1050,l),
(393,1050,l),
(95,569,ls),
(39,480,o),
(6,414,o),
(6,336,cs),
(6,126,o),
(206,-15,o),
(410,-15,cs)
);
},
{
closed = 1;
nodes = (
(336,179,o),
(278,227,o),
(278,336,cs),
(278,446,o),
(338,495,o),
(410,495,cs),
(482,495,o),
(540,447,o),
(540,336,cs),
(540,228,o),
(480,179,o),
(408,179,cs)
);
}
);
width = 821;
}
);
note = six;
unicode = 54;
},
{
glyphname = seven;
kernRight = seven;
lastChange = "2023-09-13 04:36:28 +0000";
layers = (
{
layerId = "F5467FAD-1970-4982-B3D3-939C01050498";
shapes = (
{
closed = 1;
nodes = (
(179,0,l),
(672,1050,l),
(92,1050,l),
(92,1005,l),
(598,1005,l),
(110,0,l)
);
}
);
width = 756;
},
{
layerId = "6DD95C5A-998B-41AB-BDFB-84A73C209871";
shapes = (
{
closed = 1;
nodes = (
(279,0,l),
(776,1050,l),
(42,1050,l),
(42,864,l),
(441,864,l),
(21,0,l)
);
}
);
width = 756;
},
{
layerId = "1FDC7037-1F88-4969-8535-0F79C1EF19DB";
shapes = (
{
closed = 1;
nodes = (
(162,0,l),
(656,1050,l),
(99,1050,l),
(99,1028,l),
(623,1028,l),
(123,0,l)
);
}
);
width = 756;
},
{
layerId = "3ED9E848-BE83-4CAC-8EFF-D71BD2B4F667";
shapes = (
{
closed = 1;
nodes = (
(305,0,l),
(801,1050,l),
(30,1050,l),
(30,830,l),
(402,830,l),
(0,0,l)
);
}
);
width = 756;
}
);
note = seven;
unicode = 55;
},
